<svg width="18" height="18" viewBox="0 0 18 18" fill="none" xmlns="http://www.w3.org/2000/svg">
<g clip-path="url(#clip0_216_310)">
<path d="M9.43936 0.665471V0.304276C9.43936 0.136991 9.30233 0.00012207 9.13485 0.00012207H7.91681C7.74933 0.00012207 7.6123 0.136991 7.6123 0.304276V0.665471C8.21753 0.589433 8.83414 0.589433 9.43936 0.665471Z" fill="#EAEAEA"/>
<path d="M9.13601 7.90823C9.13601 8.24416 8.86331 8.51654 8.52699 8.51654C8.19067 8.51654 7.91797 8.24416 7.91797 7.90823C7.91797 7.57231 8.19067 7.29993 8.52699 7.29993C8.86331 7.29993 9.13601 7.57231 9.13601 7.90823Z" fill="#EAEAEA"/>
<path d="M9.51179 7.19747L11.1447 3.55145C11.16 3.51342 11.1447 3.4716 11.1067 3.4564C11.0762 3.44119 11.0381 3.45259 11.0191 3.47921L8.65918 6.69945C9.00176 6.73747 9.31007 6.91616 9.51181 7.1975L9.51179 7.19747Z" fill="#EAEAEA"/>
<path d="M14.4712 3.66891L14.8823 3.25832C15.0003 3.14046 15.0003 2.94656 14.8823 2.82872L14.2238 2.16719C14.1058 2.04933 13.9116 2.04933 13.7936 2.16719L13.4473 2.51316C13.8241 2.86292 14.1705 3.24692 14.4712 3.66895L14.4712 3.66891Z" fill="#EAEAEA"/>
<path d="M16.6797 11.9306C16.4475 11.7671 16.1468 11.7329 15.8841 11.8356L9.24583 14.3486C8.76623 14.5311 8.22953 14.4589 7.81463 14.1623L6.31491 13.0788H4.56779V12.4705H8.6785C9.09719 12.4705 9.43977 12.1283 9.43977 11.7101C9.43977 11.2919 9.0972 10.9497 8.6785 10.9497H5.3251C4.92161 10.9497 4.53337 11.1094 4.2479 11.3945L3.79492 11.847C3.39527 12.2462 2.85474 12.4705 2.28762 12.4705H0V16.1204H4.00039L6.78285 16.9035C7.69638 17.1621 8.67081 17.0822 9.53106 16.683L16.5539 13.421C16.8584 13.2803 17.0526 12.9761 17.0526 12.6378C17.0564 12.3564 16.9155 12.0903 16.6795 11.9306L16.6797 11.9306Z" fill="#EAEAEA"/>
<path d="M4.91343 7.95746L7.38758 8.34525C7.281 8.06771 7.27719 7.75596 7.38377 7.47839L4.91345 7.8586C4.8868 7.8624 4.86777 7.88902 4.87158 7.91563C4.87539 7.93844 4.8944 7.95366 4.91343 7.95746Z" fill="#EAEAEA"/>
<path d="M1.83509 8.21227C1.88837 9.45551 2.29185 10.6607 2.99985 11.6872C3.13687 11.615 3.25868 11.5238 3.36905 11.4173L3.82202 10.9649C4.22168 10.5657 4.76221 10.3413 5.32933 10.3413H8.67894C9.43642 10.3413 10.0492 10.9534 10.0492 11.71C10.0492 12.4666 9.43642 13.0787 8.67894 13.0787H7.35813L8.17269 13.6642C8.4201 13.8429 8.74363 13.8847 9.02911 13.7783L13.0563 12.2537L12.196 11.3945L12.6262 10.9649L13.6805 12.018L13.867 11.9458C14.6892 10.8698 15.1612 9.56575 15.2183 8.21215H13.7034V7.60384H15.2183C15.1536 6.18951 14.6397 4.82843 13.7529 3.72597L12.7023 4.77532L12.2722 4.34571L13.3532 3.26598C12.1618 2.03414 10.544 1.30039 8.8311 1.22437V2.73752H8.22208V1.22437C6.50921 1.3004 4.89151 2.03418 3.70385 3.26981L4.8572 4.4218L4.42709 4.85141L3.3004 3.72604C2.4097 4.8286 1.89586 6.18968 1.83496 7.60391H3.34989V8.21222L1.83509 8.21227ZM4.82308 7.25799L7.83773 6.79415L10.5288 3.11754C10.7496 2.81339 11.1797 2.74877 11.4804 2.96927C11.7393 3.15936 11.8306 3.50534 11.7012 3.79809L9.64195 8.39829C9.42498 8.89254 8.9035 9.1853 8.3668 9.11303C8.34777 9.10923 8.32873 9.10923 8.3097 9.10543L4.82298 8.55795C4.46136 8.50092 4.21775 8.16634 4.27107 7.80518C4.31674 7.52383 4.53751 7.29952 4.82298 7.2577L4.82308 7.25799Z" fill="#707F95"/>
</g>
<defs>
<clipPath id="clip0_216_310">
<rect width="18" height="18" fill="white"/>
</clipPath>
</defs>
</svg>
