<svg width="20" height="20" viewBox="0 0 20 20" fill="none" xmlns="http://www.w3.org/2000/svg">
<g clip-path="url(#clip0_224_1135)">
<path d="M18.6315 13.9624H6.30955C5.96584 13.9624 5.68457 14.2437 5.68457 14.5874V14.803C5.68457 15.1467 5.96583 15.428 6.30955 15.428H18.6345C18.9782 15.428 19.2594 15.1467 19.2594 14.803V14.5874C19.2564 14.2437 18.9783 13.9624 18.6314 13.9624H18.6315Z" fill="#707F95"/>
<path d="M18.4062 19.3751H0.312484C0.140559 19.3751 0 19.5156 0 19.6875C0 19.8595 0.140559 20 0.312484 20H18.4062C18.5781 20 18.7186 19.8595 18.7186 19.6875C18.7186 19.5156 18.5781 19.3751 18.4062 19.3751Z" fill="#707F95"/>
<path d="M2.42502 17.328C2.07815 17.328 1.79688 17.6093 1.79688 17.9561V18.7499H6.53732V17.9561C6.53732 17.6093 6.25605 17.328 5.90917 17.328H2.42502Z" fill="#707F95"/>
<path d="M9.0089 11.9998C9.0089 12.7384 8.41011 13.3371 7.67152 13.3371C6.93274 13.3371 6.33398 12.7384 6.33398 11.9998C6.33398 11.261 6.93277 10.6622 7.67152 10.6622C8.41015 10.6622 9.0089 11.261 9.0089 11.9998Z" fill="#EAEAEA"/>
<path d="M13.1467 4.12799C13.2092 4.03419 13.3187 3.98427 13.4342 3.99362C13.5467 4.00614 13.6467 4.07793 13.6904 4.18425L14.1592 5.28743L14.4685 4.46552C14.509 4.35618 14.6122 4.27806 14.7279 4.26554C14.8466 4.25303 14.9591 4.30928 15.0248 4.40927L15.4498 5.07177L15.5029 5.01235C15.5623 4.94358 15.6466 4.90604 15.7372 4.90604H16.7435V3.76227H11.8594V4.89035H12.6312L13.1467 4.12799Z" fill="#707F95"/>
<path d="M16.7439 5.52792H15.8783L15.6439 5.7935C15.5783 5.86845 15.4877 5.906 15.3845 5.89982C15.2877 5.89363 15.197 5.8404 15.1438 5.75609L14.8313 5.26853L14.4658 6.23735C14.422 6.35605 14.3063 6.43733 14.1783 6.4405H14.1721C14.0471 6.4405 13.9346 6.36554 13.8847 6.24987L13.3378 4.95605L13.0504 5.37787C12.9909 5.46218 12.8941 5.51541 12.791 5.51541H11.8535V6.64047H16.738L16.7378 5.52794L16.7439 5.52792Z" fill="#707F95"/>
<path d="M10.9212 8.2062H17.6837C18.0305 8.2062 18.3118 7.92493 18.3118 7.57805L18.3117 2.81883C18.3117 2.47196 18.0304 2.19069 17.6835 2.19069H17.2023V0.312484C17.2023 0.14056 17.0617 0 16.8898 0C16.7179 0 16.5773 0.14056 16.5773 0.312484V2.19371H12.0273V0.312484C12.0273 0.14056 11.8867 0 11.7148 0C11.5429 0 11.4023 0.14056 11.4023 0.312484V2.19371H10.9211C10.5742 2.19371 10.293 2.47497 10.293 2.82185V7.58107C10.293 7.92492 10.5742 8.2062 10.9211 8.2062H10.9212ZM11.2337 3.44697C11.2337 3.27505 11.3743 3.13449 11.5462 3.13449H17.0557C17.2276 3.13449 17.3682 3.27505 17.3682 3.44697V6.95002C17.3682 7.12195 17.2276 7.2625 17.0557 7.2625H11.5462C11.3743 7.2625 11.2337 7.12195 11.2337 6.95002V3.44697Z" fill="#707F95"/>
<path d="M1.90547 16.8216C2.06171 16.7435 2.23982 16.7029 2.42728 16.7029H3.59606C2.79916 15.6122 2.29289 13.8998 2.29289 11.9341C2.29289 9.53725 3.04603 7.51518 4.16159 6.54028H3.0741C1.5491 6.54028 0.311523 8.95584 0.311523 11.9341C0.311667 14.0967 0.964821 15.9622 1.90543 16.8215L1.90547 16.8216Z" fill="#707F95"/>
<path d="M3.02733 13.4217H4.27728C4.17729 12.9655 4.12103 12.4624 4.12103 11.9343C4.12103 10.0405 4.83665 8.44057 5.6836 8.44057C6.24298 8.44057 6.74292 9.13431 7.01797 10.15C7.22111 10.0751 7.44295 10.0344 7.67112 10.0344C7.88678 10.0344 8.09293 10.0687 8.28674 10.1343C7.90863 8.0406 6.88674 6.54065 5.68356 6.54065C4.1554 6.54065 2.91797 8.95621 2.91797 11.9345C2.91797 12.4498 2.95854 12.9499 3.02731 13.4218L3.02733 13.4217Z" fill="#707F95"/>
<path d="M7.46245 16.0529H6.72813C5.16873 16.131 4.67815 14.6967 4.44998 14.0466H3.14062C3.3875 15.1872 3.83436 16.1278 4.39058 16.7029H5.91241C6.19986 16.7029 6.4656 16.7997 6.67807 16.9654C6.96567 16.7466 7.23127 16.4373 7.46245 16.0529Z" fill="#707F95"/>
<path d="M12.9501 16.0529L11.125 18.7497H14.1406L15.9626 16.0529H12.9501Z" fill="#707F95"/>
<path d="M17.9777 13.3374C17.9777 12.5249 17.3996 11.8436 16.6339 11.6874L15.6308 11.4906L14.312 11.1687C13.184 10.8938 12.0089 10.8968 10.8808 11.1749L9.56825 11.4999C9.60882 11.6593 9.63385 11.8249 9.63385 11.9968C9.63385 12.5156 9.43071 12.9843 9.10254 13.3344H17.9776L17.9777 13.3374Z" fill="#EAEAEA"/>
</g>
<defs>
<clipPath id="clip0_224_1135">
<rect width="20" height="20" fill="white"/>
</clipPath>
</defs>
</svg>
