<svg width="20" height="20" viewBox="0 0 20 20" fill="none" xmlns="http://www.w3.org/2000/svg">
<g clip-path="url(#clip0_236_83)">
<mask id="path-1-inside-1_236_83" fill="white">
<path d="M18.6315 13.9624H6.30955C5.96584 13.9624 5.68457 14.2437 5.68457 14.5874V14.803C5.68457 15.1467 5.96583 15.428 6.30955 15.428H18.6345C18.9782 15.428 19.2594 15.1467 19.2594 14.803V14.5874C19.2564 14.2437 18.9783 13.9624 18.6314 13.9624H18.6315Z"/>
</mask>
<path d="M19.2594 14.5874L19.5595 14.5874L19.5594 14.5847L19.2594 14.5874ZM18.6315 13.6624H6.30955V14.2624H18.6315V13.6624ZM6.30955 13.6624C5.80016 13.6624 5.38457 14.078 5.38457 14.5874H5.98457C5.98457 14.4094 6.13153 14.2624 6.30955 14.2624V13.6624ZM5.38457 14.5874V14.803H5.98457V14.5874H5.38457ZM5.38457 14.803C5.38457 15.3124 5.80014 15.728 6.30955 15.728V15.128C6.13152 15.128 5.98457 14.9811 5.98457 14.803H5.38457ZM6.30955 15.728H18.6345V15.128H6.30955V15.728ZM18.6345 15.728C19.1439 15.728 19.5594 15.3124 19.5594 14.803H18.9594C18.9594 14.9811 18.8125 15.128 18.6345 15.128V15.728ZM19.5594 14.803V14.5874H18.9594V14.803H19.5594ZM19.5594 14.5847C19.555 14.0789 19.1455 13.6624 18.6314 13.6624V14.2624C18.8112 14.2624 18.9579 14.4084 18.9595 14.59L19.5594 14.5847ZM18.6314 14.2624H18.6315V13.6624H18.6314V14.2624Z" fill="#14467B" mask="url(#path-1-inside-1_236_83)"/>
<path d="M0.312484 19.5251H18.4062C18.4952 19.5251 18.5686 19.5985 18.5686 19.6875C18.5686 19.7766 18.4952 19.85 18.4062 19.85H0.312484C0.223402 19.85 0.15 19.7766 0.15 19.6875C0.15 19.5985 0.223403 19.5251 0.312484 19.5251Z" stroke="#14467B" stroke-width="0.3"/>
<path d="M1.94688 17.9561C1.94688 17.6921 2.16099 17.478 2.42502 17.478H5.90917C6.17321 17.478 6.38732 17.6921 6.38732 17.9561V18.5999H1.94688V17.9561Z" stroke="#14467B" stroke-width="0.3"/>
<path d="M8.8589 11.9998C8.8589 12.6556 8.32727 13.1871 7.67152 13.1871C7.01557 13.1871 6.48398 12.6555 6.48398 11.9998C6.48398 11.3438 7.01561 10.8122 7.67152 10.8122C8.3273 10.8122 8.8589 11.3438 8.8589 11.9998Z" stroke="#14467B" stroke-width="0.3"/>
<path d="M12.0094 3.91227H13.1588C13.1056 3.94527 13.0588 3.98959 13.0222 4.04439L12.5516 4.74035H12.0094V3.91227ZM16.5935 3.91227V4.75604H15.7372C15.6434 4.75604 15.553 4.78372 15.4768 4.83601L15.1511 4.32828L15.1511 4.32827L15.1501 4.32685C15.0552 4.18241 14.8895 4.09767 14.7121 4.11637L14.7117 4.11642C14.5414 4.13485 14.389 4.24892 14.328 4.41295C14.3279 4.41308 14.3279 4.41321 14.3278 4.41334L14.1507 4.88399L13.8288 4.1263C13.791 4.03505 13.726 3.96166 13.6464 3.91227H16.5935Z" stroke="#14467B" stroke-width="0.3"/>
<path d="M12.0035 5.66541H12.791C12.9458 5.66541 13.0872 5.586 13.173 5.46429L13.173 5.4643L13.1743 5.46234L13.3068 5.26794L13.7465 6.30827L13.7465 6.30827L13.7469 6.30931C13.7782 6.38164 13.8262 6.44341 13.8855 6.49047H12.0035V5.66541ZM16.5878 5.67792L16.5879 6.49047H14.4594C14.5246 6.4393 14.5763 6.3707 14.6063 6.28982L14.8662 5.60095L15.017 5.83618C15.0171 5.83634 15.0172 5.8365 15.0173 5.83665C15.0961 5.96122 15.2302 6.04026 15.3749 6.04951L15.3755 6.04955C15.5235 6.05842 15.6595 6.00324 15.7566 5.89253C15.7566 5.89245 15.7567 5.89237 15.7568 5.89228L15.9459 5.67792H16.5878Z" stroke="#14467B" stroke-width="0.3"/>
<path d="M17.0523 2.19069V2.34069H17.2023H17.6835C17.9476 2.34069 18.1617 2.5548 18.1617 2.81883L18.1618 7.57805C18.1618 7.84209 17.9477 8.0562 17.6837 8.0562H10.9212H10.9211C10.6566 8.0562 10.443 7.84161 10.443 7.58107V2.82185C10.443 2.55781 10.6571 2.34371 10.9211 2.34371H11.4023H11.5523V2.19371V0.312484C11.5523 0.223402 11.6257 0.15 11.7148 0.15C11.8039 0.15 11.8773 0.223402 11.8773 0.312484V2.19371V2.34371H12.0273H16.5773H16.7273V2.19371V0.312484C16.7273 0.223402 16.8007 0.15 16.8898 0.15C16.9789 0.15 17.0523 0.223403 17.0523 0.312484V2.19069ZM11.5462 2.98449C11.2914 2.98449 11.0837 3.19221 11.0837 3.44697V6.95002C11.0837 7.20479 11.2914 7.4125 11.5462 7.4125H17.0557C17.3104 7.4125 17.5182 7.20479 17.5182 6.95002V3.44697C17.5182 3.1922 17.3104 2.98449 17.0557 2.98449H11.5462Z" stroke="#14467B" stroke-width="0.3"/>
<path d="M3.31134 16.5529H2.42728C2.25556 16.5529 2.08907 16.5834 1.93613 16.6438C1.07681 15.7962 0.461664 14.0207 0.461523 11.9341L3.31134 16.5529ZM3.31134 16.5529C2.58686 15.4288 2.14289 13.7863 2.14289 11.9341C2.14289 9.70792 2.78545 7.77524 3.79262 6.69028M3.31134 16.5529L3.79262 6.69028M3.79262 6.69028H3.0741C2.39715 6.69028 1.74564 7.22977 1.25444 8.18873C0.767341 9.13968 0.461525 10.4637 0.461523 11.9341L3.79262 6.69028Z" stroke="#14467B" stroke-width="0.3"/>
<path d="M4.09359 13.2717H3.15784C3.10095 12.8445 3.06797 12.3955 3.06797 11.9345C3.06797 10.4641 3.37375 9.14006 3.86119 8.18913C4.35269 7.23028 5.00493 6.69065 5.68356 6.69065C6.21759 6.69065 6.73413 7.02358 7.17234 7.63932C7.57585 8.20629 7.89968 8.99673 8.09361 9.92689C7.95701 9.89878 7.81589 9.88435 7.67112 9.88435C7.48137 9.88435 7.29548 9.91047 7.11951 9.95965C6.98213 9.50439 6.79733 9.11252 6.57664 8.8234C6.33352 8.50487 6.0297 8.29057 5.6836 8.29057C5.42161 8.29057 5.1827 8.41476 4.97801 8.61219C4.77373 8.80923 4.59516 9.08652 4.44778 9.41602C4.15282 10.0755 3.97103 10.9705 3.97103 11.9343C3.97103 12.4038 4.01461 12.8545 4.09359 13.2717Z" stroke="#14467B" stroke-width="0.3"/>
<path d="M4.97298 15.4169C5.34282 15.8765 5.89768 16.2435 6.73183 16.2029H7.18675C7.02635 16.4328 6.85351 16.6255 6.67276 16.7776C6.45291 16.6346 6.19158 16.5529 5.91241 16.5529H4.45517C3.97306 16.0315 3.57131 15.2074 3.32869 14.1966H4.34373C4.45969 14.524 4.64396 15.008 4.97298 15.4169Z" stroke="#14467B" stroke-width="0.3"/>
<path d="M15.6802 16.2029L14.061 18.5997H11.4076L13.0297 16.2029H15.6802Z" stroke="#14467B" stroke-width="0.3"/>
<path d="M9.4152 13.1844C9.64691 12.8469 9.78385 12.4387 9.78385 11.9968C9.78385 11.8636 9.77 11.7347 9.74641 11.6103L10.9167 11.3205C10.9167 11.3205 10.9167 11.3205 10.9168 11.3205C12.0215 11.0482 13.172 11.0453 14.2765 11.3144C14.2765 11.3145 14.2765 11.3145 14.2765 11.3145L15.5952 11.6363L15.5952 11.6364L15.6019 11.6378L16.604 11.8343C16.6041 11.8344 16.6043 11.8344 16.6045 11.8345C17.2526 11.967 17.7533 12.5132 17.8201 13.1844H9.4152Z" stroke="#14467B" stroke-width="0.3"/>
</g>
<defs>
<clipPath id="clip0_236_83">
<rect width="20" height="20" fill="white"/>
</clipPath>
</defs>
</svg>
