<svg width="20" height="20" viewBox="0 0 20 20" fill="none" xmlns="http://www.w3.org/2000/svg">
<g clip-path="url(#clip0_224_921)">
<path d="M17.8611 9.1378e-05C17.8443 0.401699 17.677 0.782214 17.3925 1.06614C17.1079 1.35007 16.7268 1.51632 16.3252 1.53202C16.7268 1.54773 17.1079 1.71416 17.3925 1.99789C17.677 2.28181 17.8443 2.66234 17.8611 3.06394C17.8798 2.66376 18.0481 2.2852 18.3325 2.00305C18.617 1.72091 18.9968 1.55555 19.3971 1.54002C18.9941 1.52412 18.6119 1.35663 18.3272 1.07108C18.0425 0.785546 17.8759 0.403061 17.8611 0V9.1378e-05Z" fill="#EAEAEA"/>
<path d="M14.9225 18.4L17.0385 6.75621C17.1205 5.9457 16.9305 5.13084 16.4986 4.44015C16.1362 3.79764 15.6081 3.26424 14.9691 2.89552C14.3303 2.52677 13.6041 2.33643 12.8666 2.34411C11.4441 2.43501 10.0927 2.99805 9.02664 3.9441C7.96146 2.99892 6.61166 2.43591 5.19059 2.34411C4.45272 2.33518 3.72614 2.525 3.08701 2.89392C2.44793 3.26266 1.92007 3.79677 1.55861 4.44015C1.12665 5.13084 0.936667 5.9457 1.01863 6.75621L3.13058 18.4C3.20951 18.8479 3.44361 19.2536 3.79165 19.5463C4.13986 19.8388 4.57985 19.9995 5.03466 20C5.37287 20.0004 5.70108 19.8857 5.96572 19.675C6.23018 19.4641 6.41536 19.1698 6.49052 18.84L7.07442 16.312H7.0746C7.17675 15.8795 7.42281 15.4945 7.77229 15.2198C8.12175 14.9452 8.55409 14.7971 8.99852 14.8C9.46389 14.8004 9.91532 14.9589 10.2789 15.2496C10.6423 15.5404 10.896 15.946 10.9985 16.4L11.5666 18.8639C11.6462 19.1885 11.8328 19.4771 12.096 19.683C12.3594 19.8891 12.6842 20.0007 13.0185 20C13.4733 19.9994 13.9133 19.8387 14.2614 19.5462C14.6096 19.2535 14.8435 18.8478 14.9225 18.4L14.9225 18.4ZM15.0505 10.7562C15.0505 10.9771 14.8714 11.1562 14.6505 11.1562C14.4296 11.1562 14.2505 10.9771 14.2505 10.7562V9.95619C14.2505 9.73512 14.4296 9.55619 14.6505 9.55619C14.8714 9.55619 15.0505 9.73512 15.0505 9.95619V10.7562ZM11.8505 4.35622C11.8468 4.15247 11.9966 3.97854 12.1986 3.95211C13.2025 3.88819 14.1546 4.71211 14.6866 6.1121C14.9684 6.84033 15.0886 7.62104 15.0386 8.40014C15.0259 8.61157 14.8503 8.77657 14.6386 8.77621H14.5986C14.4925 8.76996 14.393 8.72175 14.3225 8.64228C14.252 8.56264 14.2161 8.45836 14.2225 8.3521C14.2762 7.68943 14.1834 7.02301 13.9505 6.40016C13.5505 5.36016 12.8944 4.71623 12.2666 4.75623C12.1591 4.76391 12.053 4.72784 11.9725 4.65623C11.892 4.58481 11.8438 4.48374 11.8386 4.37624L11.8505 4.35622Z" fill="#707F95"/>
</g>
<defs>
<clipPath id="clip0_224_921">
<rect width="20" height="20" fill="white"/>
</clipPath>
</defs>
</svg>
