<svg width="20" height="20" viewBox="0 0 20 20" fill="none" xmlns="http://www.w3.org/2000/svg">
<g clip-path="url(#clip0_236_103)">
<path d="M16.9743 1.53206C17.1678 1.44592 17.3458 1.3246 17.4985 1.17234L17.4985 1.17231C17.6511 1.02 17.7729 0.842268 17.8595 0.648862C17.9458 0.843953 18.0677 1.02331 18.2209 1.17698L18.2209 1.17701C18.3742 1.33069 18.5533 1.45311 18.7482 1.53989C18.5558 1.62547 18.3789 1.74577 18.2269 1.89655L18.2269 1.89656C18.0729 2.04931 17.95 2.2279 17.8627 2.4224C17.7759 2.22619 17.653 2.04593 17.4985 1.89172L17.4984 1.89165C17.3458 1.73952 17.1678 1.61822 16.9743 1.53206Z" stroke="#14467B" stroke-width="0.3"/>
<path d="M8.9991 14.65C8.52085 14.647 8.05565 14.8064 7.6796 15.1019C7.33487 15.3728 7.08359 15.7435 6.95938 16.162H6.95512L6.92827 16.2782L6.34437 18.8063L6.34427 18.8067C6.27669 19.1032 6.11019 19.3679 5.87228 19.5577C5.63421 19.7472 5.33899 19.8503 5.03484 19.85C4.61529 19.8495 4.20939 19.7013 3.88813 19.4314C3.56705 19.1614 3.35111 18.7871 3.2783 18.374L3.27817 18.3733L1.16729 6.7353C1.09016 5.95983 1.2725 5.18051 1.68578 4.51969L1.68592 4.51977L1.68938 4.51362C2.03766 3.89371 2.54625 3.37911 3.16198 3.02384L3.162 3.02383C3.77665 2.66904 4.47526 2.48617 5.18486 2.49406C6.57118 2.58448 7.88784 3.13414 8.92709 4.0563L9.02665 4.14465L9.12621 4.0563C10.1663 3.13331 11.4845 2.58363 12.8722 2.49406C13.5815 2.48739 14.2798 2.67078 14.8941 3.02542L14.8941 3.02543C15.5098 3.38074 16.0188 3.89472 16.3679 4.51383L16.3678 4.5139L16.3714 4.51968C16.7846 5.1805 16.967 5.95981 16.8899 6.73527L14.7749 18.3732L14.7807 18.3743L14.7748 18.3739C14.7019 18.7871 14.4861 19.1614 14.1649 19.4314C13.8438 19.7012 13.4379 19.8495 13.0184 19.85H13.0182C12.7175 19.8506 12.4254 19.7502 12.1884 19.5649L12.1007 19.677L12.1884 19.5648C11.952 19.3799 11.7842 19.1207 11.7125 18.8291C11.7124 18.8288 11.7123 18.8285 11.7122 18.8281L11.1448 16.367C11.1448 16.3669 11.1448 16.3668 11.1448 16.3668C11.0348 15.8797 10.7625 15.4444 10.3726 15.1325L10.3726 15.1325C9.98257 14.8207 9.49834 14.6505 8.9991 14.65ZM8.9991 14.65C8.99895 14.65 8.99879 14.65 8.99864 14.65L8.99853 14.8L8.99949 14.65C8.99936 14.65 8.99923 14.65 8.9991 14.65ZM14.6386 8.77621H14.5986C14.4925 8.76996 14.393 8.72175 14.3225 8.64228C14.252 8.56264 14.2161 8.45836 14.2225 8.3521C14.2762 7.68943 14.1834 7.02301 13.9505 6.40016M14.6386 8.77621L14.6383 8.92621M14.6386 8.77621V8.92621H14.6383M14.6386 8.77621C14.8503 8.77657 15.0259 8.61157 15.0386 8.40014L11.9725 4.65623M14.6383 8.92621H14.5986H14.5897L14.5897 8.92595C14.444 8.91736 14.3073 8.85114 14.2103 8.74186L14.2102 8.74173C14.1132 8.63224 14.0639 8.4889 14.0728 8.34305L14.073 8.33997C14.1249 7.69949 14.0352 7.05538 13.8103 6.45333M14.6383 8.92621C14.9293 8.9267 15.1705 8.7002 15.1883 8.40975C15.2396 7.60907 15.1162 6.80677 14.8267 6.0584C14.285 4.63332 13.2903 3.73229 12.189 3.80242L12.189 3.80209L12.1791 3.80338C11.9167 3.83772 11.7183 4.05313 11.7016 4.31302L11.6866 4.3382L11.6887 4.38345C11.6959 4.53112 11.7621 4.67011 11.873 4.76846M13.8103 6.45333C13.8104 6.45356 13.8104 6.45378 13.8105 6.45401L13.9505 6.40016M13.8103 6.45333C13.8102 6.45312 13.8101 6.4529 13.81 6.45269L13.9505 6.40016M13.8103 6.45333C13.6159 5.9482 13.3623 5.54757 13.0891 5.28045C12.8149 5.01234 12.5332 4.88955 12.2761 4.90593L12.2666 4.7563L12.2773 4.90585C12.1295 4.91641 11.9837 4.86685 11.873 4.76846M13.9505 6.40016C13.5505 5.36016 12.8944 4.71623 12.2666 4.75623C12.1591 4.76391 12.053 4.72784 11.9725 4.65623M11.9725 4.65623L11.873 4.76846M11.9725 4.65623L11.8728 4.76833C11.8729 4.76837 11.8729 4.76841 11.873 4.76846M14.6505 11.3062C14.9543 11.3062 15.2005 11.0599 15.2005 10.7562V9.95619C15.2005 9.65224 14.9542 9.40619 14.6505 9.40619C14.3468 9.40619 14.1005 9.65224 14.1005 9.95619V10.7562C14.1005 11.0599 14.3468 11.3062 14.6505 11.3062Z" stroke="#14467B" stroke-width="0.3"/>
</g>
<defs>
<clipPath id="clip0_236_103">
<rect width="20" height="20" fill="white"/>
</clipPath>
</defs>
</svg>
