<svg width="20" height="20" viewBox="0 0 20 20" fill="none" xmlns="http://www.w3.org/2000/svg">
<g clip-path="url(#clip0_236_119)">
<path d="M16.1332 1.19871V1.34871H16.2832H19.28C19.3462 1.34871 19.4097 1.37503 19.4565 1.4218C19.5033 1.46857 19.5296 1.53209 19.5296 1.59829V19.1796C19.5296 19.2458 19.5033 19.3093 19.4565 19.3561C19.4097 19.4028 19.3462 19.4291 19.28 19.4291H0.899575C0.833381 19.4291 0.769861 19.4028 0.723084 19.3561C0.676308 19.3093 0.65 19.2458 0.65 19.1796V1.59829C0.65 1.46048 0.761761 1.34871 0.899575 1.34871H3.89638H4.04638V1.19871L4.04638 0.799392C4.04638 0.799348 4.04638 0.799303 4.04638 0.799259C4.04671 0.627055 4.11514 0.462168 4.23684 0.340457C4.35855 0.218748 4.52344 0.150321 4.69566 0.15H6.29369C6.4659 0.150321 6.63079 0.218751 6.75251 0.340461C6.87424 0.462194 6.94267 0.627128 6.94296 0.799393V1.19871V1.34871H7.09296H13.0866H13.2366V1.19871V0.799392C13.2369 0.62714 13.3053 0.462199 13.427 0.340457C13.5487 0.218748 13.7136 0.150321 13.8859 0.15H15.4839C15.6561 0.150321 15.821 0.21875 15.9427 0.340461C16.0644 0.462194 16.1329 0.627128 16.1332 0.799393V1.19871ZM13.8859 0.64914H13.7359L13.7359 0.799139L13.7359 2.39744L13.7359 2.54744H13.8859H15.485H15.635L15.635 2.39737L15.6342 0.799073L15.6342 0.64914H15.4842H13.8859ZM4.69573 0.64914H4.54573L4.54573 0.799139L4.54571 2.39744L4.54571 2.54744H4.69571H6.29474H6.4448L6.44474 2.39737L6.44402 0.799073L6.44396 0.64914H6.29402H4.69573ZM18.8804 18.93H19.0304L19.0304 18.78L19.0304 1.99786V1.84786H18.8804H16.2831H16.1331V1.99786V2.39719C16.1328 2.56944 16.0644 2.73438 15.9427 2.85612C15.821 2.97783 15.6561 3.04625 15.4839 3.04658C15.4838 3.04658 15.4838 3.04658 15.4837 3.04658H13.8859C13.8859 3.04658 13.8858 3.04658 13.8858 3.04658C13.7136 3.04625 13.5487 2.97782 13.427 2.85612C13.3053 2.73439 13.2368 2.56945 13.2365 2.39719V1.99786V1.84786H13.0865H7.09293H6.94293V1.99786V2.39719C6.94264 2.56944 6.8742 2.73438 6.75247 2.85612C6.63076 2.97783 6.46588 3.04625 6.29367 3.04658C6.29362 3.04658 6.29358 3.04658 6.29353 3.04658H4.69574C4.6957 3.04658 4.69565 3.04658 4.69561 3.04658C4.5234 3.04625 4.35851 2.97782 4.2368 2.85612C4.11507 2.73439 4.04664 2.56945 4.04635 2.39719V1.99786V1.84786H3.89635H1.29911H1.14911V1.99786V18.78V18.93H1.29911H18.8804Z" stroke="#14467B" stroke-width="0.3"/>
<path d="M7.13777 11.5586L7.13789 11.5585C7.24091 11.4555 7.38076 11.3975 7.52661 11.3977H7.52651V11.5476L7.52677 11.3977L7.13777 11.5586ZM7.13777 11.5586C7.03487 11.6617 6.97694 11.8013 6.97694 11.9473V11.9872C6.97663 12.2654 6.86612 12.532 6.66951 12.7286M7.13777 11.5586L6.66951 12.7286M6.66951 12.7286C6.4728 12.9252 6.20617 13.0358 5.92803 13.0362L6.66951 12.7286ZM7.98327 11.3977C8.00565 11.452 8.03673 11.5027 8.07562 11.5477H8.13194H8.28571L8.20882 11.4708C8.18661 11.4486 8.16728 11.424 8.15108 11.3977H7.98327ZM8.61949 10.4952L8.72489 10.3898L8.72558 10.3891L8.72523 10.3888L8.61951 10.2831L8.51343 10.3891L8.61949 10.4952ZM8.20901 9.30746L8.32602 9.19044H8.11389L8.10294 9.20139C8.0618 9.24253 8.02785 9.28954 8.00192 9.34044H8.17949C8.18867 9.32896 8.19852 9.31795 8.20901 9.30746Z" stroke="#14467B" stroke-width="0.3"/>
<path d="M11.9139 11.4376H12.6851C12.8308 11.4376 12.9707 11.4955 13.0737 11.5985C13.1768 11.7016 13.2347 11.8414 13.2347 11.9872C13.2347 12.2653 13.3452 12.5322 13.5418 12.7287C13.7384 12.9253 14.0053 13.0359 14.2834 13.0359C14.5615 13.0359 14.8284 12.9254 15.025 12.7288C15.2216 12.5321 15.3321 12.2652 15.3321 11.9872C15.3321 11.7091 15.2216 11.4422 15.025 11.2456C14.8284 11.049 14.5615 10.9385 14.2834 10.9385C13.9799 10.9385 13.7338 10.6924 13.7338 10.3889C13.7338 10.0854 13.9799 9.83932 14.2834 9.83932C14.5615 9.83932 14.8284 9.72882 15.025 9.53221C15.2216 9.33558 15.3321 9.06868 15.3321 8.79062C15.3321 8.51254 15.2216 8.24562 15.025 8.04905C14.8284 7.85245 14.5615 7.74192 14.2834 7.74192C14.0053 7.74192 13.7384 7.85243 13.5418 8.04903C13.3452 8.24566 13.2347 8.51256 13.2347 8.79062C13.2347 8.93634 13.1768 9.07618 13.0737 9.17924C12.9707 9.2823 12.8308 9.34019 12.6851 9.34019H11.9139L11.6643 9.58977L12.0748 10.0003M11.9139 11.4376L12.0748 10.0003M11.9139 11.4376L11.6643 11.188L12.0748 10.7775C12.1778 10.6745 12.2357 10.5346 12.2357 10.3889C12.2357 10.2432 12.1778 10.1033 12.0748 10.0003M11.9139 11.4376L12.0748 10.0003" stroke="#14467B" stroke-width="0.3"/>
<path d="M10.6035 9.87265L10.4974 9.97871C10.3944 9.87565 10.3365 9.73581 10.3365 9.59009C10.3365 9.44437 10.3944 9.30453 10.4974 9.20147L11.2966 8.40232C11.3997 8.29926 11.5395 8.24137 11.6852 8.24137H12.2058C12.3744 7.60277 12.8288 7.07457 13.4408 6.81398L10.6035 9.87265ZM10.6035 9.87265L10.4974 9.97872L10.908 10.3892L10.4975 10.7997C10.3944 10.9028 10.3365 11.0426 10.3365 11.1884C10.3365 11.3341 10.3944 11.4739 10.4975 11.577L11.2966 12.3761C11.3997 12.4792 11.5395 12.5371 11.6853 12.5371H12.2059C12.3747 13.1753 12.8291 13.7034 13.4409 13.9637C14.0904 14.2405 14.8345 14.18 15.4311 13.8023C16.0277 13.4247 16.4003 12.7778 16.4282 12.0723L16.2783 12.0664L16.4282 12.0723C16.4534 11.4301 16.1899 10.814 15.7164 10.3892C16.1901 9.96448 16.454 9.3484 16.4287 8.70603C16.4287 8.70602 16.4287 8.70601 16.4287 8.70599L16.2788 8.7119M10.6035 9.87265L15.3513 7.10218M16.2788 8.7119C16.2531 8.05546 15.9063 7.4536 15.3513 7.10218M16.2788 8.7119C16.3026 9.31668 16.0509 9.89646 15.6 10.292L16.2788 8.7119ZM15.3513 7.10218L15.4316 6.97546C15.4316 6.97546 15.4316 6.97546 15.4316 6.97546M15.3513 7.10218L15.4316 6.97546M15.4316 6.97546C14.8348 6.59747 14.0905 6.53726 13.4408 6.81398L15.4316 6.97546ZM3.77724 8.79097L3.77719 8.79096C3.777 8.0747 4.13369 7.4054 4.72858 7.00632C5.32347 6.60723 6.0781 6.5311 6.74066 6.80303L6.74068 6.80304C7.36524 7.05948 7.83062 7.59319 8.00174 8.24132H9.28757C9.50994 8.24132 9.71012 8.37534 9.7952 8.58057C9.88037 8.78601 9.83319 9.02226 9.67627 9.17943L9.67619 9.17952L9.26568 9.59002L9.67619 10.0005C9.77925 10.1036 9.83714 10.2434 9.83714 10.3891C9.83714 10.5349 9.77925 10.6747 9.67619 10.7778L9.26568 11.1883L9.63609 11.5587L9.89216 11.8147H9.78067C9.80842 11.9265 9.80104 12.0465 9.75516 12.1575L9.7551 12.1576C9.66997 12.363 9.46976 12.4966 9.24764 12.4969L9.24747 12.4969H8.01206C7.85501 13.1414 7.40778 13.68 6.7973 13.9512C6.1483 14.2396 5.39869 14.1884 4.79481 13.8146C4.19091 13.4409 3.8108 12.7929 3.77953 12.0834M3.77724 8.79097L3.92938 12.0768M3.77724 8.79097C3.77744 9.40383 4.03916 9.98415 4.49124 10.3892M3.77724 8.79097L4.72762 10.3891C4.68623 10.3582 4.64624 10.3257 4.6077 10.292C4.56759 10.3231 4.52876 10.3556 4.49124 10.3892M3.77953 12.0834L3.92938 12.0768M3.77953 12.0834C3.77953 12.0834 3.77953 12.0834 3.77953 12.0834L3.92938 12.0768M3.77953 12.0834C3.7509 11.4373 4.01469 10.8165 4.49124 10.3892M3.92938 12.0768C3.90242 11.4685 4.15415 10.8842 4.60774 10.4864C4.56762 10.4552 4.52878 10.4228 4.49124 10.3892M17.5289 4.54551V16.2327H2.64512V4.54551H17.5289Z" stroke="#14467B" stroke-width="0.3"/>
</g>
<defs>
<clipPath id="clip0_236_119">
<rect width="20" height="20" fill="white"/>
</clipPath>
</defs>
</svg>
