<svg width="21" height="20" viewBox="0 0 21 20" fill="none" xmlns="http://www.w3.org/2000/svg">
<g clip-path="url(#clip0_224_1514)">
<rect width="20" height="20" transform="translate(0.5)" fill="white"/>
<path d="M19.78 1.19871H16.7832V0.79914C16.7828 0.587224 16.6986 0.384227 16.5488 0.234393C16.3989 0.0845593 16.1959 0.000356192 15.984 0H14.3857C14.1738 0.00035674 13.9708 0.0845548 13.821 0.234393C13.6711 0.384231 13.5869 0.587233 13.5866 0.79914V1.19871H7.59296V0.79914C7.59261 0.587224 7.50841 0.384227 7.35857 0.234393C7.20873 0.0845593 7.00573 0.000356192 6.79382 0H5.19552C4.98361 0.00035674 4.78061 0.0845548 4.63078 0.234393C4.48094 0.384231 4.39674 0.587233 4.39638 0.79914V1.19871H1.39957C1.17892 1.19871 1 1.37763 1 1.59829V19.1796C1 19.2855 1.0421 19.3872 1.11702 19.4621C1.19194 19.5371 1.29362 19.5791 1.39957 19.5791H19.78C19.886 19.5791 19.9876 19.5371 20.0626 19.4621C20.1375 19.3872 20.1796 19.2855 20.1796 19.1796V1.59829C20.1796 1.49233 20.1375 1.39065 20.0626 1.31573C19.9876 1.24081 19.8859 1.19871 19.78 1.19871ZM14.3859 0.79914H15.9842L15.985 2.39744H14.3859L14.3859 0.79914ZM5.19573 0.79914H6.79402L6.79474 2.39744H5.19571L5.19573 0.79914ZM19.3804 18.78H1.79911V1.99786H4.39635V2.39744C4.3967 2.60935 4.4809 2.81235 4.63074 2.96219C4.78058 3.11202 4.98358 3.19622 5.19549 3.19658H6.79379C7.0057 3.19622 7.2087 3.11202 7.35853 2.96219C7.50837 2.81235 7.59257 2.60935 7.59293 2.39744V1.99786H13.5865V2.39744C13.5869 2.60935 13.6711 2.81235 13.8209 2.96219C13.9708 3.11202 14.1738 3.19622 14.3857 3.19658H15.984C16.1959 3.19622 16.3989 3.11202 16.5487 2.96219C16.6986 2.81235 16.7828 2.60935 16.7831 2.39744V1.99786H19.3804L19.3804 18.78Z" fill="#707F95"/>
<path d="M6.4282 13.1862C6.74608 13.1858 7.05076 13.0593 7.27553 12.8347C7.50029 12.61 7.62658 12.3053 7.62694 11.9874V11.9473C7.62694 11.8411 7.66904 11.7396 7.74396 11.6645C7.81888 11.5896 7.92056 11.5475 8.02651 11.5477H8.78571L8.70882 11.4708C8.6339 11.3959 8.59181 11.2942 8.59181 11.1883C8.59181 11.0823 8.6339 10.9806 8.70882 10.9057L9.22558 10.3891L8.70901 9.87257C8.63409 9.79765 8.59199 9.69597 8.59199 9.59001C8.59199 9.48405 8.63409 9.38238 8.70901 9.30746L8.82602 9.19044H8.02651C7.92055 9.19044 7.81887 9.14834 7.74395 9.07342C7.66903 8.9985 7.62694 8.89682 7.62694 8.79086C7.62694 8.47299 7.50064 8.16794 7.27588 7.94322C7.05112 7.71846 6.74625 7.59216 6.42823 7.59216C6.11036 7.59216 5.80549 7.71846 5.58073 7.94322C5.35579 8.16798 5.22949 8.47303 5.22949 8.79086C5.22949 9.1087 5.35579 9.41379 5.58073 9.63851C5.80549 9.86327 6.11036 9.98956 6.42823 9.98956C6.64907 9.98956 6.82781 10.1685 6.82781 10.3891C6.82781 10.6098 6.64907 10.7887 6.42823 10.7887C6.00012 10.7887 5.60429 11.0172 5.39025 11.3881C5.17602 11.7589 5.17602 12.2159 5.39025 12.5868C5.60431 12.9577 6.00009 13.1862 6.4282 13.1862Z" fill="#EAEAEA"/>
<path d="M11.9521 11.188L12.3517 11.5876H13.1851C13.2911 11.5876 13.3928 11.6297 13.4677 11.7046C13.5426 11.7795 13.5847 11.8812 13.5847 11.9872C13.5847 12.305 13.711 12.6101 13.9358 12.8348C14.1605 13.0595 14.4656 13.1859 14.7834 13.1859C15.1012 13.1859 15.4063 13.0596 15.631 12.8348C15.8558 12.6101 15.9821 12.305 15.9821 11.9872C15.9821 11.6693 15.8558 11.3642 15.631 11.1395C15.4063 10.9148 15.1012 10.7885 14.7834 10.7885C14.5627 10.7885 14.3838 10.6096 14.3838 10.3889C14.3838 10.1682 14.5627 9.98932 14.7834 9.98932C15.1013 9.98932 15.4063 9.86303 15.631 9.63827C15.8558 9.4135 15.9821 9.10845 15.9821 8.79062C15.9821 8.47279 15.8558 8.16769 15.631 7.94297C15.4063 7.71825 15.1012 7.59192 14.7834 7.59192C14.4656 7.59192 14.1605 7.71821 13.9358 7.94297C13.711 8.16774 13.5847 8.47279 13.5847 8.79062C13.5847 8.89658 13.5426 8.99826 13.4677 9.07318C13.3928 9.1481 13.2911 9.19019 13.1851 9.19019H12.3517L11.9521 9.58977L12.4687 10.1063C12.5436 10.1813 12.5857 10.2829 12.5857 10.3889C12.5857 10.4949 12.5436 10.5965 12.4687 10.6715L11.9521 11.188Z" fill="#EAEAEA"/>
<path d="M2.99512 16.3827H18.179V4.39551H2.99512V16.3827ZM11.1035 9.87265C11.0286 9.79773 10.9865 9.69605 10.9865 9.59009C10.9865 9.48413 11.0286 9.38245 11.1035 9.30754L11.9027 8.50839C11.9776 8.43347 12.0793 8.39137 12.1852 8.39137H12.8247C12.9558 7.74757 13.395 7.2094 13.9996 6.95199C14.6039 6.69458 15.2962 6.75059 15.8513 7.10218C16.4063 7.4536 16.7531 8.05546 16.7788 8.7119C16.8046 9.36834 16.5058 9.99533 15.9802 10.3892C16.5057 10.7831 16.8041 11.4101 16.7783 12.0664C16.7524 12.7226 16.4058 13.3243 15.8508 13.6755C15.2959 14.0269 14.6038 14.0831 13.9996 13.8257C13.3953 13.5685 12.9561 13.0305 12.8248 12.3871H12.1853C12.0793 12.3871 11.9776 12.345 11.9027 12.2701L11.1036 11.4709C11.0286 11.396 10.9865 11.2943 10.9865 11.1884C10.9865 11.0824 11.0286 10.9807 11.1036 10.9058L11.6201 10.3892L11.1035 9.87265ZM4.42719 8.79092C4.42701 8.12466 4.7588 7.5021 5.31215 7.13088C5.86548 6.75967 6.5674 6.68885 7.18371 6.9418C7.80019 7.19492 8.24991 7.73844 8.3828 8.39132H9.78757C9.94918 8.39132 10.0947 8.48871 10.1566 8.63802C10.2185 8.78732 10.1843 8.9591 10.0701 9.07345L9.55355 9.59002L10.0701 10.1066C10.145 10.1815 10.1871 10.2832 10.1871 10.3891C10.1871 10.4951 10.145 10.5968 10.0701 10.6717L9.55355 11.1883L10.03 11.6647H10.0298C10.1442 11.7791 10.1783 11.9509 10.1165 12.1002C10.0546 12.2495 9.90908 12.3467 9.74747 12.3469H8.3907C8.27207 12.9967 7.84001 13.546 7.23641 13.8141C6.63275 14.0824 5.93548 14.0347 5.37375 13.6871C4.81202 13.3394 4.45847 12.7367 4.42938 12.0768C4.40013 11.4168 4.69892 10.7851 5.22762 10.3891C4.72388 10.0122 4.42742 9.41997 4.42724 8.79084L4.42719 8.79092Z" fill="#707F95"/>
</g>
<defs>
<clipPath id="clip0_224_1514">
<rect width="20" height="20" fill="white" transform="translate(0.5)"/>
</clipPath>
</defs>
</svg>
