<svg width="20" height="20" viewBox="0 0 20 20" fill="none" xmlns="http://www.w3.org/2000/svg">
<path d="M13.7508 15.7071L12.651 15.7071V15.6786C12.6513 15.4656 12.8238 15.293 13.0369 15.2928L14.1367 15.2928V15.3212C14.1365 15.5342 13.9639 15.7068 13.7508 15.7071Z" stroke="#14467B" stroke-width="0.3"/>
<path d="M5.86387 15.3214L5.86387 15.2929H6.96379C7.17681 15.2932 7.34937 15.4658 7.3496 15.6788V15.7072L6.24975 15.7072C6.24974 15.7072 6.24972 15.7072 6.2497 15.7072C6.03667 15.707 5.8641 15.5344 5.86387 15.3214Z" stroke="#14467B" stroke-width="0.3"/>
<path d="M18.4221 7.64288C18.4221 7.9545 18.1695 8.20718 17.8578 8.20718C17.5462 8.20718 17.2936 7.9545 17.2936 7.64288C17.2936 7.33127 17.5462 7.07859 17.8578 7.07859C18.1695 7.07859 18.4221 7.33127 18.4221 7.64288Z" stroke="#14467B" stroke-width="0.3"/>
<mask id="path-4-inside-1_224_1331" fill="white">
<path d="M19.5536 3H0.446454C0.199957 3 0 3.19994 0 3.44645V16.8392C0 16.9577 0.0470332 17.0712 0.13074 17.1549C0.214447 17.2386 0.327967 17.2857 0.446433 17.2857H19.5536C19.672 17.2857 19.7856 17.2386 19.8693 17.1549C19.953 17.0712 20 16.9577 20 16.8392V3.44645C20 3.32799 19.953 3.21447 19.8693 3.13076C19.7856 3.04705 19.6721 3 19.5536 3ZM0.714211 11.5715H3.21424V12.2858H0.714211V11.5715ZM2.49994 16.5716H1.07136C0.874131 16.5716 0.714211 16.4116 0.714211 16.2144V14.7858H1.4285V15.8573H2.49994V16.5716ZM3.92853 13.7144H0.714211V13.0001H3.92853V13.7144ZM10.3572 16.5716H9.64287V14.7858H10.3572V16.5716ZM15.0001 15.3216C14.9998 15.653 14.8679 15.9706 14.6335 16.205C14.3991 16.4394 14.0816 16.5713 13.75 16.5716H12.1429C11.9457 16.5716 11.7857 16.4117 11.7857 16.2144V15.6787C11.7859 15.4428 11.8529 15.2117 11.9787 15.0121C12.1045 14.8126 12.2841 14.6527 12.497 14.5508C12.4678 14.2785 12.2382 14.0719 11.9643 14.0716H8.03568C7.76176 14.0719 7.53216 14.2785 7.50298 14.5508C7.71583 14.6527 7.89552 14.8126 8.02131 15.0121C8.14711 15.2117 8.21408 15.4428 8.21423 15.6787V16.2144C8.21423 16.3091 8.17661 16.4 8.10964 16.467C8.04268 16.534 7.95179 16.5716 7.85709 16.5716H6.24993C5.91845 16.5713 5.60086 16.4394 5.36645 16.205C5.13207 15.9707 5.00021 15.6531 4.9999 15.3216V14.7858C4.9999 14.5886 5.15982 14.4287 5.35704 14.4287H6.79836C6.84173 14.1313 6.99049 13.8595 7.21767 13.6627C7.44472 13.4661 7.73507 13.3576 8.0356 13.3572H11.9642C12.2648 13.3576 12.5551 13.4661 12.7821 13.6627C13.0093 13.8595 13.1581 14.1313 13.2014 14.4287H14.6428C14.7375 14.4287 14.8284 14.4663 14.8953 14.5333C14.9623 14.6002 14.9999 14.6911 14.9999 14.7858L15.0001 15.3216ZM15.0001 13.0001H14.2858V12.9108C14.2855 12.6504 14.182 12.4008 13.9978 12.2166C13.8137 12.0325 13.564 11.929 13.3036 11.9287H10.3571V12.6429H9.64285V11.9287H6.69637C6.436 11.929 6.18632 12.0325 6.00216 12.2166C5.818 12.4008 5.71452 12.6504 5.71421 12.9108V13.0001H4.99991V12.9108C5.00039 12.461 5.17928 12.0299 5.49739 11.7118C5.81549 11.3937 6.24658 11.2148 6.69638 11.2143H9.64286V9.78576H7.41067C7.15031 9.78608 6.90063 9.88956 6.71646 10.0737C6.53231 10.2579 6.42883 10.5076 6.42851 10.7679V10.8572H5.71422V10.7679C5.7139 10.4495 5.80366 10.1375 5.97315 9.86787L4.3124 8.45986C3.54802 8.8355 2.64528 8.79723 1.91523 8.35861C1.18531 7.91983 0.727873 7.14048 0.70077 6.28925C0.673825 5.43801 1.08072 4.63123 1.78131 4.14702C2.48189 3.66281 3.38051 3.56746 4.16717 3.89367C4.95383 4.21989 5.52115 4.92319 5.67356 5.7612C5.82582 6.59904 5.5425 7.45701 4.92085 8.03926L6.47238 9.35495H6.47254C6.75029 9.16968 7.07683 9.07099 7.41067 9.07147H9.64286V7.64288H8.12497C7.8646 7.6432 7.61492 7.74668 7.43075 7.93083C7.2466 8.11498 7.14312 8.36467 7.1428 8.62504V8.71433H6.42851V8.62504C6.42899 8.17524 6.60788 7.74413 6.92599 7.42605C7.24409 7.10796 7.67518 6.92906 8.12498 6.92857H9.64287V5.49999H8.48212C8.22176 5.50031 7.97208 5.60379 7.78791 5.78794C7.60376 5.97209 7.50028 6.22178 7.49996 6.48215V6.57144H6.78567V6.48215C6.78615 6.03235 6.96504 5.60124 7.28314 5.28316C7.60125 4.96507 8.03233 4.78617 8.48214 4.78568H9.64288V3.71424H10.3572V4.78568H11.5179C11.9677 4.78616 12.3988 4.96505 12.7169 5.28316C13.035 5.60126 13.2139 6.03235 13.2144 6.48215V6.57144H12.5001V6.48215C12.4998 6.22178 12.3963 5.9721 12.2121 5.78794C12.028 5.60379 11.7783 5.50031 11.5179 5.49999H10.3572V6.92857H11.8751C12.3249 6.92905 12.756 7.10794 13.0741 7.42605C13.3922 7.74415 13.5711 8.17524 13.5715 8.62504V8.71433H12.8573V8.62504C12.8569 8.36468 12.7535 8.11499 12.5693 7.93083C12.3852 7.74668 12.1355 7.6432 11.8751 7.64288H10.3572V9.07147H12.5894C13.0392 9.07194 13.4703 9.25084 13.7884 9.56894C14.1065 9.88705 14.2854 10.3181 14.2859 10.7679V10.8572H13.5716V10.7679C13.5712 10.5076 13.4678 10.2579 13.2836 10.0737C13.0995 9.88957 12.8498 9.78609 12.5894 9.78577H10.3572V11.2144H13.3037C13.7535 11.2148 14.1846 11.3937 14.5027 11.7118C14.8208 12.0299 14.9997 12.461 15.0002 12.9108L15.0001 13.0001ZM19.2858 16.2144C19.2858 16.3091 19.2482 16.4 19.1812 16.467C19.1143 16.5339 19.0234 16.5716 18.9287 16.5716H17.5001V15.8573H18.5715V14.7858H19.2858V16.2144ZM17.8572 9.07149C17.5406 9.07101 17.233 8.96562 16.9827 8.77174C16.7324 8.57786 16.5535 8.30651 16.4738 8.00006H15.505L14.5381 8.96693L14.033 8.46182L15.1045 7.39038C15.1716 7.32342 15.2625 7.28579 15.3572 7.28579H16.4737C16.5633 6.93916 16.7797 6.63864 17.0802 6.44394C17.3808 6.24927 17.7435 6.17449 18.0965 6.2346C18.4495 6.29455 18.7671 6.48492 18.9863 6.76807C19.2056 7.05108 19.3106 7.40616 19.2805 7.76298C19.2504 8.11981 19.0874 8.45225 18.8238 8.69458C18.5603 8.93693 18.2153 9.0715 17.8571 9.0715L17.8572 9.07149ZM19.2858 5.50003H18.5715V4.42859H17.5001V3.71429H18.9287C19.0234 3.71429 19.1143 3.75192 19.1812 3.81889C19.2482 3.88585 19.2858 3.97673 19.2858 4.07144V5.50003Z"/>
</mask>
<path d="M19.5536 3H0.446454C0.199957 3 0 3.19994 0 3.44645V16.8392C0 16.9577 0.0470332 17.0712 0.13074 17.1549C0.214447 17.2386 0.327967 17.2857 0.446433 17.2857H19.5536C19.672 17.2857 19.7856 17.2386 19.8693 17.1549C19.953 17.0712 20 16.9577 20 16.8392V3.44645C20 3.32799 19.953 3.21447 19.8693 3.13076C19.7856 3.04705 19.6721 3 19.5536 3ZM0.714211 11.5715H3.21424V12.2858H0.714211V11.5715ZM2.49994 16.5716H1.07136C0.874131 16.5716 0.714211 16.4116 0.714211 16.2144V14.7858H1.4285V15.8573H2.49994V16.5716ZM3.92853 13.7144H0.714211V13.0001H3.92853V13.7144ZM10.3572 16.5716H9.64287V14.7858H10.3572V16.5716ZM15.0001 15.3216C14.9998 15.653 14.8679 15.9706 14.6335 16.205C14.3991 16.4394 14.0816 16.5713 13.75 16.5716H12.1429C11.9457 16.5716 11.7857 16.4117 11.7857 16.2144V15.6787C11.7859 15.4428 11.8529 15.2117 11.9787 15.0121C12.1045 14.8126 12.2841 14.6527 12.497 14.5508C12.4678 14.2785 12.2382 14.0719 11.9643 14.0716H8.03568C7.76176 14.0719 7.53216 14.2785 7.50298 14.5508C7.71583 14.6527 7.89552 14.8126 8.02131 15.0121C8.14711 15.2117 8.21408 15.4428 8.21423 15.6787V16.2144C8.21423 16.3091 8.17661 16.4 8.10964 16.467C8.04268 16.534 7.95179 16.5716 7.85709 16.5716H6.24993C5.91845 16.5713 5.60086 16.4394 5.36645 16.205C5.13207 15.9707 5.00021 15.6531 4.9999 15.3216V14.7858C4.9999 14.5886 5.15982 14.4287 5.35704 14.4287H6.79836C6.84173 14.1313 6.99049 13.8595 7.21767 13.6627C7.44472 13.4661 7.73507 13.3576 8.0356 13.3572H11.9642C12.2648 13.3576 12.5551 13.4661 12.7821 13.6627C13.0093 13.8595 13.1581 14.1313 13.2014 14.4287H14.6428C14.7375 14.4287 14.8284 14.4663 14.8953 14.5333C14.9623 14.6002 14.9999 14.6911 14.9999 14.7858L15.0001 15.3216ZM15.0001 13.0001H14.2858V12.9108C14.2855 12.6504 14.182 12.4008 13.9978 12.2166C13.8137 12.0325 13.564 11.929 13.3036 11.9287H10.3571V12.6429H9.64285V11.9287H6.69637C6.436 11.929 6.18632 12.0325 6.00216 12.2166C5.818 12.4008 5.71452 12.6504 5.71421 12.9108V13.0001H4.99991V12.9108C5.00039 12.461 5.17928 12.0299 5.49739 11.7118C5.81549 11.3937 6.24658 11.2148 6.69638 11.2143H9.64286V9.78576H7.41067C7.15031 9.78608 6.90063 9.88956 6.71646 10.0737C6.53231 10.2579 6.42883 10.5076 6.42851 10.7679V10.8572H5.71422V10.7679C5.7139 10.4495 5.80366 10.1375 5.97315 9.86787L4.3124 8.45986C3.54802 8.8355 2.64528 8.79723 1.91523 8.35861C1.18531 7.91983 0.727873 7.14048 0.70077 6.28925C0.673825 5.43801 1.08072 4.63123 1.78131 4.14702C2.48189 3.66281 3.38051 3.56746 4.16717 3.89367C4.95383 4.21989 5.52115 4.92319 5.67356 5.7612C5.82582 6.59904 5.5425 7.45701 4.92085 8.03926L6.47238 9.35495H6.47254C6.75029 9.16968 7.07683 9.07099 7.41067 9.07147H9.64286V7.64288H8.12497C7.8646 7.6432 7.61492 7.74668 7.43075 7.93083C7.2466 8.11498 7.14312 8.36467 7.1428 8.62504V8.71433H6.42851V8.62504C6.42899 8.17524 6.60788 7.74413 6.92599 7.42605C7.24409 7.10796 7.67518 6.92906 8.12498 6.92857H9.64287V5.49999H8.48212C8.22176 5.50031 7.97208 5.60379 7.78791 5.78794C7.60376 5.97209 7.50028 6.22178 7.49996 6.48215V6.57144H6.78567V6.48215C6.78615 6.03235 6.96504 5.60124 7.28314 5.28316C7.60125 4.96507 8.03233 4.78617 8.48214 4.78568H9.64288V3.71424H10.3572V4.78568H11.5179C11.9677 4.78616 12.3988 4.96505 12.7169 5.28316C13.035 5.60126 13.2139 6.03235 13.2144 6.48215V6.57144H12.5001V6.48215C12.4998 6.22178 12.3963 5.9721 12.2121 5.78794C12.028 5.60379 11.7783 5.50031 11.5179 5.49999H10.3572V6.92857H11.8751C12.3249 6.92905 12.756 7.10794 13.0741 7.42605C13.3922 7.74415 13.5711 8.17524 13.5715 8.62504V8.71433H12.8573V8.62504C12.8569 8.36468 12.7535 8.11499 12.5693 7.93083C12.3852 7.74668 12.1355 7.6432 11.8751 7.64288H10.3572V9.07147H12.5894C13.0392 9.07194 13.4703 9.25084 13.7884 9.56894C14.1065 9.88705 14.2854 10.3181 14.2859 10.7679V10.8572H13.5716V10.7679C13.5712 10.5076 13.4678 10.2579 13.2836 10.0737C13.0995 9.88957 12.8498 9.78609 12.5894 9.78577H10.3572V11.2144H13.3037C13.7535 11.2148 14.1846 11.3937 14.5027 11.7118C14.8208 12.0299 14.9997 12.461 15.0002 12.9108L15.0001 13.0001ZM19.2858 16.2144C19.2858 16.3091 19.2482 16.4 19.1812 16.467C19.1143 16.5339 19.0234 16.5716 18.9287 16.5716H17.5001V15.8573H18.5715V14.7858H19.2858V16.2144ZM17.8572 9.07149C17.5406 9.07101 17.233 8.96562 16.9827 8.77174C16.7324 8.57786 16.5535 8.30651 16.4738 8.00006H15.505L14.5381 8.96693L14.033 8.46182L15.1045 7.39038C15.1716 7.32342 15.2625 7.28579 15.3572 7.28579H16.4737C16.5633 6.93916 16.7797 6.63864 17.0802 6.44394C17.3808 6.24927 17.7435 6.17449 18.0965 6.2346C18.4495 6.29455 18.7671 6.48492 18.9863 6.76807C19.2056 7.05108 19.3106 7.40616 19.2805 7.76298C19.2504 8.11981 19.0874 8.45225 18.8238 8.69458C18.5603 8.93693 18.2153 9.0715 17.8571 9.0715L17.8572 9.07149ZM19.2858 5.50003H18.5715V4.42859H17.5001V3.71429H18.9287C19.0234 3.71429 19.1143 3.75192 19.1812 3.81889C19.2482 3.88585 19.2858 3.97673 19.2858 4.07144V5.50003Z" stroke="#14467B" stroke-width="0.6" mask="url(#path-4-inside-1_224_1331)"/>
<path d="M2.05769 5.05769C2.05771 5.05767 2.05773 5.05765 2.05775 5.05763C2.36465 4.75096 2.7807 4.57865 3.21444 4.57865V4.42865M2.05769 5.05769L5.00018 6.21438C4.9997 5.74099 4.8114 5.28707 4.47658 4.95225C4.14176 4.61743 3.68784 4.42914 3.21444 4.42865M2.05769 5.05769C1.75101 5.36455 1.57871 5.78063 1.57871 6.21438C1.57871 6.64812 1.75102 7.06417 2.0577 7.37108C2.05772 7.3711 2.05774 7.37112 2.05776 7.37114M2.05769 5.05769L2.05776 7.37114M3.21444 4.42865L3.21429 4.57865C3.64795 4.5791 4.06378 4.75158 4.37051 5.05831C4.67721 5.36501 4.8497 5.78078 4.85018 6.21438M3.21444 4.42865C2.74089 4.42865 2.28668 4.61679 1.95165 4.95159C1.61683 5.28658 1.42871 5.74083 1.42871 6.21438C1.42871 6.68794 1.61685 7.14215 1.95165 7.47717L4.85018 6.21438M4.85018 6.21438C4.85018 6.64813 4.67788 7.06421 4.3712 7.37107C4.06429 7.67778 3.64821 7.85011 3.21444 7.85011C2.78069 7.85011 2.36461 7.67782 2.05776 7.37114M4.85018 6.21438L2.05776 7.37114M4.28588 6.72153H4.43588V6.57153V5.85724V5.70724H4.28588H3.72159V5.14294V4.99294H3.57159H2.8573H2.7073V5.14294V5.70724H2.143H1.993V5.85724V6.57153V6.72153H2.143H2.7073V7.28582V7.43582H2.8573H3.57159H3.72159V7.28582V6.72153H4.28588Z" stroke="#14467B" stroke-width="0.3"/>
</svg>
