<svg width="20" height="20" viewBox="0 0 20 20" fill="none" xmlns="http://www.w3.org/2000/svg">
<path d="M13.276 10.9793C12.7506 10.9793 12.3203 11.4074 12.3203 11.9328C12.3203 12.4605 12.7506 12.8885 13.276 12.8885C13.8037 12.8885 14.2317 12.4605 14.2317 11.9328C14.2317 11.4074 13.8037 10.9793 13.276 10.9793ZM13.276 12.348C13.0468 12.348 12.8609 12.1621 12.8609 11.9328C12.8609 11.7058 13.0468 11.5199 13.276 11.5199C13.5053 11.5199 13.6912 11.7058 13.6912 11.9328C13.6912 12.1619 13.5053 12.348 13.276 12.348Z" fill="#EAEAEA"/>
<path d="M18.4552 9.58272H18.2044V6.75246C18.2044 6.60326 18.0854 6.48225 17.9342 6.48225H16.1548L16.1201 6.44554V4.43911C16.1201 4.28991 15.999 4.16891 15.8499 4.16891H13.8435L10.7407 1.06609C10.6348 0.960208 10.4639 0.960208 10.358 1.06609L9.6033 1.82282L8.84658 1.06609C8.79679 1.01631 8.72762 0.986053 8.65626 0.986053C8.58489 0.986053 8.51572 1.01631 8.46594 1.06609L5.3612 4.17097H2.4271C2.04015 4.17097 1.68109 4.32018 1.41737 4.58612C1.15142 4.84766 1 5.21522 1 5.59368V5.59794V15.9611C1 16.3416 1.147 16.7005 1.4194 16.9708C1.68535 17.2368 2.05293 17.3882 2.42474 17.3882H2.92639C3.29616 18.2681 3.95553 18.9968 4.78158 19.4596H3.0518C2.9026 19.4596 2.7816 19.5807 2.7816 19.7298C2.78174 19.8788 2.90275 20 3.05195 20H11.6294C11.7786 20 11.8996 19.8788 11.8996 19.7298C11.8996 19.5806 11.7784 19.4596 11.6294 19.4596H8.92014C9.74605 18.9968 10.4033 18.2682 10.7731 17.3882H17.934C18.0854 17.3882 18.2042 17.267 18.2042 17.118L18.2044 14.2854H18.4552C18.9633 14.2854 19.374 13.8724 19.374 13.3665V10.5016C19.374 9.9957 18.9633 9.58272 18.4552 9.58272ZM15.5796 4.70942V5.90509L14.3839 4.70942H15.5796ZM10.548 1.63904L15.3912 6.48227H13.7004L11.6181 4.39802C11.5684 4.34824 11.4992 4.31799 11.4278 4.31799C11.3565 4.31799 11.2873 4.34824 11.2375 4.39802C11.0516 4.58174 10.8094 4.68336 10.55 4.68336H10.5477C10.2905 4.68336 10.0461 4.58174 9.86444 4.39802C9.81466 4.34824 9.74549 4.31799 9.67412 4.31799H9.67192C9.60055 4.31799 9.53138 4.34824 9.4816 4.39802L7.39735 6.48227H5.70649L10.548 1.63904ZM8.65612 1.63904L9.22048 2.2034L4.94153 6.48235H3.81285L8.65612 1.63904ZM1.54033 5.59581C1.54033 5.36011 1.63329 5.13306 1.79981 4.96874C1.96414 4.80221 2.18677 4.71145 2.42688 4.71145H4.82041L3.04955 6.48232H2.4247C1.93598 6.48232 1.54038 6.0845 1.54038 5.59799L1.54033 5.59581ZM8.29935 16.8131C8.25618 17.1071 8.10257 17.3666 7.8648 17.544C7.67022 17.6888 7.43894 17.7666 7.20104 17.7666C7.17505 17.7666 7.147 17.7623 7.12101 17.7601V18.2856C7.12101 18.4348 6.99985 18.5558 6.8508 18.5558C6.7016 18.5558 6.58059 18.4346 6.58059 18.2856L6.58045 17.6888L5.79346 17.5742C5.64646 17.5526 5.54484 17.4164 5.56422 17.2672C5.58581 17.1202 5.72429 17.0185 5.87129 17.0401L7.11674 17.2196C7.26814 17.2412 7.41734 17.2022 7.54053 17.1115C7.66374 17.0207 7.74157 16.8867 7.76536 16.7353C7.78695 16.5839 7.74804 16.4346 7.65728 16.3115C7.56432 16.1883 7.43245 16.1104 7.28104 16.0866L6.34044 15.9396C5.73499 15.8531 5.31337 15.2867 5.40206 14.6812C5.44318 14.3872 5.59884 14.1256 5.83661 13.9483C6.05277 13.7882 6.31446 13.717 6.5804 13.7342V13.2088C6.5804 13.0595 6.70156 12.9385 6.85061 12.9385C6.99981 12.9385 7.12082 13.0597 7.12082 13.2088V13.8056L7.90574 13.9201C8.05494 13.9417 8.15656 14.078 8.13498 14.225C8.11339 14.3742 7.97711 14.4758 7.82791 14.4542L6.58468 14.2748C6.43327 14.251 6.28202 14.2899 6.16088 14.3828C6.03767 14.4736 5.95764 14.6077 5.93605 14.7591C5.91446 14.9083 5.95338 15.0597 6.04413 15.1829C6.13489 15.304 6.26896 15.3839 6.42037 15.4056L7.36097 15.5526C7.65291 15.5958 7.9124 15.7494 8.08966 15.9872C8.26691 16.2249 8.34253 16.519 8.29935 16.8131ZM17.6636 16.8476H10.9546C11.0476 16.4952 11.1038 16.1276 11.1038 15.7471C11.1038 13.4012 9.19679 11.4941 6.85081 11.4941C4.50483 11.4941 2.5978 13.4011 2.5978 15.7471C2.5978 16.1276 2.65184 16.4952 2.74701 16.8476H2.42481C2.19352 16.8476 1.96651 16.7524 1.79996 16.5881C1.63138 16.4195 1.54048 16.1968 1.54048 15.9611V6.71369C1.78264 6.90606 2.09176 7.02281 2.4248 7.02281H17.6639V9.58289H13.2767C12.6302 9.58289 12.0054 9.8553 11.5621 10.3267C11.1124 10.8068 10.8896 11.4316 10.9307 12.091C11.0108 13.3213 12.0724 14.2855 13.3481 14.2855H17.6639L17.6636 16.8476ZM18.8333 13.3665C18.8333 13.574 18.6647 13.7449 18.4549 13.7449H13.3481C12.3579 13.7449 11.5319 13.0011 11.4713 12.054C11.4389 11.5481 11.6097 11.0659 11.9557 10.6963C12.3016 10.3265 12.7709 10.1232 13.2768 10.1232H18.4553C18.665 10.1232 18.8337 10.294 18.8337 10.5017L18.8333 13.3665Z" fill="#707F95"/>
<path d="M16.8093 2.83467C16.8785 2.83467 16.9476 2.80824 17.0004 2.75552L17.876 1.87984C17.9816 1.77426 17.9816 1.60317 17.876 1.49774C17.7704 1.39215 17.5994 1.39215 17.4939 1.49774L16.6183 2.37341C16.5127 2.479 16.5127 2.65008 16.6183 2.75552C16.671 2.80824 16.7401 2.83467 16.8093 2.83467Z" fill="#EAEAEA"/>
<path d="M14.2604 1.7791C14.4098 1.7791 14.5306 1.65809 14.5306 1.50889V0.270207C14.5306 0.120857 14.4096 0 14.2604 0C14.1111 0 13.9902 0.121007 13.9902 0.270207V1.50874C13.9902 1.65809 14.1112 1.7791 14.2604 1.7791Z" fill="#EAEAEA"/>
<path d="M19.1035 4.84247H17.8649C17.7156 4.84247 17.5947 4.96348 17.5947 5.11267C17.5947 5.26202 17.7157 5.38288 17.8649 5.38288H19.1035C19.2528 5.38288 19.3737 5.26187 19.3737 5.11267C19.3738 4.96347 19.2528 4.84247 19.1035 4.84247Z" fill="#EAEAEA"/>
<path d="M15.1506 19.4594H13.1677C13.0183 19.4594 12.8975 19.5804 12.8975 19.7296C12.8973 19.8789 13.0183 19.9999 13.1677 19.9999H15.1506C15.2999 19.9999 15.4208 19.8789 15.4208 19.7297C15.4208 19.5804 15.2998 19.4594 15.1506 19.4594Z" fill="#EAEAEA"/>
<path d="M17.0872 20C17.2366 20 17.3574 19.879 17.3574 19.7298C17.3574 19.5805 17.2364 19.4596 17.0872 19.4596H16.7985C16.6492 19.4596 16.5283 19.5806 16.5283 19.7298C16.5283 19.879 16.6492 20 16.7985 20H17.0872Z" fill="#EAEAEA"/>
<path d="M8.5511 7.83798H3.82027C3.24727 7.83798 2.78027 8.30497 2.78027 8.87798C2.78027 9.45306 3.24727 9.91798 3.82027 9.91798H8.5511C9.12411 9.91798 9.5911 9.45306 9.5911 8.87798C9.59095 8.30497 9.12396 7.83798 8.55095 7.83798H8.5511ZM4.7823 9.37742H3.82012C3.54551 9.37742 3.32069 9.15479 3.32069 8.87798C3.32069 8.60337 3.54552 8.37855 3.82012 8.37855H4.7823V9.37742ZM8.5511 9.37742H5.32302V8.37855H8.5511C8.82571 8.37855 9.05054 8.60338 9.05054 8.87798C9.05068 9.15465 8.8257 9.37742 8.5511 9.37742Z" fill="#EAEAEA"/>
</svg>
