<svg width="20" height="20" viewBox="0 0 20 20" fill="none" xmlns="http://www.w3.org/2000/svg">
<g clip-path="url(#clip0_225_1598)">
<path d="M9.99897 1.52487C10.1709 1.52487 10.3114 1.38433 10.3114 1.21242V0.312451C10.3114 0.140545 10.1709 0 9.99897 0C9.82707 0 9.68652 0.140545 9.68652 0.312451V1.21242C9.68652 1.38734 9.82707 1.52487 9.99897 1.52487Z" fill="#707F95"/>
<path d="M9.99897 18.4732C9.82707 18.4732 9.68652 18.6138 9.68652 18.7857V19.6856C9.68652 19.8575 9.82707 19.9981 9.99897 19.9981C10.1709 19.9981 10.3114 19.8575 10.3114 19.6856V18.7857C10.3114 18.6107 10.1709 18.4732 9.99897 18.4732Z" fill="#707F95"/>
<path d="M3.56565 4.0088C3.62808 4.07123 3.70619 4.09943 3.78747 4.09943C3.86874 4.09943 3.94686 4.06821 4.00929 4.0088C4.13113 3.88695 4.13113 3.69002 4.00929 3.56817L3.37186 2.93074C3.25001 2.80889 3.05308 2.80889 2.93123 2.93074C2.80938 3.05258 2.80938 3.24952 2.93123 3.37137L3.56565 4.0088Z" fill="#707F95"/>
<path d="M16.4324 15.9892C16.3106 15.8674 16.1136 15.8674 15.9918 15.9892C15.8699 16.1111 15.8699 16.308 15.9918 16.4298L16.6292 17.0673C16.6916 17.1297 16.7697 17.1579 16.851 17.1579C16.9323 17.1579 17.0104 17.1267 17.0728 17.0673C17.1947 16.9454 17.1947 16.7485 17.0728 16.6266L16.4324 15.9892Z" fill="#707F95"/>
<path d="M1.21242 9.68665H0.312451C0.140545 9.68665 0 9.82719 0 9.9991C0 10.171 0.140545 10.3115 0.312451 10.3115H1.21242C1.38433 10.3115 1.52487 10.171 1.52487 9.9991C1.52487 9.82719 1.38734 9.68665 1.21242 9.68665Z" fill="#707F95"/>
<path d="M19.6861 9.68665H18.7861C18.6142 9.68665 18.4736 9.82719 18.4736 9.9991C18.4736 10.171 18.6142 10.3115 18.7861 10.3115H19.6861C19.858 10.3115 19.9985 10.171 19.9985 9.9991C19.9985 9.82719 19.8578 9.68665 19.6861 9.68665Z" fill="#707F95"/>
<path d="M3.56573 15.9892L2.9283 16.6266C2.80645 16.7485 2.80645 16.9454 2.9283 17.0673C2.99073 17.1297 3.06884 17.1579 3.15012 17.1579C3.23139 17.1579 3.30951 17.1267 3.37194 17.0673L4.00937 16.4298C4.13121 16.308 4.13121 16.111 4.00937 15.9892C3.88753 15.8672 3.68758 15.8672 3.56573 15.9892Z" fill="#707F95"/>
<path d="M16.2116 4.09936C16.2928 4.09936 16.3709 4.06815 16.4334 4.00874L17.0708 3.37131C17.1927 3.24946 17.1927 3.05253 17.0708 2.93068C16.949 2.80883 16.752 2.80883 16.6302 2.93068L15.9928 3.56811C15.8709 3.68995 15.8709 3.88689 15.9928 4.00874C16.0522 4.06815 16.1334 4.09936 16.2116 4.09936Z" fill="#707F95"/>
<path d="M9.99872 5.40564C7.50832 5.40564 5.48047 7.43353 5.48047 9.92389C5.48047 12.4141 7.50836 14.4421 9.99872 14.4421C12.4891 14.4421 14.517 12.4142 14.517 9.92389C14.517 7.43353 12.4891 5.40564 9.99872 5.40564ZM9.99872 13.8172C7.85214 13.8172 6.10542 12.0705 6.10542 9.92389C6.10542 7.77731 7.8521 6.03059 9.99872 6.03059C12.1453 6.03059 13.892 7.77727 13.892 9.92389C13.892 12.0706 12.1452 13.8172 9.99872 13.8172Z" fill="#EAEAEA"/>
<path d="M16.2179 8.50535L16.7897 6.90241C16.8178 6.82429 16.8116 6.73683 16.7772 6.66174C16.7397 6.58679 16.6772 6.52738 16.596 6.50235L14.9868 5.94921L14.8056 4.25563C14.7962 4.17133 14.7555 4.09624 14.6899 4.04316C14.6243 3.99008 14.5399 3.96821 14.4587 3.97757L12.7683 4.17752L11.8715 2.73079C11.8278 2.65887 11.7559 2.60895 11.6747 2.59025C11.5935 2.57155 11.5092 2.58708 11.4372 2.63082L9.99986 3.54658L8.56248 2.63111C8.49372 2.58738 8.40625 2.5717 8.32498 2.59054C8.2437 2.60924 8.17192 2.6593 8.12818 2.73109L7.23138 4.17782L5.54097 3.97786C5.45969 3.96851 5.3754 3.99038 5.3098 4.04346C5.2442 4.09654 5.20349 4.17163 5.19414 4.25593L5.01289 5.94951L3.40058 6.50264C3.32247 6.53069 3.25687 6.58694 3.21933 6.66203C3.18178 6.73698 3.17876 6.82459 3.20681 6.9027L3.77862 8.50565L2.56938 9.70237C2.50997 9.76178 2.47559 9.83989 2.47559 9.92419C2.47559 10.0085 2.50997 10.0867 2.56938 10.146L3.77862 11.3427L3.20681 12.9457C3.17876 13.0238 3.18494 13.1112 3.21933 13.1863C3.25687 13.2613 3.3193 13.3207 3.40058 13.3457L5.00972 13.8989L5.19098 15.5924C5.20033 15.6767 5.24104 15.7518 5.30663 15.8049C5.37223 15.858 5.45667 15.8799 5.5378 15.8705L7.22822 15.6706L8.12502 17.1173C8.16875 17.1892 8.24067 17.2391 8.32181 17.2578C8.40309 17.2765 8.48739 17.261 8.55931 17.2173L9.99669 16.3018L11.4341 17.2173C11.4841 17.2485 11.5434 17.2673 11.6028 17.2673C11.6247 17.2673 11.6497 17.2642 11.6716 17.2611C11.7528 17.2424 11.8246 17.1924 11.8684 17.1206L12.7652 15.6739L14.4556 15.8738C14.5399 15.8832 14.6212 15.8613 14.6867 15.8082C14.7523 15.7551 14.7931 15.6801 14.8024 15.5958L14.9837 13.9022L16.5928 13.349C16.6709 13.321 16.7365 13.2647 16.7741 13.1897C16.8116 13.1147 16.8146 13.0271 16.7866 12.949L16.2179 11.3426L17.4272 10.1459C17.4866 10.0864 17.521 10.0083 17.521 9.92403C17.521 9.83973 17.4866 9.76148 17.4272 9.70221L16.2179 8.50535ZM15.6368 11.0395C15.5493 11.1238 15.5211 11.2519 15.5618 11.3676L16.0931 12.8612L14.5932 13.3768C14.4776 13.4174 14.3965 13.5174 14.3839 13.6393L14.2152 15.2173L12.6404 15.0329C12.5217 15.0172 12.4029 15.0766 12.3373 15.1797L11.5 16.5265L10.1626 15.6734C10.1125 15.6422 10.0532 15.6234 9.99383 15.6234C9.93441 15.6234 9.87817 15.6391 9.82509 15.6734L8.48769 16.5265L7.65033 15.1797C7.5879 15.0766 7.46907 15.0204 7.34723 15.0329L5.77245 15.2173L5.60371 13.6393C5.5912 13.5175 5.50992 13.4175 5.39441 13.3768L3.89457 12.8612L4.42583 11.3676C4.4664 11.2519 4.43835 11.1269 4.35088 11.0395L3.22292 9.92402L4.35088 8.80858C4.43834 8.72428 4.46654 8.59611 4.42583 8.48045L3.89457 6.9868L5.39441 6.47123C5.51006 6.43066 5.5912 6.33069 5.60371 6.2087L5.77245 4.63076L7.34723 4.81518C7.46591 4.82769 7.58473 4.77144 7.65033 4.6683L8.48769 3.32155L9.82509 4.1746C9.92823 4.2402 10.0594 4.2402 10.1594 4.1746L11.4968 3.32155L12.3342 4.6683C12.3966 4.77144 12.5122 4.82769 12.6373 4.81518L14.212 4.63076L14.3808 6.2087C14.3933 6.33054 14.4746 6.43052 14.5901 6.47123L16.0899 6.98364L15.5587 8.47729C15.5181 8.59294 15.5461 8.71795 15.6336 8.80542L16.7616 9.92086L15.6368 11.0395Z" fill="#707F95"/>
<path d="M11.5807 8.57714L9.39968 10.7581L8.71854 10.077C8.59669 9.95513 8.39976 9.95513 8.27791 10.077C8.15606 10.1988 8.15607 10.3958 8.27791 10.5176L9.17788 11.4176C9.23729 11.477 9.3154 11.5082 9.3997 11.5082C9.484 11.5082 9.56225 11.4738 9.62152 11.4176L12.0245 9.01464C12.1463 8.89279 12.1463 8.69586 12.0245 8.57401C11.9025 8.45216 11.7025 8.45529 11.5807 8.57714Z" fill="#EAEAEA"/>
</g>
<defs>
<clipPath id="clip0_225_1598">
<rect width="20" height="20" fill="white"/>
</clipPath>
</defs>
</svg>
