<svg width="20" height="20" viewBox="0 0 20 20" fill="none" xmlns="http://www.w3.org/2000/svg">
<path d="M12.9678 5.8125C12.9678 7.36579 11.7086 8.625 10.1553 8.625C8.60199 8.625 7.34277 7.36579 7.34277 5.8125C7.34277 4.25922 8.60199 3 10.1553 3C11.7086 3 12.9678 4.25922 12.9678 5.8125Z" fill="#EAEAEA"/>
<path d="M19.375 16.75H0.624992C0.401638 16.75 0.195313 16.6309 0.0837054 16.4375C-0.0279018 16.2441 -0.0279018 16.0059 0.0837054 15.8125C0.195313 15.6191 0.401645 15.5 0.624992 15.5H19.375C19.5984 15.5 19.8047 15.6191 19.9163 15.8125C20.0279 16.0059 20.0279 16.2441 19.9163 16.4375C19.8047 16.6309 19.5984 16.75 19.375 16.75Z" fill="#707F95"/>
<path d="M14.8438 13C14.8408 12.0063 14.4449 11.0541 13.7422 10.3516C13.0396 9.64886 12.0875 9.25293 11.0938 9.25H9.375C8.38129 9.25293 7.42914 9.64886 6.72657 10.3516C6.02386 11.0541 5.62793 12.0063 5.625 13V14.875H14.8436L14.8438 13Z" fill="#707F95"/>
<path d="M18.2892 6.76714C18.2892 8.15736 17.1622 9.28429 15.772 9.28429C14.3818 9.28429 13.2549 8.15732 13.2549 6.76714C13.2549 5.37697 14.3818 4.25 15.772 4.25C17.1622 4.25 18.2892 5.37697 18.2892 6.76714Z" fill="#EAEAEA"/>
<path d="M16.6126 9.84216H15.0689C14.9618 9.8444 14.8647 9.90522 14.816 10.0006C14.7673 10.0959 14.775 10.2105 14.8361 10.2984C15.2345 10.8936 15.6251 11.6078 15.6251 12.375V14.875H19.3423C19.508 14.875 19.6669 14.8091 19.7842 14.6919C19.9014 14.5747 19.9673 14.4157 19.9673 14.25V13.1968C19.9643 12.308 19.61 11.4565 18.9815 10.828C18.353 10.1995 17.5015 9.845 16.6125 9.84218L16.6126 9.84216Z" fill="#707F95"/>
<path d="M6.5714 6.76714C6.5714 8.15736 5.44443 9.28429 4.05425 9.28429C2.66407 9.28429 1.53711 8.15732 1.53711 6.76714C1.53711 5.37697 2.66407 4.25 4.05425 4.25C5.44443 4.25 6.5714 5.37697 6.5714 6.76714Z" fill="#EAEAEA"/>
<path d="M4.84379 12.375C4.84379 11.6328 5.21879 10.939 5.59379 10.3563C5.6528 10.2662 5.66131 10.1519 5.61625 10.0541C5.57105 9.95635 5.47883 9.88869 5.37197 9.87502C5.21363 9.852 5.05375 9.84056 4.89372 9.8407H3.35465C2.46554 9.84349 1.61372 10.1981 0.985215 10.8269C0.356715 11.4558 0.0025 12.3078 0 13.1968V14.25C0 14.4157 0.0658501 14.5748 0.183036 14.692C0.300222 14.8091 0.459265 14.875 0.625001 14.875H4.84358L4.84379 12.375Z" fill="#707F95"/>
</svg>
