<svg width="20" height="20" viewBox="0 0 20 20" fill="none" xmlns="http://www.w3.org/2000/svg">
<g clip-path="url(#clip0_225_1922)">
<path d="M3.76957 6.13035C3.6604 6.30571 3.55926 6.48508 3.4663 6.66848H2.33251V7.33481H3.17197C3.04406 7.66009 2.93965 7.99414 2.85963 8.33431H1.66617C1.57783 8.33431 1.49305 8.36941 1.43058 8.43188C1.36811 8.49435 1.33301 8.57913 1.33301 8.66747V11.3328C1.33301 11.4211 1.36811 11.5059 1.43058 11.5684C1.49305 11.6309 1.57783 11.666 1.66617 11.666H2.85963C3.03885 12.4459 3.34643 13.1906 3.76957 13.8699L2.9279 14.7117C2.86543 14.7742 2.83033 14.859 2.83033 14.9473C2.83033 15.0357 2.86543 15.1205 2.9279 15.1829L4.81236 17.0675C4.87483 17.13 4.95961 17.1651 5.04796 17.1651C5.13631 17.1651 5.22109 17.13 5.28355 17.0675L6.12553 16.2259C6.30089 16.335 6.48026 16.4362 6.66366 16.5291V17.6629H7.32999V16.8235C7.65527 16.9515 7.98931 17.0559 8.32949 17.1361V18.3293C8.32949 18.4176 8.36459 18.5024 8.42706 18.5649C8.48952 18.6273 8.5743 18.6624 8.66265 18.6624H11.328C11.4163 18.6624 11.5011 18.6273 11.5636 18.5649C11.626 18.5024 11.6611 18.4176 11.6611 18.3293V17.1363C12.4411 16.9566 13.1858 16.649 13.8651 16.2259L14.7071 17.0675C14.7695 17.13 14.8543 17.1651 14.9427 17.1651C15.031 17.1651 15.1158 17.13 15.1783 17.0675L17.0627 15.1829C17.1252 15.1205 17.1603 15.0357 17.1603 14.9473C17.1603 14.859 17.1252 14.7742 17.0627 14.7117L16.2211 13.8699C16.3302 13.6946 16.4314 13.5152 16.5243 13.3318H17.6581V12.6654H16.8187C16.9466 12.3402 17.051 12.0061 17.131 11.666H18.3245C18.4128 11.666 18.4976 11.6309 18.56 11.5684C18.6225 11.5059 18.6576 11.4211 18.6576 11.3328V8.66746C18.6576 8.57911 18.6225 8.49433 18.56 8.43187C18.4976 8.3694 18.4128 8.3343 18.3245 8.3343H17.131C16.9518 7.55435 16.6442 6.80962 16.2211 6.13034L17.0627 5.28851C17.1252 5.22605 17.1603 5.14127 17.1603 5.05292C17.1603 4.96457 17.1252 4.87979 17.0627 4.81732L15.1783 2.93271C15.1158 2.87024 15.031 2.83514 14.9427 2.83514C14.8543 2.83514 14.7695 2.87024 14.7071 2.93271L13.8651 3.77438C13.6897 3.66521 13.5104 3.56407 13.327 3.47111V2.33732H12.6606V3.17679C12.3354 3.04872 12.0013 2.94431 11.6611 2.86415V1.671C11.6611 1.58265 11.626 1.49787 11.5636 1.4354C11.5011 1.37293 11.4163 1.33783 11.328 1.33783H8.66265C8.5743 1.33783 8.48952 1.37293 8.42705 1.4354C8.36458 1.49787 8.32948 1.58265 8.32948 1.671V2.86399C7.54953 3.04367 6.8048 3.35125 6.12553 3.77439L5.28355 2.93272C5.22108 2.87025 5.1363 2.83515 5.04795 2.83515C4.95961 2.83515 4.87483 2.87025 4.81236 2.93272L2.9279 4.81734C2.86543 4.8798 2.83033 4.96458 2.83033 5.05293C2.83033 5.14128 2.86543 5.22606 2.9279 5.28853L3.76957 6.13035ZM5.04793 3.63934L5.84502 4.43642C5.95791 4.54946 6.1352 4.56642 6.26743 4.47673C7.00931 3.97458 7.8458 3.62908 8.7257 3.46116C8.88247 3.43082 8.99581 3.29369 8.99581 3.13395V2.00415H10.9948V3.13395C10.9948 3.29369 11.1081 3.43082 11.2649 3.46116C12.1448 3.62909 12.9813 3.97458 13.7232 4.47673C13.8554 4.56642 14.0327 4.54946 14.1456 4.43642L14.9427 3.63949L16.3561 5.05306L15.5592 5.84984C15.4463 5.96273 15.4295 6.13988 15.5189 6.27211C16.0208 7.01413 16.3664 7.85063 16.5343 8.73053C16.5643 8.88744 16.7016 9.00078 16.8613 9.00063H17.9913V10.9996H16.8613C16.7016 10.9995 16.5643 11.1128 16.5343 11.2697C16.3663 12.1496 16.0208 12.9863 15.5189 13.7281C15.4295 13.8604 15.4463 14.0375 15.5592 14.1504L16.3559 14.9473L14.9427 16.3609L14.1456 15.5638C14.0325 15.4511 13.8556 15.4341 13.7232 15.5235C12.9813 16.0257 12.1448 16.3712 11.2649 16.5391C11.1081 16.5694 10.9948 16.7066 10.9948 16.8663V17.9961H8.99581V16.8663C8.99581 16.7066 8.88247 16.5694 8.7257 16.5391C7.8458 16.3712 7.00931 16.0257 6.26743 15.5235C6.13506 15.4343 5.95807 15.4511 5.84502 15.5638L5.04793 16.3609L3.63451 14.9473L4.43144 14.1504C4.54433 14.0375 4.56114 13.8604 4.47175 13.7281C3.96976 12.9861 3.62425 12.1496 3.45634 11.2697C3.42629 11.1128 3.28901 10.9995 3.12927 10.9996H1.99933V9.00063H3.12927C3.28901 9.00078 3.4263 8.88744 3.45634 8.73053C3.62426 7.85063 3.96976 7.01398 4.47175 6.27211C4.56114 6.13988 4.54433 5.96274 4.43144 5.84984L3.63466 5.05291L5.04793 3.63934Z" fill="#707F95"/>
<path d="M9.99597 15.9969C11.5865 15.9969 13.1118 15.3651 14.2365 14.2405C15.3611 13.1158 15.9929 11.5905 15.9929 10C15.9929 8.40948 15.3611 6.88415 14.2365 5.75946C13.1118 4.63489 11.5865 4.00305 9.99597 4.00305C8.40545 4.00305 6.88013 4.63489 5.75543 5.75946C4.63086 6.88419 3.99902 8.40948 3.99902 10C4.00081 11.59 4.63322 13.1142 5.75753 14.2386C6.88184 15.363 8.40606 15.9953 9.99616 15.9971L9.99597 15.9969ZM7.35802 14.6259C6.4879 14.1287 5.77443 13.3976 5.29848 12.5156C5.78974 12.5951 6.31492 12.6607 6.86109 12.7135H6.86124C7.02737 13.3361 7.26298 13.938 7.56385 14.5078C7.49202 14.5456 7.42242 14.5844 7.35802 14.6259ZM9.6628 10.3294V12.192C8.88761 12.1844 8.12487 12.1509 7.39594 12.0925C7.26282 11.4749 7.1895 10.8461 7.177 10.2144C7.97066 10.2824 8.80655 10.3212 9.6628 10.3294ZM7.18413 9.54674C7.21 8.94781 7.29092 8.35241 7.42612 7.76817C8.14301 7.82335 8.89384 7.85399 9.66278 7.86113V9.66304C8.8071 9.65486 7.97287 9.61561 7.18413 9.54674ZM9.6628 12.8583V14.008C9.16142 14.0274 8.66448 14.1104 8.18393 14.2549C7.92885 13.7836 7.72328 13.2871 7.57071 12.7735C8.24835 12.8228 8.95051 12.8515 9.6628 12.8583ZM9.99597 15.3306C9.35553 15.3294 8.72042 15.2119 8.1219 14.9839C8.7219 14.7641 9.35701 14.6558 9.99597 14.6643C10.6349 14.6558 11.27 14.7641 11.87 14.9839C11.2715 15.2119 10.6366 15.3294 9.99597 15.3306ZM11.6709 14.212C11.2325 14.0943 10.7826 14.0259 10.3291 14.0081V12.8583C10.9842 12.852 11.6311 12.828 12.2579 12.7858C12.1102 13.2796 11.9134 13.7573 11.6709 14.212ZM12.6544 10.2277C12.6412 10.8591 12.5673 11.4876 12.4336 12.1047C11.7538 12.1554 11.0471 12.185 10.3291 12.192V10.3296C11.1279 10.322 11.9087 10.2875 12.6544 10.2277ZM10.3291 9.66325V7.86134C11.0423 7.85479 11.739 7.82713 12.4083 7.77909C12.5427 8.36405 12.623 8.96021 12.648 9.5599C11.9064 9.62059 11.1275 9.65552 10.3291 9.66325ZM12.6339 14.6261C12.5282 14.5572 12.4178 14.4955 12.3037 14.4415C12.5848 13.8961 12.8069 13.3223 12.9662 12.7297C13.5721 12.6747 14.1526 12.6033 14.6934 12.5158C14.2175 13.3978 13.504 14.1289 12.6339 14.6261ZM15.3266 10.0002C15.3253 10.6081 15.2194 11.2112 15.0134 11.7831C14.4342 11.8906 13.7997 11.9782 13.1279 12.0449V12.0447C13.2486 11.4258 13.3138 10.7973 13.3225 10.1667C14.0375 10.0924 14.7089 9.99428 15.3202 9.8738C15.3212 9.91619 15.3266 9.95754 15.3266 10.0002ZM15.2607 9.206C14.667 9.32587 14.0121 9.42359 13.3123 9.49781H13.3124C13.2849 8.90078 13.2062 8.30733 13.0771 7.72385C13.6484 7.66956 14.1938 7.59951 14.708 7.51503V7.51488C14.9865 8.04333 15.1734 8.61521 15.2607 9.206ZM12.6339 5.3744C13.3007 5.75665 13.8773 6.27768 14.3252 6.90205C13.8754 6.96972 13.4005 7.02505 12.9085 7.06997H12.9086C12.7558 6.54822 12.5532 6.04222 12.3037 5.55896C12.4178 5.50497 12.5282 5.44326 12.6339 5.3744ZM10.3292 7.1952V5.99222C10.7826 5.97437 11.2326 5.90596 11.6709 5.78831C11.8995 6.21472 12.0874 6.66181 12.2319 7.12348C11.6179 7.16498 10.981 7.18907 10.3291 7.19517L10.3292 7.1952ZM9.99599 4.66969C10.6366 4.67088 11.2715 4.78838 11.8701 5.01639C11.27 5.23622 10.6349 5.3445 9.99599 5.33602C9.35703 5.3445 8.72192 5.23622 8.12192 5.01639C8.72044 4.78838 9.35539 4.67088 9.99599 4.66969ZM8.18394 5.74549C8.6645 5.88991 9.16143 5.97291 9.66282 5.99224V7.19522C8.95544 7.18852 8.26516 7.16101 7.60328 7.11282V7.11297C7.75217 6.63937 7.94656 6.18142 8.18394 5.74549ZM7.35804 5.3744C7.42244 5.41589 7.49205 5.45471 7.56388 5.49249C7.30018 5.99121 7.08691 6.51503 6.92744 7.05612C6.4909 7.01388 6.06909 6.96257 5.66678 6.90203C6.11463 6.27766 6.69125 5.75664 7.35804 5.3744ZM5.28392 7.51499C5.75123 7.59189 6.24283 7.65778 6.75788 7.70969C6.62803 8.29214 6.54846 8.88468 6.52006 9.48099C5.87977 9.40915 5.27961 9.31693 4.73124 9.20628L4.73109 9.20613C4.81855 8.61534 5.00551 8.04347 5.28396 7.51502L5.28392 7.51499ZM6.50875 10.1495C6.51648 10.7804 6.58074 11.4095 6.70062 12.0289C6.08859 11.9647 5.51089 11.882 4.97855 11.7832C4.77255 11.2113 4.66666 10.6082 4.66532 10.0003C4.66532 9.95764 4.67067 9.9163 4.67171 9.87376C5.23691 9.98531 5.85357 10.0775 6.50875 10.1495Z" fill="#EAEAEA"/>
<path d="M0.999499 2.6231V3.33672H1.66583V2.6231C2.08825 2.51408 2.43047 2.20514 2.58217 1.79612C2.73388 1.38711 2.67572 0.929742 2.42659 0.57175C2.17746 0.213599 1.76891 0 1.33267 0C0.896431 0 0.487837 0.213584 0.238743 0.57175C-0.0103889 0.929753 -0.0685427 1.38711 0.0831676 1.79612C0.234878 2.20514 0.577121 2.51405 0.999499 2.6231ZM1.33266 0.671395C1.50936 0.671395 1.67892 0.7416 1.80386 0.866535C1.92879 0.99147 1.999 1.16103 1.999 1.33773C1.999 1.51442 1.92879 1.68398 1.80386 1.80892C1.67892 1.93385 1.50936 2.00406 1.33266 2.00406C1.15597 2.00406 0.986408 1.93385 0.861473 1.80892C0.736538 1.68398 0.666333 1.51442 0.666333 1.33773C0.666482 1.16103 0.736835 0.991771 0.86177 0.86684C0.986705 0.741908 1.15598 0.671544 1.33266 0.671395Z" fill="#707F95"/>
<path d="M18.6572 2.67035C18.9916 2.67154 19.3142 2.54719 19.5609 2.32172C19.8078 2.09623 19.9609 1.78614 19.9899 1.45312C20.0189 1.12011 19.9214 0.788277 19.7172 0.523687C19.513 0.25894 19.2167 0.0805957 18.8873 0.0242431C18.5577 -0.032277 18.219 0.0371828 17.9384 0.218789C17.6575 0.400393 17.4554 0.680918 17.3718 1.00456H16.6582V1.6709H17.3718C17.4453 1.95632 17.6113 2.20918 17.8439 2.39004C18.0765 2.5709 18.3625 2.66951 18.6572 2.6704L18.6572 2.67035ZM18.6572 0.671353C18.8339 0.671353 19.0035 0.741558 19.1284 0.866493C19.2533 0.991429 19.3235 1.16099 19.3235 1.33768C19.3235 1.51438 19.2533 1.68394 19.1284 1.80888C19.0035 1.93381 18.8339 2.00402 18.6572 2.00402C18.4805 2.00402 18.3109 1.93381 18.186 1.80888C18.0611 1.68394 17.9909 1.51438 17.9909 1.33768C17.991 1.16099 18.0614 0.991729 18.1863 0.866798C18.3112 0.741867 18.4805 0.671502 18.6572 0.671353Z" fill="#707F95"/>
<path d="M1.33266 19.995C1.62731 19.9941 1.91332 19.8955 2.14593 19.7146C2.37853 19.5338 2.54455 19.2809 2.618 18.9955H3.33162V18.3292H2.618C2.53396 18.0064 2.33183 17.7271 2.05161 17.5464C1.7714 17.3657 1.43349 17.2968 1.10478 17.3533C0.776221 17.4098 0.480823 17.5877 0.277078 17.8517C0.0734587 18.1157 -0.0236619 18.4467 0.00489515 18.7788C0.0336011 19.1111 0.185905 19.4205 0.431766 19.6456C0.677772 19.8708 0.999191 19.9956 1.33266 19.995ZM1.33266 17.996C1.50936 17.996 1.67892 18.0662 1.80385 18.1912C1.92879 18.3161 1.99899 18.4857 1.99899 18.6624C1.99899 18.839 1.92879 19.0086 1.80385 19.1335C1.67892 19.2585 1.50936 19.3287 1.33266 19.3287C1.15597 19.3287 0.986405 19.2585 0.86147 19.1335C0.736534 19.0086 0.66633 18.839 0.66633 18.6624C0.666479 18.4857 0.736831 18.3164 0.861767 18.1915C0.986702 18.0665 1.15597 17.9962 1.33266 17.996Z" fill="#707F95"/>
<path d="M1 4.00305H1.66633V4.66938H1V4.00305Z" fill="#707F95"/>
<path d="M1 5.33582H1.66633V6.00215H1V5.33582Z" fill="#707F95"/>
<path d="M1 6.66833H1.66633V7.33467H1V6.66833Z" fill="#707F95"/>
<path d="M15.3252 1.00458H15.9915V1.67091H15.3252V1.00458Z" fill="#707F95"/>
<path d="M13.9932 1.00458H14.6595V1.67091H13.9932V1.00458Z" fill="#707F95"/>
<path d="M12.6602 1.00458H13.3265V1.67091H12.6602V1.00458Z" fill="#707F95"/>
<path d="M18.3242 12.6654H18.9905V13.3317H18.3242V12.6654Z" fill="#707F95"/>
<path d="M18.3247 17.3769C17.9023 17.4859 17.5601 17.7949 17.4084 18.2039C17.2567 18.6129 17.3148 19.0702 17.5639 19.4282C17.8131 19.7864 18.2216 20 18.6579 20C19.0941 20 19.5027 19.7864 19.7518 19.4282C20.0009 19.0702 20.0591 18.6129 19.9074 18.2039C19.7557 17.7949 19.4134 17.4859 18.991 17.3769V16.6633H18.3247L18.3247 17.3769ZM19.3242 18.6623C19.3242 18.839 19.254 19.0085 19.1291 19.1335C19.0041 19.2584 18.8346 19.3286 18.6579 19.3286C18.4812 19.3286 18.3116 19.2584 18.1867 19.1335C18.0617 19.0085 17.9915 18.839 17.9915 18.6623C17.9915 18.4856 18.0617 18.316 18.1867 18.1911C18.3116 18.0661 18.4812 17.9959 18.6579 17.9959C18.8346 17.9961 19.0038 18.0664 19.1288 18.1914C19.2537 18.3163 19.324 18.4856 19.3242 18.6623Z" fill="#707F95"/>
<path d="M18.3242 15.3307H18.9905V15.997H18.3242V15.3307Z" fill="#707F95"/>
<path d="M18.3242 13.998H18.9905V14.6644H18.3242V13.998Z" fill="#707F95"/>
<path d="M3.99902 18.3292H4.66535V18.9955H3.99902V18.3292Z" fill="#707F95"/>
<path d="M5.33105 18.3292H5.99739V18.9955H5.33105V18.3292Z" fill="#707F95"/>
<path d="M6.66406 18.3292H7.33039V18.9955H6.66406V18.3292Z" fill="#707F95"/>
</g>
<defs>
<clipPath id="clip0_225_1922">
<rect width="20" height="20" fill="white"/>
</clipPath>
</defs>
</svg>
