<svg width="18" height="18" viewBox="0 0 18 18" fill="none" xmlns="http://www.w3.org/2000/svg">
<path d="M14.6296 13.5C14.001 13.5 13.398 13.7371 12.9536 14.1591C12.509 14.5809 12.2593 15.1532 12.2593 15.75C12.2593 16.3468 12.509 16.9191 12.9536 17.3409C13.398 17.7629 14.001 18 14.6296 18C15.2583 18 15.8612 17.7629 16.3057 17.3409C16.7503 16.9191 17 16.3468 17 15.75C16.9993 15.1535 16.7493 14.5816 16.3049 14.1598C15.8606 13.7379 15.2581 13.5006 14.6296 13.5ZM15.7281 15.3864L14.5429 16.5114C14.4873 16.5641 14.4119 16.5938 14.3334 16.5938C14.2548 16.5938 14.1794 16.5641 14.1238 16.5114L13.5312 15.9489C13.4168 15.8388 13.4174 15.6618 13.5326 15.5524C13.6478 15.443 13.8343 15.4425 13.9503 15.5511L14.3333 15.9149L15.309 14.9888C15.425 14.8802 15.6115 14.8805 15.7267 14.9899C15.8419 15.0993 15.8425 15.2763 15.7281 15.3864ZM2.18518 1.125V6.18748H1.2963C1.13267 6.18748 1 6.06154 1 5.90623V1.125C1 0.923979 1.11296 0.738287 1.2963 0.637841C1.47963 0.537395 1.70555 0.537395 1.88889 0.637841C2.07222 0.738287 2.18518 0.923985 2.18518 1.125ZM7.81479 5.34373H7.2222V3.09374L8.70367 2.03907L10.1851 3.09374V5.34373H9.59256V3.93749C9.59256 3.86291 9.56134 3.79134 9.50578 3.7386C9.45023 3.68587 9.37483 3.65624 9.29626 3.65624H8.11108C7.94746 3.65624 7.81479 3.78217 7.81479 3.93749V5.34373ZM14.6296 12.9375V1.125C14.6297 0.826544 14.5048 0.540384 14.2825 0.329463C14.0603 0.118401 13.7588 -0.000128466 13.4444 1.04488e-07H1.59259C1.90701 -0.000125451 2.20848 0.118401 2.43068 0.329463C2.65304 0.5404 2.77791 0.826551 2.77777 1.125V15.4687C2.7783 15.6239 2.91057 15.7494 3.07407 15.7499H11.6666C11.6679 15.0044 11.9805 14.2897 12.5359 13.7626C13.0912 13.2354 13.8441 12.9387 14.6296 12.9375ZM13.1481 11.5312H5.74072C5.5771 11.5312 5.44443 11.4053 5.44443 11.25C5.44443 11.0946 5.5771 10.9687 5.74072 10.9687H13.1481C13.3117 10.9687 13.4444 11.0946 13.4444 11.25C13.4444 11.4053 13.3117 11.5312 13.1481 11.5312ZM13.1481 10.125H5.74072C5.5771 10.125 5.44443 9.99903 5.44443 9.84371C5.44443 9.6884 5.5771 9.56247 5.74072 9.56247H13.1481C13.3117 9.56247 13.4444 9.6884 13.4444 9.84371C13.4444 9.99903 13.3117 10.125 13.1481 10.125ZM13.1481 8.71872H5.74072C5.5771 8.71872 5.44443 8.59278 5.44443 8.43747C5.44443 8.28216 5.5771 8.15622 5.74072 8.15622H13.1481C13.3117 8.15622 13.4444 8.28216 13.4444 8.43747C13.4444 8.59278 13.3117 8.71872 13.1481 8.71872ZM6.15553 3.14999L6.9259 2.60157V1.96874C6.9259 1.81343 7.05857 1.68749 7.2222 1.68749C7.38582 1.68749 7.51849 1.81343 7.51849 1.96874V2.17968L8.52589 1.46251C8.63118 1.38755 8.77616 1.38755 8.88145 1.46251L11.2518 3.15001C11.3828 3.24329 11.4092 3.41958 11.3111 3.54375C11.2128 3.66806 11.0271 3.69317 10.8963 3.6L10.7777 3.51563V5.625C10.7777 5.69958 10.7465 5.77115 10.691 5.82388C10.6354 5.87661 10.56 5.90625 10.4814 5.90625H6.9259C6.76228 5.90625 6.6296 5.78031 6.6296 5.625V3.51563L6.51109 3.6C6.38027 3.69317 6.19455 3.66806 6.09627 3.54375C5.99813 3.41958 6.02458 3.24328 6.15553 3.14999ZM4.25925 6.74998H13.1481C13.3117 6.74998 13.4444 6.87591 13.4444 7.03123C13.4444 7.18654 13.3117 7.31247 13.1481 7.31247H4.25925C4.09562 7.31247 3.96295 7.18654 3.96295 7.03123C3.96295 6.87591 4.09562 6.74998 4.25925 6.74998ZM4.85184 14.3437H4.25925C4.09562 14.3437 3.96295 14.2178 3.96295 14.0625C3.96295 13.9071 4.09562 13.7812 4.25925 13.7812H4.85184C5.01546 13.7812 5.14813 13.9071 5.14813 14.0625C5.14813 14.2178 5.01546 14.3437 4.85184 14.3437ZM4.85184 12.9375H4.25925C4.09562 12.9375 3.96295 12.8115 3.96295 12.6562C3.96295 12.5009 4.09562 12.375 4.25925 12.375H4.85184C5.01546 12.375 5.14813 12.5009 5.14813 12.6562C5.14813 12.8115 5.01546 12.9375 4.85184 12.9375ZM4.85184 11.5312H4.25925C4.09562 11.5312 3.96295 11.4053 3.96295 11.25C3.96295 11.0946 4.09562 10.9687 4.25925 10.9687H4.85184C5.01546 10.9687 5.14813 11.0946 5.14813 11.25C5.14813 11.4053 5.01546 11.5312 4.85184 11.5312ZM4.85184 10.125H4.25925C4.09562 10.125 3.96295 9.99903 3.96295 9.84371C3.96295 9.6884 4.09562 9.56247 4.25925 9.56247H4.85184C5.01546 9.56247 5.14813 9.6884 5.14813 9.84371C5.14813 9.99903 5.01546 10.125 4.85184 10.125ZM4.85184 8.71872H4.25925C4.09562 8.71872 3.96295 8.59278 3.96295 8.43747C3.96295 8.28216 4.09562 8.15622 4.25925 8.15622H4.85184C5.01546 8.15622 5.14813 8.28216 5.14813 8.43747C5.14813 8.59278 5.01546 8.71872 4.85184 8.71872ZM10.7777 14.3437H5.74072C5.5771 14.3437 5.44443 14.2178 5.44443 14.0625C5.44443 13.9071 5.5771 13.7812 5.74072 13.7812H10.7777C10.9414 13.7812 11.074 13.9071 11.074 14.0625C11.074 14.2178 10.9414 14.3437 10.7777 14.3437ZM11.9629 12.9375H5.74072C5.5771 12.9375 5.44443 12.8115 5.44443 12.6562C5.44443 12.5009 5.5771 12.375 5.74072 12.375H11.9629C12.1265 12.375 12.2592 12.5009 12.2592 12.6562C12.2592 12.8115 12.1265 12.9375 11.9629 12.9375ZM8.40738 4.21874H8.99997V5.34373H8.40738V4.21874Z" fill="#707F95"/>
<ellipse cx="14.6246" cy="15.75" rx="2.41071" ry="2.25" fill="#EAEAEA"/>
<g clip-path="url(#clip0_216_328)">
<path d="M14.5504 16.4253C14.5116 16.4253 14.4728 16.4106 14.4431 16.3809L13.8656 15.8034C13.8065 15.7443 13.8065 15.6482 13.8656 15.5891C13.9248 15.53 14.0208 15.53 14.08 15.5891L14.5504 16.0596L15.491 15.1186C15.5501 15.0595 15.6462 15.0595 15.7053 15.1186C15.7645 15.1778 15.7645 15.2738 15.7053 15.333L14.6574 16.3809C14.628 16.4102 14.5892 16.4253 14.5504 16.4253Z" fill="#707F95"/>
</g>
<defs>
<clipPath id="clip0_216_328">
<rect width="1.92857" height="1.92857" fill="white" transform="translate(13.8213 14.7856)"/>
</clipPath>
</defs>
</svg>
