<svg width="20" height="20" viewBox="0 0 20 20" fill="none" xmlns="http://www.w3.org/2000/svg">
<path d="M0.15 18.3111H19.8499L19.8498 18.6378V18.6379C19.8498 18.8184 19.7035 18.9646 19.5236 18.9646H0.476245C0.296325 18.9646 0.15 18.8184 0.15 18.6379V18.3111Z" stroke="#14467B" stroke-width="0.3"/>
<path d="M19.85 17.0579H0.15V12.2443C0.525261 12.4646 0.962105 12.5909 1.42857 12.5909H5.60814C5.91286 14.7451 7.76421 16.4047 10 16.4047C12.2358 16.4047 14.0872 14.7451 14.3919 12.5909H18.5714C19.0379 12.5909 19.4747 12.4646 19.85 12.2443V17.0579Z" stroke="#14467B" stroke-width="0.3"/>
<path d="M19.8498 10.0573V10.0781C19.8388 10.7757 19.2706 11.3374 18.5714 11.3374H14.3919C14.0871 9.18328 12.2358 7.52388 10 7.52388C7.76422 7.52388 5.91284 9.18328 5.60814 11.3374H1.42857C0.722504 11.3374 0.15 10.7645 0.15 10.0573V5.29019C0.15 5.10988 0.296291 4.9636 0.476245 4.9636H19.5236C19.7035 4.9636 19.8498 5.10988 19.8498 5.29019V10.0573Z" stroke="#14467B" stroke-width="0.3"/>
<path d="M13.1838 3.7102H12.5313V2.4301C12.5313 2.08437 12.2509 1.80351 11.9052 1.80351H8.09556C7.74981 1.80351 7.46948 2.08438 7.46948 2.4301V3.7102H6.81699V2.4301C6.81699 1.72289 7.3895 1.15 8.09556 1.15H11.9052C12.6113 1.15 13.1838 1.72289 13.1838 2.4301V3.7102Z" stroke="#14467B" stroke-width="0.3"/>
<path d="M10.0004 8.77744C11.7568 8.77744 13.1838 10.2055 13.1838 11.9644C13.1838 13.7231 11.7568 15.1512 10.0004 15.1512C8.24394 15.1512 6.81699 13.7231 6.81699 11.9644C6.81699 10.2055 8.24394 8.77744 10.0004 8.77744ZM9.37414 11.3376H8.09556C7.74978 11.3376 7.46948 11.6185 7.46948 11.9644C7.46948 12.3101 7.74982 12.591 8.09556 12.591H9.37414V13.8711C9.37414 14.217 9.65447 14.4978 10.0004 14.4978C10.3463 14.4978 10.6266 14.217 10.6266 13.8711V12.591H11.9052C12.2509 12.591 12.5313 12.3101 12.5313 11.9644C12.5313 11.6185 12.251 11.3376 11.9052 11.3376H10.6266V10.0575C10.6266 9.71166 10.3463 9.43079 10.0004 9.43079C9.65447 9.43079 9.37414 9.71166 9.37414 10.0575V11.3376Z" stroke="#14467B" stroke-width="0.3"/>
</svg>
