<svg width="20" height="20" viewBox="0 0 20 20" fill="none" xmlns="http://www.w3.org/2000/svg">
<path fill-rule="evenodd" clip-rule="evenodd" d="M20 18.1611H0V18.6379C0 18.9011 0.213331 19.1146 0.476245 19.1146H19.5236C19.7865 19.1146 19.9998 18.9011 19.9998 18.6379L20 18.1611Z" fill="#707F95"/>
<path fill-rule="evenodd" clip-rule="evenodd" d="M0 11.9644V17.2079H20V11.9644C19.6019 12.2636 19.1076 12.4409 18.5714 12.4409H14.2596C14.0223 14.5847 12.2043 16.2547 10 16.2547C7.79571 16.2547 5.97767 14.5847 5.74041 12.4409H1.42857C0.892367 12.4409 0.398122 12.2636 0 11.9644Z" fill="#707F95"/>
<path fill-rule="evenodd" clip-rule="evenodd" d="M19.9998 10.0573V5.29019C19.9998 5.02715 19.7865 4.8136 19.5236 4.8136H0.476245C0.213331 4.8136 0 5.02716 0 5.29019V10.0573C0 10.8472 0.63951 11.4874 1.42857 11.4874H5.74041C5.97765 9.34371 7.79571 7.67388 10 7.67388C12.2043 7.67388 14.0223 9.34371 14.2596 11.4874H18.5714C19.3605 11.4874 20 10.8472 20 10.0573H19.9998Z" fill="#707F95"/>
<path fill-rule="evenodd" clip-rule="evenodd" d="M13.3338 3.8602H12.3813V2.4301C12.3813 2.16706 12.1679 1.95351 11.9052 1.95351H8.09556C7.83281 1.95351 7.61948 2.16707 7.61948 2.4301V3.8602H6.66699V2.4301C6.66699 1.64019 7.3065 1 8.09556 1H11.9052C12.6943 1 13.3338 1.64019 13.3338 2.4301V3.8602Z" fill="#707F95"/>
<path fill-rule="evenodd" clip-rule="evenodd" d="M10.0004 8.62744C11.8398 8.62744 13.3338 10.1228 13.3338 11.9644C13.3338 13.8058 11.8398 15.3012 10.0004 15.3012C8.16095 15.3012 6.66699 13.8058 6.66699 11.9644C6.66699 10.1228 8.16095 8.62744 10.0004 8.62744ZM9.52413 11.4876H8.09556C7.83281 11.4876 7.61948 11.7012 7.61948 11.9644C7.61948 12.2274 7.83281 12.441 8.09556 12.441H9.52413V13.8711C9.52413 14.1343 9.73747 14.3478 10.0004 14.3478C10.2633 14.3478 10.4766 14.1343 10.4766 13.8711V12.441H11.9052C12.168 12.441 12.3813 12.2274 12.3813 11.9644C12.3813 11.7012 12.1679 11.4876 11.9052 11.4876H10.4766V10.0575C10.4766 9.79435 10.2633 9.58079 10.0004 9.58079C9.73747 9.58079 9.52413 9.79435 9.52413 10.0575V11.4876Z" fill="#EAEAEA"/>
</svg>
