<svg width="20" height="20" viewBox="0 0 20 20" fill="none" xmlns="http://www.w3.org/2000/svg">
<path d="M6.1318 5.55872L6.38137 5.30914L12.5411 11.4689C12.6586 11.5864 12.8181 11.6524 12.9842 11.6524C13.1505 11.6524 13.3098 11.5864 13.4274 11.4689L16.584 8.31196C16.7018 8.19478 16.7682 8.03519 16.7682 7.86891C16.7682 7.70248 16.7018 7.54303 16.584 7.42571L10.4242 1.26629L10.675 1.0163C10.8253 0.865637 10.8839 0.646352 10.8285 0.44086C10.7732 0.235371 10.6125 0.0749448 10.4069 0.0201254C10.2012 -0.0347012 9.98196 0.0243106 9.83172 0.174973L8.83915 1.16629L8.27278 0.599493C8.09798 0.424835 7.86097 0.326764 7.61377 0.326764C7.3667 0.326764 7.12968 0.424835 6.9549 0.599493L5.7143 1.84134C5.5395 2.016 5.44129 2.25286 5.44129 2.50007C5.44129 2.74713 5.5395 2.98416 5.7143 3.15879L6.28067 3.72559L5.28964 4.71663V4.71649C5.13925 4.86687 5.08052 5.08619 5.13549 5.29154C5.19045 5.49703 5.35088 5.6576 5.55636 5.7127C5.76185 5.76781 5.98103 5.70907 6.13141 5.55869L6.1318 5.55872Z" fill="#707F95"/>
<path d="M16.0675 16.7075H14.5148L12.9305 13.9631C11.6501 11.7452 8.44851 11.7452 7.1682 13.9631L5.58387 16.7075H4.03118C3.49255 16.7075 2.97582 16.9215 2.59498 17.3024C2.21399 17.6834 2 18.1999 2 18.7387C1.99972 19.0914 2.17912 19.4199 2.47584 19.6105C2.47584 19.6105 3.83433 19.9999 10.0495 19.9999C16.2647 19.9999 17.6428 19.5988 17.6428 19.5988C17.9285 19.4061 18.0997 19.084 18.0994 18.7394C18.0996 18.2005 17.8856 17.6835 17.5045 17.3024C17.1234 16.9213 16.6064 16.7073 16.0675 16.7076V16.7075ZM10.0492 17.0966C9.65243 17.0965 9.27198 16.9387 8.99146 16.6582C8.71105 16.3776 8.5534 15.9971 8.55354 15.6003C8.55354 15.2036 8.71118 14.823 8.99185 14.5426C9.27239 14.2621 9.65297 14.1044 10.0497 14.1046C10.4464 14.1046 10.8269 14.2622 11.1074 14.5428C11.388 14.8233 11.5456 15.2039 11.5456 15.6006C11.5456 15.9973 11.388 16.3779 11.1073 16.6586C10.8266 16.9392 10.446 17.0967 10.0492 17.0967V17.0966Z" fill="#707F95"/>
<path d="M14.9569 16.087H17.5419C17.8206 16.087 18.0466 15.861 18.0466 15.5822C18.0466 15.3035 17.8206 15.0775 17.5419 15.0775H14.3779L14.9569 16.087Z" fill="#EAEAEA"/>
<path d="M6.55906 13.6117C6.61138 13.521 6.66732 13.4331 6.72549 13.348C6.2544 12.4478 6.13412 11.4049 6.38803 10.4211C6.64207 9.43729 7.25211 8.58282 8.10004 8.02313L6.37746 6.29901C5.40568 6.99124 4.64956 7.94445 4.19701 9.04834C3.74431 10.1522 3.61346 11.3617 3.81966 12.5371C4.02585 13.7122 4.56057 14.805 5.36189 15.6889L6.55906 13.6117Z" fill="#EAEAEA"/>
<path d="M14.4822 11.9281C14.657 12.1028 14.894 12.2009 15.1412 12.2009C15.3882 12.2009 15.6253 12.1028 15.8 11.9281L17.0406 10.6864C17.2154 10.5117 17.3136 10.2747 17.3136 10.0277C17.3136 9.78048 17.2154 9.54345 17.0406 9.36881L16.78 9.10822L14.2207 11.6675L14.4822 11.9281Z" fill="#EAEAEA"/>
</svg>
