<svg width="20" height="20" viewBox="0 0 20 20" fill="none" xmlns="http://www.w3.org/2000/svg">
<path d="M5.38913 4.82927L5.3957 4.82269L6.38674 3.83166L6.49276 3.72563L6.38678 3.61957L5.82041 3.05277L5.82032 3.05268C5.67369 2.90618 5.59129 2.70733 5.59129 2.50007C5.59129 2.29267 5.67368 2.09398 5.82032 1.94745L5.82042 1.94735L7.06093 0.705596C7.06095 0.705569 7.06098 0.705542 7.06101 0.705515C7.20764 0.559032 7.40648 0.476764 7.61377 0.476764C7.82124 0.476764 8.0201 0.559068 8.16675 0.705601L8.73304 1.27232L8.83904 1.3784L8.94515 1.27243L9.93772 0.281106L9.93793 0.280892C10.0503 0.168206 10.2144 0.124035 10.3682 0.165062L10.3682 0.165064C10.5221 0.206068 10.6423 0.326073 10.6836 0.479804L10.6836 0.479894C10.725 0.633489 10.6813 0.797464 10.5689 0.910239C10.5689 0.910288 10.5688 0.910336 10.5688 0.910385L10.3183 1.16005L10.2119 1.26612L10.3181 1.37236L16.4779 7.53178L16.4781 7.53203C16.5678 7.62124 16.6182 7.74245 16.6182 7.86891C16.6182 7.99524 16.5678 8.11655 16.4782 8.20558L16.4779 8.2059L13.3214 11.3628C13.2319 11.4522 13.1107 11.5024 12.9842 11.5024C12.8578 11.5024 12.7365 11.4522 12.6472 11.3629L6.48744 5.20308L6.38137 5.09701L6.27531 5.20308L6.07439 5.40399L6.07401 5.40396L6.02535 5.45262C5.91286 5.56511 5.74893 5.60904 5.59522 5.56782C5.44151 5.5266 5.32151 5.4065 5.28039 5.25278L5.28039 5.25275C5.24008 5.10217 5.28152 4.9415 5.38913 4.82927Z" stroke="#14467B" stroke-width="0.3"/>
<path d="M10.0492 17.2466H10.0491C9.61259 17.2465 9.19401 17.0729 8.88539 16.7642L8.88536 16.7642C8.57687 16.4556 8.4034 16.0369 8.40354 15.6003L10.0492 17.2466ZM10.0492 17.2466C10.4858 17.2466 10.9045 17.0734 11.2133 16.7647L11.2134 16.7647M10.0492 17.2466L11.2134 16.7647M11.2134 16.7647C11.5222 16.4559 11.6956 16.0371 11.6956 15.6006C11.6956 15.1641 11.5222 14.7454 11.2135 14.4367M11.2134 16.7647L10.0498 13.9546C10.4863 13.9546 10.9048 14.128 11.2135 14.4367M8.88578 14.4366C9.19444 14.1279 9.61316 13.9544 10.0497 13.9546L8.88578 14.4366ZM8.88578 14.4366C8.57698 14.7451 8.40356 15.1638 8.40354 15.6003L8.88578 14.4366ZM11.2135 14.4367L11.1074 14.5428L11.2135 14.4367C11.2135 14.4367 11.2135 14.4367 11.2135 14.4367ZM16.0675 16.8575H16.0676C16.5667 16.8573 17.0455 17.0555 17.3985 17.4085C17.7514 17.7615 17.9496 18.2403 17.9494 18.7393L17.9494 18.7396C17.9496 19.0259 17.8113 19.2942 17.5793 19.4603C17.5694 19.4626 17.5562 19.4658 17.5392 19.4695C17.4922 19.4798 17.4166 19.495 17.3057 19.5135C17.0839 19.5503 16.7212 19.6001 16.1635 19.6499C15.0478 19.7497 13.1541 19.8499 10.0495 19.8499C6.94473 19.8499 5.0559 19.7527 3.94501 19.6558C3.38964 19.6073 3.02938 19.5591 2.8093 19.5233C2.69929 19.5054 2.62451 19.4906 2.57803 19.4806C2.56061 19.4768 2.5472 19.4737 2.53741 19.4714C2.29532 19.3067 2.14977 19.0326 2.15 18.7388V18.7387C2.15 18.2397 2.34819 17.7613 2.70104 17.4084C3.05375 17.0557 3.53233 16.8575 4.03118 16.8575H5.58387H5.67048L5.71377 16.7825L7.29811 14.0381L7.1682 13.9631L7.29811 14.0381C8.52068 11.9202 11.5779 11.9202 12.8006 14.0381L14.3849 16.7825L14.4282 16.8575H14.5148H16.0675Z" stroke="#14467B" stroke-width="0.3"/>
<path d="M17.5419 15.937H15.0438L14.6369 15.2275H17.5419C17.7378 15.2275 17.8966 15.3864 17.8966 15.5822C17.8966 15.7781 17.7378 15.937 17.5419 15.937Z" stroke="#14467B" stroke-width="0.3"/>
<path d="M6.42913 13.5367L6.4291 13.5368L5.33656 15.4324C4.62991 14.5984 4.15676 13.5904 3.96741 12.5111C3.7661 11.3637 3.89384 10.1829 4.33579 9.10525L4.3358 9.10524C4.76156 8.06669 5.46257 7.16473 6.36202 6.49578L7.8669 8.002C7.06631 8.58136 6.49084 9.423 6.2428 10.3836L6.24279 10.3836C5.98707 11.3744 6.09751 12.4231 6.55187 13.3377C6.5095 13.4023 6.46839 13.4687 6.42913 13.5367Z" stroke="#14467B" stroke-width="0.3"/>
<path d="M14.588 11.8219L14.5882 11.822C14.7348 11.9686 14.9337 12.0509 15.1412 12.0509C15.3484 12.0509 15.5473 11.9686 15.6939 11.8221L14.588 11.8219ZM14.588 11.8219L14.433 11.6674L16.78 9.32035L16.9346 9.47488L16.9346 9.47492C17.0812 9.62141 17.1636 9.82026 17.1636 10.0277C17.1636 10.2349 17.0812 10.4338 16.9346 10.5803L16.9345 10.5804L15.694 11.822L14.588 11.8219Z" stroke="#14467B" stroke-width="0.3"/>
</svg>
