<svg width="20" height="20" viewBox="0 0 20 20" fill="none" xmlns="http://www.w3.org/2000/svg">
<g clip-path="url(#clip0_224_922)">
<path d="M7.86385 18.9674H6.37012V11.3984H14.3287C14.4165 11.3984 14.4876 11.3273 14.4876 11.2395V10.0069C13.7755 10.3055 12.8516 10.5461 11.6631 10.6255C11.6462 10.6265 11.6301 10.627 11.6143 10.627C11.2399 10.627 10.9269 10.3342 10.9017 9.96046C10.8888 9.77003 10.9508 9.58589 11.0762 9.44203C11.2018 9.2982 11.3757 9.2117 11.5663 9.19886C12.9145 9.10651 13.9876 8.78411 14.7559 8.24114C15.3105 7.84757 15.5443 7.4525 15.6346 7.25218C15.6501 7.21716 15.6569 7.19735 15.6587 7.19274C15.7474 6.89712 16.0287 6.68785 16.3415 6.68785C16.4077 6.68785 16.4737 6.69692 16.538 6.71533C16.7215 6.76765 16.8737 6.88818 16.9666 7.05518C17.0595 7.22203 17.0819 7.41511 17.0295 7.59886C17.0083 7.67517 16.796 8.37272 15.9861 9.08897C15.7075 9.33632 15.3285 9.60794 14.825 9.85447C14.7688 11.4934 14.5954 13.4341 13.3772 15.2324C14.6895 15.9323 15.8014 16.1721 16.7135 16.1722C18.5345 16.1725 19.5752 15.2121 19.8014 14.9791C19.8076 14.9727 19.8132 14.9671 19.8179 14.962C19.8153 14.8551 19.8066 14.5712 19.7832 14.1641C19.7529 13.6401 19.6983 12.9143 19.6007 12.1083C19.4062 10.4971 19.0355 8.5627 18.3571 7.29545C17.9023 6.44723 17.3309 5.91876 16.604 5.92015C16.5392 5.92015 16.4727 5.92434 16.4047 5.93285C15.6676 6.0312 15.3204 6.36699 15.1089 6.91864C15.0994 6.94417 15.0905 6.97082 15.0817 6.99746C14.9813 7.05996 14.8824 7.11604 14.7864 7.16808C14.2317 7.46914 13.7796 7.63265 13.7796 8.06401C13.7796 8.26811 13.8449 8.47251 13.9528 8.65819L7.79918 8.65805V3.81267H14.5274C14.6152 3.81267 14.6863 3.74152 14.6863 3.65377L14.6862 1.46612C14.6862 1.37823 14.615 1.30722 14.5273 1.30722L7.06082 0C6.97307 0 6.90192 0.0711503 6.90192 0.158901V2.85616H6.36996V2.02552H1.49386V18.9674H0V19.8411H7.86361L7.86385 18.9674ZM2.12311 3.12086H5.57833V3.47829H2.12311V3.12086ZM2.12311 3.9748H5.57833V4.33223H2.12311V3.9748ZM2.12311 4.82859H5.57833V5.18602H2.12311V4.82859Z" fill="#707F95"/>
<path d="M9.268 4.00769V5.40963L8.63253 5.36149C8.54492 5.36149 8.47363 5.43264 8.47363 5.52039V6.31129C8.47363 6.39904 8.54478 6.47019 8.63253 6.47019H14.5268C14.6146 6.47019 14.6857 6.39904 14.6857 6.31129V5.96726C14.6857 5.87951 14.6146 5.80836 14.5268 5.80836L10.8965 5.53311V4.00771L9.268 4.00769Z" fill="#EAEAEA"/>
<path d="M15.9396 16.357L15.631 19.1173C15.5822 19.5533 15.8962 19.9462 16.3322 19.995C16.3622 19.9983 16.3919 20 16.4213 20C16.8205 20.0001 17.1643 19.6999 17.2097 19.2938L17.5393 16.3439C17.2832 16.3854 17.0082 16.4101 16.7132 16.4104C16.4684 16.4104 16.2104 16.3938 15.9396 16.357Z" fill="#EAEAEA"/>
<path d="M16.9407 5.71591C17.75 5.67531 18.4552 5.08476 18.6073 4.25301C18.7847 3.28229 18.1416 2.35164 17.1709 2.17417C16.2003 1.99644 15.2694 2.63957 15.0919 3.61043C14.916 4.57319 15.5475 5.49648 16.5053 5.68423C16.5131 5.68576 16.5206 5.68758 16.5284 5.68911C16.6671 5.71464 16.8054 5.72274 16.9407 5.71591Z" fill="#EAEAEA"/>
<path d="M15.8811 8.96987C16.6505 8.28976 16.8569 7.62736 16.8769 7.55525C16.9612 7.25991 16.7899 6.95229 16.4947 6.86818C16.2018 6.78461 15.8973 6.95203 15.8099 7.24247C15.8098 7.24261 15.8021 7.26758 15.7801 7.31724C15.7015 7.49177 15.4628 7.93471 14.8483 8.37096C14.2329 8.80597 13.2291 9.24429 11.5778 9.35743C11.2716 9.37822 11.04 9.64357 11.0609 9.94994C11.0807 10.2433 11.3251 10.4681 11.6149 10.4681C11.6276 10.4681 11.6404 10.4677 11.6533 10.4667C13.7952 10.3238 15.1132 9.65154 15.8811 8.96989L15.8811 8.96987Z" fill="#EAEAEA"/>
</g>
<defs>
<clipPath id="clip0_224_922">
<rect width="20" height="20" fill="white"/>
</clipPath>
</defs>
</svg>
