<svg width="20" height="20" viewBox="0 0 20 20" fill="none" xmlns="http://www.w3.org/2000/svg">
<g clip-path="url(#clip0_224_922)">
<path d="M13.594 15.1765C14.732 13.4141 14.9134 11.5326 14.9717 9.94891C15.448 9.70706 15.8125 9.4437 16.0857 9.20114C16.9213 8.46203 17.1466 7.73745 17.1739 7.63947C17.237 7.41765 17.2099 7.18374 17.0977 6.98225C17.0977 6.98223 17.0977 6.98221 17.0977 6.9822L13.594 15.1765ZM13.594 15.1765C14.8232 15.807 15.8624 16.0221 16.7136 16.0222C18.4109 16.0225 19.4048 15.1618 19.6662 14.9025C19.6622 14.7678 19.653 14.5138 19.6334 14.1727M13.594 15.1765L19.6334 14.1727M19.6334 14.1727C19.6033 13.651 19.549 12.9284 19.4518 12.1264L19.4518 12.1263C19.2575 10.5166 18.889 8.60676 18.2249 7.36624M19.6334 14.1727L18.2249 7.36624M18.2249 7.36624C17.778 6.53287 17.2457 6.06892 16.6043 6.07015L16.604 6.07015C16.5458 6.07015 16.4858 6.0739 16.4239 6.08162C16.0749 6.12827 15.8322 6.22911 15.6537 6.37264C15.4753 6.51613 15.3488 6.71231 15.2493 6.97158C15.2409 6.99409 15.2328 7.01822 15.2242 7.04445L15.2071 7.09609L15.161 7.12482C15.0572 7.18937 14.9555 7.24699 14.8579 7.29995M18.2249 7.36624L13.9528 8.50819V8.51952C13.979 8.50798 14.005 8.49626 14.0307 8.48438M14.8579 7.29995L14.7864 7.16808L14.8579 7.29991C14.8579 7.29992 14.8579 7.29994 14.8579 7.29995ZM14.8579 7.29995C14.7713 7.34694 14.6899 7.38932 14.6138 7.42897C14.4342 7.52258 14.2838 7.60092 14.1631 7.68855C14.0013 7.80609 13.9296 7.91525 13.9296 8.06401C13.9296 8.20301 13.9657 8.34612 14.0307 8.48438M14.0307 8.48438C14.264 8.37662 14.4769 8.25463 14.6691 8.11882L14.0307 8.48438ZM15.4976 7.19099C15.5043 7.17588 15.509 7.16437 15.5121 7.15645L15.5158 7.14664L15.5165 7.14469C15.6261 6.78779 15.9647 6.53785 16.3415 6.53785C16.4215 6.53785 16.5014 6.5488 16.5793 6.57113L15.4976 7.19099ZM15.4976 7.19099C15.4172 7.36937 15.1996 7.74223 14.6694 8.11865L15.4976 7.19099ZM7.79918 8.80805L13.111 8.80817C12.6468 8.92909 12.1281 9.01003 11.5561 9.04921C11.3257 9.06477 11.1148 9.1697 10.9632 9.34338L10.9631 9.34346C10.8116 9.51729 10.7365 9.74052 10.752 9.97055L10.752 9.97057C10.7826 10.4229 11.1608 10.777 11.6143 10.777C11.6336 10.777 11.6527 10.7764 11.6718 10.7753L11.6731 10.7752C12.7653 10.7022 13.6405 10.4945 14.3376 10.2285V11.2395C14.3376 11.2444 14.3336 11.2484 14.3287 11.2484H6.37012H6.22012V11.3984V18.9674V19.1174H6.37012H7.7138L7.71365 19.6911H0.15V19.1174H1.49386H1.64386V18.9674V2.17552H6.21996V2.85616V3.00616H6.36996H6.90192H7.05192V2.85616V0.158901C7.05192 0.155776 7.05354 0.153023 7.05598 0.151434L14.5014 1.45497L14.5143 1.45722H14.5273C14.5323 1.45722 14.5362 1.46116 14.5362 1.46612L14.5363 3.65377C14.5363 3.65868 14.5323 3.66267 14.5274 3.66267H7.79918H7.64918V3.81267V8.65805V8.80805L7.79918 8.80805ZM2.12311 2.97086H1.97311V3.12086V3.47829V3.62829H2.12311H5.57833H5.72833V3.47829V3.12086V2.97086H5.57833H2.12311ZM2.12311 3.8248H1.97311V3.9748V4.33223V4.48223H2.12311H5.57833H5.72833V4.33223V3.9748V3.8248H5.57833H2.12311ZM2.12311 4.67859H1.97311V4.82859V5.18602V5.33602H2.12311H5.57833H5.72833V5.18602V4.82859V4.67859H5.57833H2.12311Z" stroke="#14467B" stroke-width="0.3"/>
<path d="M9.418 4.15769L10.7465 4.15771V5.53311V5.67217L10.8851 5.68268L14.5155 5.95793L14.5155 5.95836H14.5268C14.5318 5.95836 14.5357 5.96235 14.5357 5.96726V6.31129C14.5357 6.3162 14.5318 6.32019 14.5268 6.32019H8.63253C8.62763 6.32019 8.62363 6.3162 8.62363 6.31129V5.52039C8.62363 5.5163 8.62655 5.51274 8.6304 5.51176L9.25667 5.5592L9.418 5.57142V5.40963V4.15769Z" stroke="#14467B" stroke-width="0.3"/>
<path d="M17.3687 16.5198L17.0606 19.2772L17.0606 19.2772C17.0238 19.6065 16.7449 19.8501 16.4214 19.85H16.4213L17.3687 16.5198ZM17.3687 16.5198C17.1617 16.5455 16.9434 16.5602 16.7133 16.5604L16.7132 16.5604C16.5081 16.5604 16.2942 16.5491 16.0718 16.5244L15.7801 19.134L15.78 19.134C15.7405 19.4876 15.9951 19.8063 16.3488 19.8459L17.3687 16.5198ZM17.3687 16.5198L17.3859 16.3664C17.1742 16.3942 16.9501 16.4102 16.7132 16.4104C16.5137 16.4104 16.3053 16.3994 16.0885 16.3754L17.3687 16.5198ZM15.6316 19.1174L15.6316 19.1174L15.6316 19.1174Z" stroke="#14467B" stroke-width="0.3"/>
<path d="M16.9331 5.5661L16.9332 5.56609C17.6746 5.5289 18.3205 4.98769 18.4597 4.22603C18.6223 3.33683 18.0331 2.4843 17.1439 2.32173L17.1439 2.32172C16.2548 2.15892 15.402 2.74802 15.2395 3.63739L16.9331 5.5661ZM16.9331 5.5661C16.8094 5.57235 16.6832 5.56497 16.5569 5.54184L16.5488 5.54012L16.5342 5.53704L16.5341 5.53703M16.9331 5.5661L16.5341 5.53703M16.5341 5.53703C15.6568 5.36504 15.0783 4.51926 15.2395 3.6374L16.5341 5.53703Z" stroke="#14467B" stroke-width="0.3"/>
<path d="M15.7817 8.85748L15.7588 8.87776C15.0159 9.52752 13.7356 10.1775 11.6433 10.317L11.6433 10.317L11.6419 10.3171C11.6333 10.3178 11.6243 10.3181 11.6149 10.3181C11.4034 10.3181 11.225 10.1539 11.2105 9.93983L11.2105 9.93971C11.1953 9.71602 11.3644 9.52226 11.5879 9.50709L11.588 9.50708C13.2625 9.39235 14.2938 8.94666 14.9349 8.49345L14.9351 8.49328C15.5754 8.03878 15.8296 7.57283 15.9169 7.3788L15.9172 7.37809C15.9267 7.35674 15.9339 7.33909 15.9394 7.32516L15.9427 7.32182L15.9536 7.28565C16.0173 7.0736 16.2397 6.95141 16.4535 7.01242L16.4536 7.01244C16.6691 7.07385 16.7942 7.29849 16.7327 7.5141L16.7323 7.51523C16.7181 7.56652 16.5244 8.20101 15.7817 8.85748Z" stroke="#14467B" stroke-width="0.3"/>
</g>
<defs>
<clipPath id="clip0_224_922">
<rect width="20" height="20" fill="white"/>
</clipPath>
</defs>
</svg>
