<svg width="20" height="20" viewBox="0 0 20 20" fill="none" xmlns="http://www.w3.org/2000/svg">
<path d="M0 10.9542V12.3178C0 12.3781 0.0240461 12.4359 0.0666578 12.4785C0.109269 12.5212 0.167102 12.5452 0.22737 12.5452H0.327359C0.602215 12.5452 0.865795 12.6543 1.06017 12.8487C1.25454 13.043 1.36364 13.3066 1.36364 13.5815V15.9543C1.36364 16.0145 1.38768 16.0724 1.4303 16.115C1.47291 16.1576 1.53074 16.1815 1.59101 16.1815H10.4546V10.727H0.227386C0.101827 10.727 0 10.8288 0 10.9542Z" fill="#EAEAEA"/>
<path d="M15.9631 3H10.6812C10.6391 3.00015 10.598 3.01278 10.563 3.03637C10.4771 3.01278 10.3886 3.00061 10.2994 3H10.1721C9.88557 3.00122 9.61119 3.11551 9.40844 3.31808C9.20588 3.52079 9.09158 3.79519 9.09036 4.08179V8.13175L7.68124 8.4136L7.49937 8.45454H1.81773V7.94089C1.81773 7.71534 1.72824 7.49923 1.56875 7.33972C1.40941 7.18038 1.19315 7.09089 0.967743 7.09089H0.68132C0.555914 7.09089 0.454102 7.19256 0.454102 7.31811V10.0454C0.454102 10.1056 0.477995 10.1635 0.520607 10.2061C0.56322 10.2487 0.621052 10.2726 0.68132 10.2726H10.4542V7.99992H9.54503V4.21817C9.54503 4.0156 9.62554 3.82139 9.76875 3.67821C9.91196 3.53503 10.1062 3.45449 10.3087 3.45449C10.4679 3.45449 10.6204 3.5178 10.733 3.63027C10.8455 3.74274 10.9087 3.89539 10.9087 4.05459V16.1819H17.7268V4.76368C17.7268 4.29599 17.5409 3.84732 17.2102 3.51662C16.8795 3.18592 16.4309 3.00008 15.9632 3.00008L15.9631 3Z" fill="#707F95"/>
<path d="M19.5453 8.68166C19.5501 8.29601 19.4145 7.92177 19.1634 7.6291C18.9125 7.33629 18.5635 7.14482 18.1816 7.09082V10.2725C18.5603 10.2188 18.9068 10.0301 19.1575 9.74104C19.408 9.45218 19.5457 9.08237 19.5453 8.69974L19.5453 8.68166Z" fill="#707F95"/>
<path d="M19.7725 10.7271H18.1816V16.1816H18.4089C18.4691 16.1816 18.527 16.1577 18.5696 16.1151C18.6122 16.0725 18.6362 16.0147 18.6362 15.9544V13.5816C18.635 13.3064 18.7438 13.0421 18.9383 12.8474C19.133 12.6529 19.3973 12.5441 19.6725 12.5453H19.7725C19.8328 12.5453 19.8906 12.5213 19.9332 12.4787C19.9758 12.4361 19.9999 12.3782 19.9999 12.318V10.9543C19.9999 10.8941 19.9758 10.8362 19.9332 10.7936C19.8906 10.751 19.8328 10.7271 19.7725 10.7271Z" fill="#EAEAEA"/>
</svg>
