<svg width="20" height="20" viewBox="0 0 20 20" fill="none" xmlns="http://www.w3.org/2000/svg">
<path d="M0.15 12.3178V10.9542C0.15 10.9117 0.184593 10.877 0.227386 10.877H10.3046V16.0315H1.59101C1.57041 16.0315 1.55077 16.0233 1.53637 16.0089C1.52177 15.9943 1.51364 15.9746 1.51364 15.9543V13.5815C1.51364 13.2669 1.38877 12.9651 1.16623 12.7426C0.943712 12.5201 0.641977 12.3952 0.327359 12.3952H0.22737C0.207031 12.3952 0.187311 12.3871 0.172728 12.3725C0.158133 12.3579 0.15 12.3382 0.15 12.3178Z" stroke="#14467B" stroke-width="0.3"/>
<path d="M17.5768 4.76367V16.0319H11.0587V4.05459C11.0587 3.85567 10.9797 3.66485 10.8391 3.5242L10.839 3.52413C10.6983 3.38367 10.5078 3.30449 10.3087 3.30449C10.0663 3.30449 9.834 3.40087 9.66269 3.57213C9.49136 3.74343 9.39503 3.9758 9.39503 4.21817V7.99992V8.14992H9.54503H10.3042V10.1226H0.68132C0.660724 10.1226 0.641079 10.1144 0.626677 10.1C0.612264 10.0856 0.604102 10.0659 0.604102 10.0454V7.31811C0.604102 7.27546 0.638693 7.24089 0.68132 7.24089H0.967743C1.15341 7.24089 1.3315 7.31461 1.46268 7.44579C1.59404 7.57715 1.66773 7.75511 1.66773 7.94089V8.45454V8.60454H1.81773H7.49937H7.51604L7.53231 8.60088L7.71243 8.56034L9.11979 8.27883L9.24037 8.25471V8.13175V4.082C9.24153 3.8351 9.34003 3.59875 9.51455 3.42411C9.68926 3.2496 9.92561 3.15113 10.1725 3.15H10.2988C10.3749 3.15056 10.4503 3.16096 10.5232 3.18101L10.5897 3.19927L10.6468 3.16077C10.6571 3.15379 10.6692 3.15008 10.6816 3.15H15.879L15.879 3.15008H15.9632C16.3911 3.15008 16.8016 3.32012 17.1042 3.62269C17.4067 3.92525 17.5768 4.33577 17.5768 4.76367Z" stroke="#14467B" stroke-width="0.3"/>
<path d="M19.0442 9.64276C18.8555 9.86024 18.607 10.015 18.3316 10.089V7.27425C18.6097 7.3489 18.8603 7.506 19.0495 7.72671L19.0496 7.72678C19.2769 7.9917 19.3997 8.33053 19.3953 8.67977L19.3953 8.68176L19.3953 8.69984L19.3953 8.69992C19.3957 9.04641 19.271 9.38124 19.0442 9.64276ZM19.0442 9.64276L19.1572 9.74079L19.0442 9.64276Z" stroke="#14467B" stroke-width="0.3"/>
<path d="M18.6362 13.5816C18.635 13.3064 18.7438 13.0421 18.9383 12.8474C19.133 12.6529 19.3973 12.5441 19.6725 12.5453M18.6362 13.5816H18.4862V13.5819V15.9544C18.4862 15.9747 18.4781 15.9944 18.4635 16.009C18.4491 16.0234 18.4294 16.0316 18.4089 16.0316H18.3316V10.8771H19.7725C19.7931 10.8771 19.8127 10.8853 19.8271 10.8997C19.8417 10.9143 19.8499 10.934 19.8499 10.9543V12.318C19.8499 12.3383 19.8417 12.358 19.8271 12.3726C19.8125 12.3872 19.7928 12.3953 19.7725 12.3953H19.6728H19.6725V12.5453M18.6362 13.5816V15.9544C18.6362 16.0147 18.6122 16.0725 18.5696 16.1151C18.527 16.1577 18.4691 16.1816 18.4089 16.1816H18.3316L18.6362 13.5816ZM19.6725 12.5453H19.7725C19.8328 12.5453 19.8906 12.5213 19.9332 12.4787C19.9758 12.4361 19.9999 12.3782 19.9999 12.318V10.9543C19.9999 10.8941 19.9758 10.8362 19.9332 10.7936C19.8906 10.751 19.8328 10.7271 19.7725 10.7271H18.3316L19.6725 12.5453Z" stroke="#14467B" stroke-width="0.3"/>
</svg>
