<svg width="20" height="20" viewBox="0 0 20 20" fill="none" xmlns="http://www.w3.org/2000/svg">
<path d="M5.00414 5.10904H3.19423C3.10526 5.10904 3.0332 5.03698 3.0332 4.94801V3.61513C3.0332 3.52616 3.10526 3.4541 3.19423 3.4541H5.00443C5.0934 3.4541 5.16546 3.52616 5.16546 3.61513V4.94801C5.16518 5.03698 5.09311 5.10904 5.00414 5.10904Z" fill="#EAEAEA"/>
<path d="M10.9854 2.87256C10.9854 3.90694 10.147 4.74541 9.11279 4.74541C8.07863 4.74541 7.24023 3.90701 7.24023 2.87256C7.24023 1.83847 8.07863 1 9.11279 1C10.147 1 10.9854 1.8384 10.9854 2.87256Z" fill="#707F95"/>
<path d="M16.8154 12.0654V11.8526C16.8154 11.3354 16.3964 10.9163 15.8792 10.9163H15.7941V9.76721H15.8493C16.0455 9.76721 16.2124 9.61477 16.2196 9.41853C16.2268 9.21288 16.0621 9.04352 15.8581 9.04352H15.7517C15.7517 8.78077 15.5466 8.56375 15.2844 8.54878L14.3739 8.49667C14.3052 8.49279 14.2398 8.52688 14.2037 8.58564L13.9981 8.9199C13.9512 8.99612 13.8662 9.04019 13.7766 9.03437L12.9268 8.97949C12.8592 8.97506 12.8356 9.06736 12.8969 9.09618L13.6303 9.43848C13.7827 9.50943 13.962 9.48809 14.0934 9.38304L14.3046 9.21397L14.9005 9.17129V12.7035L13.6663 14.4058L12.9986 11.0299C12.9379 10.7231 12.7161 10.4728 12.419 10.3756L10.7322 9.82344C10.6288 9.78963 10.5584 9.69428 10.5559 9.58563L10.5171 7.68178L10.7935 8.18455C10.9135 8.40241 11.1335 8.54681 11.381 8.57009L13.2672 8.74693C13.5199 8.77048 13.7508 8.60335 13.8071 8.35584C13.87 8.07951 13.6932 7.80539 13.4154 7.74885L12.1252 7.48555C11.9412 7.44785 11.7812 7.33477 11.6845 7.17374L10.7923 5.68674C10.6479 5.44616 10.3879 5.29871 10.1072 5.29871H8.40952C7.89815 5.29871 7.47739 5.70115 7.45497 6.21196L7.24017 11.0441L5.49483 11.0438V12.6184H1.87757C1.36676 12.6184 1.23926 13.4269 1.23926 13.4269L3.92027 13.4272C1.70734 14.1506 1.62199 16.4913 1.62199 16.4913H7.79283L7.91977 16.9625C8.02066 17.3375 8.36074 17.598 8.74909 17.598H12.5934C12.9679 17.598 13.314 17.3993 13.5025 17.0758L15.8789 13.0018C16.3961 13.0018 16.8154 12.5823 16.8154 12.0654ZM9.32549 13.3848C9.40421 13.0436 10.1298 12.3872 10.675 11.9338C11.0661 11.6084 11.6634 11.7913 11.8036 12.2803C12.0079 12.9923 12.1459 13.9896 12.2136 14.5583C12.243 14.8038 12.0464 15.0164 11.7992 15.0092C9.96412 14.956 9.20714 13.8967 9.32549 13.3848Z" fill="#707F95"/>
<path d="M15.624 14.4914C13.703 15.6305 14.0919 18.0235 14.0919 18.0235L19.8796 14.8317C19.8796 14.8317 17.7518 13.2294 15.624 14.4914L15.624 14.4914Z" fill="#707F95"/>
<path d="M5.78044 16.818C5.83615 16.9344 5.86968 17.0633 5.86968 17.201C5.86968 17.6946 5.46946 18.0946 4.97608 18.0946C4.48245 18.0946 4.08248 17.6944 4.08248 17.201C4.08248 17.0633 4.11629 16.9344 4.17173 16.818H2.4112C2.39263 16.9432 2.37988 17.0705 2.37988 17.201C2.37988 18.6348 3.54205 19.7969 4.97582 19.7969C6.4096 19.7969 7.57177 18.6348 7.57177 17.201C7.57177 17.0705 7.55902 16.9432 7.54045 16.818H5.78044Z" fill="#707F95"/>
<path d="M19.6555 15.8126C19.5907 15.6992 19.5164 15.5953 19.438 15.4958L17.9105 16.3708C18.0167 16.4442 18.1101 16.5393 18.1785 16.6587C18.4238 17.087 18.2755 17.633 17.8473 17.8785C17.4191 18.1238 16.8728 17.9755 16.6275 17.5473C16.5591 17.4278 16.5244 17.2992 16.5147 17.1706L14.9873 18.0457C15.0336 18.1637 15.0857 18.2804 15.1506 18.3935C15.8634 19.6374 17.4496 20.0682 18.6936 19.3556C19.9378 18.643 20.3685 17.0565 19.6557 15.8125L19.6555 15.8126Z" fill="#707F95"/>
<path d="M1.46777 5.45742V7.94523C1.46777 8.0342 1.53983 8.10626 1.6288 8.10626H5.00525C5.09422 8.10626 5.16628 8.0342 5.16628 7.94523V6.98238L5.166 5.94963V5.45739C5.166 5.36842 5.09394 5.29636 5.00497 5.29636H1.62853C1.53983 5.29636 1.46777 5.36845 1.46777 5.45742Z" fill="#EAEAEA"/>
<path d="M0 8.56524V12.0936C0 12.2031 0.0886931 12.2918 0.198176 12.2918H4.96738C5.07687 12.2918 5.16556 12.2031 5.16556 12.0936V8.56524C5.16556 8.45576 5.07687 8.36707 4.96738 8.36707H0.19846C0.0889768 8.36707 0 8.45576 0 8.56524ZM0.947597 11.3585V11.6296C0.947597 11.659 0.923761 11.6831 0.894104 11.6831H0.753302C0.723922 11.6831 0.699809 11.6592 0.699809 11.6296V11.3585C0.699809 11.3291 0.675972 11.305 0.646316 11.305C0.605295 11.305 0.579518 11.2604 0.600029 11.2249L0.777138 10.9181C0.797648 10.8826 0.848923 10.8826 0.869713 10.9181L1.04682 11.2249C1.06733 11.2604 1.04156 11.305 1.00054 11.305C0.971433 11.3053 0.947597 11.3291 0.947597 11.3585ZM1.52438 11.3585V11.6296C1.52438 11.659 1.50054 11.6831 1.47089 11.6831H1.33008C1.3007 11.6831 1.27659 11.6592 1.27659 11.6296V11.3585C1.27659 11.3291 1.25275 11.305 1.2231 11.305C1.18208 11.305 1.1563 11.2604 1.17681 11.2249L1.35392 10.9181C1.37443 10.8826 1.42571 10.8826 1.4465 10.9181L1.6236 11.2249C1.64411 11.2604 1.61834 11.305 1.57732 11.305C1.54849 11.3053 1.52438 11.3291 1.52438 11.3585Z" fill="#EAEAEA"/>
</svg>
