<svg width="18" height="18" viewBox="0 0 18 18" fill="none" xmlns="http://www.w3.org/2000/svg">
<g clip-path="url(#clip0_216_319)">
<path d="M7.5744 2.22233C7.59668 2.21848 7.61678 2.2092 7.64022 2.2092H9.00359C8.83159 1.0687 7.91966 0.16896 6.76678 0V1.34755C6.76678 1.36997 6.75752 1.38938 6.75391 1.41081C7.14419 1.53318 7.45016 1.8355 7.5744 2.22233Z" fill="#EAEAEA"/>
<path d="M5.7934 1.49348C5.8582 1.46007 5.92576 1.43279 5.99649 1.41066C5.99273 1.38939 5.98362 1.36997 5.98362 1.34755V0C5.54198 0.064685 5.13622 0.236039 4.79297 0.487943L5.75739 1.43996C5.77345 1.45581 5.78067 1.47592 5.7934 1.49348Z" fill="#EAEAEA"/>
<path d="M6.76525 5.18987C7.92006 5.02123 8.83297 4.12176 9.00295 2.98185H7.63869C7.61583 2.98185 7.59602 2.97271 7.57417 2.96899C7.45078 3.35553 7.14397 3.65755 6.75195 3.77936C6.75586 3.80121 6.76512 3.82105 6.76512 3.84404L6.76525 5.18987Z" fill="#EAEAEA"/>
<path d="M5.9835 5.18975V3.84407C5.9835 3.82122 5.99276 3.80137 5.99666 3.77953C5.48414 3.62074 5.10689 3.15567 5.10689 2.59875C5.10689 2.38913 5.16432 2.19448 5.25705 2.02099C5.23954 2.00871 5.21973 2.00171 5.20396 1.98615L4.23983 1.03442C3.91103 1.47196 3.71387 2.01199 3.71387 2.59874C3.71401 3.91558 4.70156 5.0027 5.9835 5.18975Z" fill="#EAEAEA"/>
<path d="M13.0348 17.3533H11.317C10.5736 16.6001 10.3232 15.874 10.5266 15.1787H7.47467C7.6782 15.874 7.42375 16.5962 6.68426 17.3533H4.96257C4.74732 17.3533 4.57129 17.5271 4.57129 17.7396C4.57129 17.952 4.74734 18.1258 4.96257 18.1258H13.0348C13.2539 18.1258 13.4261 17.952 13.4261 17.7396C13.4262 17.5271 13.2541 17.3533 13.0349 17.3533H13.0348Z" fill="#707F95"/>
<path d="M0.000148046 12.9732C0.000148046 13.7653 0.650651 14.4076 1.45321 14.4076H16.546C17.3485 14.4076 17.999 13.7655 17.999 12.9732V11.9702H0L0.000148046 12.9732ZM10.7316 12.8027C10.9479 12.8027 11.1248 12.9757 11.1248 13.189C11.1248 13.4023 10.9521 13.5752 10.7358 13.5752H10.7316C10.5154 13.5752 10.3403 13.4023 10.3403 13.189C10.3403 12.9758 10.5154 12.8027 10.7316 12.8027ZM8.99751 12.8027C9.21376 12.8027 9.39067 12.9757 9.39067 13.189C9.39067 13.4023 9.21795 13.5752 9.00169 13.5752H8.9975C8.78124 13.5752 8.60622 13.4023 8.60622 13.189C8.60636 12.9758 8.78126 12.8027 8.99751 12.8027ZM7.26352 12.8027C7.47978 12.8027 7.65669 12.9757 7.65669 13.189C7.65669 13.4023 7.48397 13.5752 7.26771 13.5752H7.26351C7.04725 13.5752 6.87223 13.4023 6.87223 13.189C6.87223 12.9758 7.04728 12.8027 7.26352 12.8027Z" fill="#707F95"/>
<path d="M16.5482 1.81079H9.72429C9.78693 2.06183 9.81818 2.32827 9.81818 2.59875C9.81818 4.47207 8.27268 5.99384 6.37495 5.99384C4.47721 5.99384 2.93171 4.47207 2.93171 2.59875C2.93171 2.32844 2.96296 2.06182 3.0256 1.81079H1.45652C0.654405 1.81079 0.000976562 2.45581 0.000976562 3.24761V11.1966H18V3.24761C18 2.45581 17.3503 1.81079 16.5482 1.81079H16.5482ZM12.6157 3.294H16.4974V6.36466H12.6157V3.294ZM9.43852 7.02887L8.36648 8.07557C8.42912 8.2108 8.46427 8.3653 8.46427 8.52367C8.46427 9.13396 7.96348 9.62834 7.3452 9.62834C6.73084 9.62834 6.22613 9.134 6.22613 8.52367V8.46955L5.22438 8.04473C5.02099 8.25336 4.7353 8.38073 4.42227 8.38073C4.28528 8.38073 4.15234 8.3576 4.03099 8.31119L3.20932 9.24592C3.2993 9.40427 3.34631 9.58191 3.34631 9.77125C3.34631 10.3815 2.8416 10.8759 2.22724 10.8759C1.60899 10.8759 1.10817 10.3816 1.10817 9.77125C1.10817 9.1648 1.60896 8.67046 2.22724 8.67046C2.36423 8.67046 2.49326 8.69359 2.61463 8.74L3.44019 7.80527V7.80142C3.35412 7.64691 3.3032 7.46542 3.3032 7.27608C3.3032 6.66962 3.80398 6.17528 4.42227 6.17528C5.04051 6.17528 5.54133 6.66962 5.54133 7.27608C5.54133 7.29536 5.54133 7.31863 5.53743 7.33791L6.53918 7.76272C6.74257 7.5541 7.03215 7.42287 7.34522 7.42287C7.51345 7.42287 7.66997 7.45771 7.81086 7.52325L8.88682 6.48043C8.82418 6.34135 8.78903 6.1907 8.78903 6.03233C8.78903 5.42204 9.28982 4.92766 9.9081 4.92766C10.5225 4.92766 11.0272 5.422 11.0272 6.03233C11.0272 6.63879 10.5225 7.13313 9.9081 7.13313C9.73986 7.13313 9.57942 7.09842 9.43852 7.02887ZM16.4972 10.876H10.3699C10.1507 10.876 9.97859 10.7022 9.97859 10.4897C9.97859 10.2773 10.1507 10.1035 10.3699 10.1035H16.4972C16.7124 10.1035 16.8885 10.2773 16.8885 10.4897C16.8885 10.7022 16.7124 10.876 16.4972 10.876ZM16.4972 9.50087H11.4927C11.2774 9.50087 11.1014 9.32709 11.1014 9.11462C11.1014 8.90216 11.2774 8.72838 11.4927 8.72838H16.4972C16.7124 8.72838 16.8885 8.90216 16.8885 9.11462C16.8885 9.32709 16.7124 9.50087 16.4972 9.50087ZM16.4972 8.12591H12.6196C12.4004 8.12591 12.2283 7.95212 12.2283 7.73966C12.2283 7.52719 12.4004 7.35341 12.6196 7.35341H16.4972C16.7124 7.35341 16.8885 7.52719 16.8885 7.73966C16.8885 7.95212 16.7124 8.12591 16.4972 8.12591Z" fill="#707F95"/>
</g>
<defs>
<clipPath id="clip0_216_319">
<rect width="18" height="18" fill="white"/>
</clipPath>
</defs>
</svg>
