<svg width="89" height="89" viewBox="0 0 89 89" fill="none" xmlns="http://www.w3.org/2000/svg">
<path d="M66.75 89C68.2253 89 69.6401 88.414 70.6833 87.3708C71.7265 86.3276 72.3125 84.9128 72.3125 83.4375V5.5625C72.3125 4.08723 71.7265 2.67239 70.6833 1.62922C69.6401 0.586048 68.2253 0 66.75 0L27.8125 0C26.3372 0 24.9224 0.586048 23.8792 1.62922C22.836 2.67239 22.25 4.08723 22.25 5.5625V83.4375C22.25 84.9128 22.836 86.3276 23.8792 87.3708C24.9224 88.414 26.3372 89 27.8125 89H66.75ZM44.5 80.3114C44.4875 79.8932 44.5591 79.4767 44.7105 79.0867C44.862 78.6967 45.0901 78.3411 45.3815 78.0408C45.6729 77.7406 46.0216 77.502 46.4069 77.339C46.7922 77.176 47.2064 77.092 47.6247 77.092C48.0431 77.092 48.4572 77.176 48.8426 77.339C49.2279 77.502 49.5766 77.7406 49.868 78.0408C50.1594 78.3411 50.3875 78.6967 50.5389 79.0867C50.6904 79.4767 50.7619 79.8932 50.7495 80.3114C50.7252 81.124 50.3854 81.8952 49.802 82.4614C49.2187 83.0276 48.4377 83.3443 47.6247 83.3443C46.8118 83.3443 46.0308 83.0276 45.4474 82.4614C44.8641 81.8952 44.5242 81.124 44.5 80.3114ZM58.4062 5.5625C59.1439 5.5625 59.8513 5.85552 60.3729 6.37711C60.8945 6.89869 61.1875 7.60612 61.1875 8.34375C61.1875 9.08138 60.8945 9.78881 60.3729 10.3104C59.8513 10.832 59.1439 11.125 58.4062 11.125H52.8438C52.1061 11.125 51.3987 10.832 50.8771 10.3104C50.3555 9.78881 50.0625 9.08138 50.0625 8.34375C50.0625 7.60612 50.3555 6.89869 50.8771 6.37711C51.3987 5.85552 52.1061 5.5625 52.8438 5.5625H58.4062ZM44.5 8.34375C44.5 9.08138 44.207 9.78881 43.6854 10.3104C43.1638 10.832 42.4564 11.125 41.7188 11.125C40.9811 11.125 40.2737 10.832 39.7521 10.3104C39.2305 9.78881 38.9375 9.08138 38.9375 8.34375C38.9375 7.60612 39.2305 6.89869 39.7521 6.37711C40.2737 5.85552 40.9811 5.5625 41.7188 5.5625C42.4564 5.5625 43.1638 5.85552 43.6854 6.37711C44.207 6.89869 44.5 7.60612 44.5 8.34375ZM27.8125 16.6875H66.75V72.3125H27.8125V16.6875Z" fill="#14467B"/>
</svg>
