<svg width="20" height="20" viewBox="0 0 20 20" fill="none" xmlns="http://www.w3.org/2000/svg">
<path d="M9.40322 9.60528C10.677 9.60528 11.8985 9.09915 12.7992 8.19864C13.6998 7.29788 14.2059 6.07637 14.2059 4.80264C14.2059 3.5289 13.6997 2.30735 12.7992 1.40664C11.8985 0.506082 10.677 0 9.40322 0C8.12949 0 6.90794 0.506132 6.00723 1.40664C5.10667 2.3074 4.60059 3.5289 4.60059 4.80264C4.60059 6.07637 5.10672 7.29793 6.00723 8.19864C6.90799 9.0992 8.12949 9.60528 9.40322 9.60528ZM9.40322 0.838148V0.837953C10.4546 0.837953 11.4631 1.25578 12.2066 1.99924C12.95 2.74269 13.3677 3.75102 13.3677 4.80244C13.3677 5.85387 12.95 6.86234 12.2066 7.6058C11.4631 8.34926 10.4546 8.76688 9.40322 8.76688C8.35185 8.76688 7.34333 8.34925 6.59987 7.6058C5.85641 6.86235 5.43878 5.85382 5.43878 4.80244C5.43956 3.75107 5.85739 2.74274 6.60067 1.99909C7.34393 1.25523 8.3519 0.836806 9.40327 0.835259L9.40322 0.838148Z" fill="#EAEAEA"/>
<path d="M9.40374 9.82581C7.44088 9.82814 5.55894 10.6088 4.1708 11.9968C2.78287 13.3847 2.00215 15.2665 2 17.2297C2 17.4611 2.18748 17.6487 2.41899 17.6487C2.65051 17.6487 2.83799 17.4611 2.83799 17.2297C2.83916 16.0328 3.16715 14.859 3.78649 13.8349C4.40582 12.8108 5.29311 11.9752 6.35272 11.4185C6.89078 12.3571 7.80691 13.0187 8.86707 13.2344V14.5113C8.86707 15.4584 8.83627 17.2213 9.90073 18.2774H9.90093C10.4661 18.8063 11.2084 19.1051 11.9823 19.1154C12.0976 19.4938 12.3855 19.7951 12.7583 19.9278C13.1309 20.0604 13.5445 20.0085 13.8729 19.7881C14.2014 19.5677 14.4059 19.2046 14.4244 18.8094C14.4429 18.4142 14.273 18.0338 13.9664 17.7836C13.6599 17.5336 13.2531 17.4435 12.8696 17.5408C12.4863 17.6382 12.1716 17.9114 12.0215 18.2774C11.4548 18.2755 10.9095 18.0611 10.4932 17.6766C9.68312 16.8776 9.68312 15.4025 9.69989 14.5168V13.3183H9.94583H9.94563C11.0995 13.2156 12.1425 12.5896 12.7759 11.6197C14.7491 12.8015 15.9604 14.9296 15.9692 17.2298C15.9692 17.4611 16.1567 17.6488 16.3882 17.6488C16.6197 17.6488 16.8072 17.4611 16.8072 17.2298C16.8051 15.2667 16.0244 13.385 14.6364 11.9969C13.2485 10.6089 11.3665 9.8282 9.40347 9.82585L9.40374 9.82581ZM13.1755 18.347C13.3404 18.348 13.4893 18.4458 13.5561 18.5966C13.6228 18.7475 13.5947 18.9234 13.4846 19.046C13.3743 19.1688 13.2024 19.2154 13.0453 19.1653C12.8881 19.115 12.775 18.9774 12.7563 18.8135C12.7661 18.7771 12.7707 18.7395 12.7703 18.7019V18.66C12.8185 18.4756 12.9849 18.3472 13.1755 18.347ZM9.87305 12.4605C9.3299 12.5071 8.78446 12.4008 8.29823 12.1541C7.812 11.9072 7.40431 11.5295 7.12113 11.0636C8.71217 10.4737 10.4698 10.5238 12.0244 11.2033C11.529 11.9203 10.741 12.3808 9.87305 12.4605Z" fill="#707F95"/>
<path d="M6.88877 15.5532H6.3776V15.0223H6.3774C6.37974 14.9096 6.33609 14.8011 6.25638 14.7214C6.17687 14.6419 6.06813 14.5982 5.95549 14.6004C5.84285 14.6054 5.73683 14.6557 5.66161 14.7399C5.58658 14.8239 5.54838 14.9348 5.55598 15.0474V15.5532H5.05884C4.82732 15.5532 4.63965 15.7408 4.63965 15.9721C4.63965 16.2037 4.82732 16.3913 5.05884 16.3913H5.55053V16.8411C5.55053 17.1428 5.70974 17.3355 5.95569 17.3412C6.20163 17.3468 6.36923 17.1484 6.37468 16.8522V16.3913H6.65414H6.90281H6.90262C7.13725 16.3913 7.32726 16.2011 7.32726 15.9667C7.3259 15.853 7.27854 15.7447 7.19572 15.6667C7.11309 15.5888 7.00219 15.5479 6.88877 15.5532Z" fill="#EAEAEA"/>
</svg>
