<svg width="20" height="20" viewBox="0 0 20 20" fill="none" xmlns="http://www.w3.org/2000/svg">
<g clip-path="url(#clip0_225_2178)">
<path d="M9.22224 0C8.71986 0 8.25482 0.162293 7.93054 0.486109C7.70686 0.709323 7.59107 1.01035 7.52086 1.33341H6.55546C6.19382 1.33341 5.88892 1.63831 5.88892 1.99995V2.66666H4.77781C3.80047 2.66666 3 3.46729 3 4.44447V18.2222C3 19.1994 3.80047 20 4.77781 20H15.4444C16.4218 20 17.2222 19.1994 17.2222 18.2222V4.44447C17.2222 3.46729 16.4218 2.66666 15.4444 2.66666H14.3333V1.99995C14.3333 1.63831 14.0284 1.33341 13.6668 1.33341H12.7014C12.6305 1.01052 12.5082 0.709957 12.2847 0.486109C11.9615 0.162293 11.5024 0 11 0H9.22224ZM9.22224 0.888806H10.9999C11.3155 0.888806 11.5215 0.979643 11.6596 1.11806C11.7979 1.25649 11.8878 1.46125 11.8889 1.77778C11.8889 2.02316 12.0879 2.22219 12.3333 2.22219H13.4444V4H6.77773V2.22219H7.88884C8.00789 2.22219 8.12198 2.17444 8.20553 2.0895C8.28908 2.00471 8.33511 1.88985 8.33326 1.7708C8.33217 1.45613 8.42378 1.25648 8.56251 1.11806C8.70109 0.979639 8.90664 0.888806 9.22224 0.888806ZM4.77781 3.55558H5.88892V4.22213C5.88892 4.58376 6.19382 4.88883 6.55546 4.88883H13.6665C14.0282 4.88883 14.3331 4.58377 14.3331 4.22213V3.55558H15.4442C15.9444 3.55558 16.3332 3.94434 16.3332 4.44439V18.2221C16.3332 18.7223 15.9444 19.1111 15.4442 19.1111H4.77757C4.27738 19.1111 3.88861 18.7223 3.88861 18.2221V4.44439C3.88861 3.94431 4.27761 3.55558 4.77781 3.55558ZM6.11106 6.2222C5.50265 6.2222 4.99995 6.72489 4.99995 7.3333C4.99995 7.94171 5.50265 8.44441 6.11106 8.44441C6.71947 8.44441 7.22217 7.94171 7.22217 7.3333C7.22217 6.72489 6.71947 6.2222 6.11106 6.2222ZM8.77768 6.8889C8.5323 6.8889 8.33327 7.08778 8.33327 7.3333C8.33327 7.57868 8.5323 7.77771 8.77768 7.77771H14.7776C15.023 7.77771 15.2221 7.57868 15.2221 7.3333C15.2221 7.08777 15.023 6.8889 14.7776 6.8889H8.77768ZM6.11106 7.11103C6.2391 7.11103 6.33334 7.20528 6.33334 7.33332C6.33334 7.46135 6.2391 7.55545 6.11106 7.55545C5.98302 7.55545 5.88893 7.46135 5.88893 7.33332C5.88893 7.20528 5.98302 7.11103 6.11106 7.11103ZM6.11106 9.33324C5.50265 9.33324 4.99995 9.83594 4.99995 10.4444C4.99995 11.0528 5.50265 11.5555 6.11106 11.5555C6.71947 11.5555 7.22217 11.0528 7.22217 10.4444C7.22217 9.83594 6.71947 9.33324 6.11106 9.33324ZM8.77768 9.99995C8.5323 9.99995 8.33327 10.199 8.33327 10.4444C8.33327 10.6899 8.5323 10.8888 8.77768 10.8888H14.7776C15.023 10.8888 15.2221 10.6899 15.2221 10.4444C15.2221 10.199 15.023 9.99995 14.7776 9.99995H8.77768ZM6.11106 10.2222C6.2391 10.2222 6.33334 10.3163 6.33334 10.4444C6.33334 10.5724 6.2391 10.6666 6.11106 10.6666C5.98302 10.6666 5.88893 10.5724 5.88893 10.4444C5.88893 10.3163 5.98302 10.2222 6.11106 10.2222ZM6.11106 12.4444C5.50265 12.4444 4.99995 12.9471 4.99995 13.5556C4.99995 14.1638 5.50265 14.6667 6.11106 14.6667C6.71947 14.6667 7.22217 14.1638 7.22217 13.5556C7.22217 12.9471 6.71947 12.4444 6.11106 12.4444ZM8.77768 13.111C8.5323 13.111 8.33327 13.31 8.33327 13.5556C8.33327 13.8009 8.5323 14 8.77768 14H14.7776C15.023 14 15.2221 13.8009 15.2221 13.5556C15.2221 13.31 15.023 13.111 14.7776 13.111H8.77768ZM6.11106 13.3333C6.2391 13.3333 6.33334 13.4275 6.33334 13.5556C6.33334 13.6834 6.2391 13.7777 6.11106 13.7777C5.98302 13.7777 5.88893 13.6834 5.88893 13.5556C5.88893 13.4275 5.98302 13.3333 6.11106 13.3333ZM6.11106 15.5555C5.50265 15.5555 4.99995 16.0582 4.99995 16.6666C4.99995 17.275 5.50265 17.7777 6.11106 17.7777C6.71947 17.7777 7.22217 17.275 7.22217 16.6666C7.22217 16.0582 6.71947 15.5555 6.11106 15.5555ZM8.77768 16.2222C8.5323 16.2222 8.33327 16.4211 8.33327 16.6666C8.33327 16.9121 8.5323 17.111 8.77768 17.111H14.7776C15.023 17.111 15.2221 16.9121 15.2221 16.6666C15.2221 16.4211 15.023 16.2222 14.7776 16.2222H8.77768ZM6.11106 16.4443C6.2391 16.4443 6.33334 16.5386 6.33334 16.6666C6.33334 16.7946 6.2391 16.8889 6.11106 16.8889C5.98302 16.8889 5.88893 16.7946 5.88893 16.6666C5.88893 16.5386 5.98302 16.4443 6.11106 16.4443Z" fill="#707F95"/>
<circle cx="6.07115" cy="7.14287" r="1.42857" fill="#EAEAEA"/>
<circle cx="6.07115" cy="10.3571" r="1.42857" fill="#EAEAEA"/>
<circle cx="6.07115" cy="13.5714" r="1.42857" fill="#EAEAEA"/>
<circle cx="6.07115" cy="16.7857" r="1.42857" fill="#EAEAEA"/>
</g>
<defs>
<clipPath id="clip0_225_2178">
<rect width="20" height="20" fill="white"/>
</clipPath>
</defs>
</svg>
