<svg width="20" height="20" viewBox="0 0 20 20" fill="none" xmlns="http://www.w3.org/2000/svg">
<path d="M15.8785 0H4.01603C3.77405 0.000279018 3.54212 0.0991892 3.37102 0.274832C3.20006 0.450614 3.10379 0.688903 3.10352 0.93751V19.0625C3.10379 19.3111 3.20006 19.5494 3.37102 19.7252C3.54211 19.9008 3.77405 19.9997 4.01603 20H15.8785C16.1205 19.9997 16.3524 19.9008 16.5235 19.7252C16.6945 19.5494 16.7908 19.3111 16.791 19.0625V0.93751C16.7908 0.688906 16.6945 0.450617 16.5235 0.274832C16.3524 0.0991892 16.1205 0.000278571 15.8785 0ZM16.1827 19.0625C16.1824 19.2349 16.0464 19.3747 15.8785 19.375H4.01603C3.84819 19.3747 3.71213 19.2349 3.71186 19.0625V0.937499C3.71213 0.765067 3.84819 0.625278 4.01603 0.624999H15.8785C16.0464 0.625278 16.1824 0.765067 16.1827 0.937499V19.0625Z" fill="#707F95"/>
<path d="M14.832 3.2352L14.1292 3.59011L13.992 3.40401L13.9922 3.40387C13.8905 3.26729 13.7005 3.24065 13.5669 3.34444C13.4334 3.44837 13.4067 3.64341 13.5071 3.78112L13.7957 4.17301C13.8844 4.29131 14.0416 4.32968 14.1725 4.26481L15.1006 3.79606C15.2513 3.71988 15.3134 3.53266 15.2393 3.37766C15.1651 3.22281 14.9828 3.15903 14.832 3.2352Z" fill="#EAEAEA"/>
<path d="M12.2292 2.8125H4.92917C4.7612 2.8125 4.625 2.95243 4.625 3.125C4.625 3.29757 4.7612 3.4375 4.92917 3.4375H12.2292C12.3971 3.4375 12.5333 3.29757 12.5333 3.125C12.5333 2.95243 12.3971 2.8125 12.2292 2.8125Z" fill="#707F95"/>
<path d="M12.2292 4.0625H4.92917C4.7612 4.0625 4.625 4.20243 4.625 4.375C4.625 4.54757 4.7612 4.6875 4.92917 4.6875H12.2292C12.3971 4.6875 12.5333 4.54757 12.5333 4.375C12.5333 4.20243 12.3971 4.0625 12.2292 4.0625Z" fill="#707F95"/>
<path d="M14.832 6.36039L14.1292 6.7153L13.992 6.52919L13.9922 6.52905C13.8905 6.39248 13.7005 6.36583 13.5669 6.46962C13.4334 6.57356 13.4067 6.76859 13.5071 6.9063L13.7957 7.29819C13.8846 7.41594 14.0415 7.45416 14.1725 7.38999L15.1006 6.92124C15.2513 6.84507 15.3134 6.65785 15.2393 6.50285C15.1651 6.34799 14.9828 6.28422 14.832 6.36039Z" fill="#EAEAEA"/>
<path d="M12.2292 5.9375H4.92917C4.7612 5.9375 4.625 6.07743 4.625 6.25C4.625 6.42257 4.7612 6.5625 4.92917 6.5625H12.2292C12.3971 6.5625 12.5333 6.42257 12.5333 6.25C12.5333 6.07743 12.3971 5.9375 12.2292 5.9375Z" fill="#707F95"/>
<path d="M12.2292 7.1875H4.92917C4.7612 7.1875 4.625 7.32743 4.625 7.5C4.625 7.67257 4.7612 7.8125 4.92917 7.8125H12.2292C12.3971 7.8125 12.5333 7.67257 12.5333 7.5C12.5333 7.32743 12.3971 7.1875 12.2292 7.1875Z" fill="#707F95"/>
<path d="M14.832 9.48533L14.1292 9.84024L13.992 9.65413L13.9922 9.65399C13.8905 9.51741 13.7005 9.49077 13.5669 9.59456C13.4334 9.6985 13.4067 9.89353 13.5071 10.0312L13.7957 10.4231C13.8844 10.5414 14.0416 10.5798 14.1725 10.5149L15.1006 10.0462C15.2513 9.97001 15.3134 9.78279 15.2393 9.62779C15.1651 9.47293 14.9828 9.40915 14.832 9.48533Z" fill="#EAEAEA"/>
<path d="M12.2292 9.06244H4.92917C4.7612 9.06244 4.625 9.20237 4.625 9.37494C4.625 9.54751 4.7612 9.68744 4.92917 9.68744H12.2292C12.3971 9.68744 12.5333 9.54751 12.5333 9.37494C12.5333 9.20237 12.3971 9.06244 12.2292 9.06244Z" fill="#707F95"/>
<path d="M12.2292 10.3125H4.92917C4.7612 10.3125 4.625 10.4524 4.625 10.625C4.625 10.7976 4.7612 10.9375 4.92917 10.9375H12.2292C12.3971 10.9375 12.5333 10.7976 12.5333 10.625C12.5333 10.4524 12.3971 10.3125 12.2292 10.3125Z" fill="#707F95"/>
<path d="M14.832 12.6104L14.1292 12.9653L13.992 12.7792L13.9922 12.779C13.8905 12.6424 13.7005 12.6158 13.5669 12.7196C13.4334 12.8235 13.4067 13.0186 13.5071 13.1563L13.7957 13.5482C13.8842 13.6666 14.0416 13.7048 14.1725 13.64L15.1006 13.1712C15.2513 13.095 15.3134 12.9078 15.2393 12.7528C15.1651 12.598 14.9828 12.5342 14.832 12.6104Z" fill="#EAEAEA"/>
<path d="M12.2292 12.1875H4.92917C4.7612 12.1875 4.625 12.3274 4.625 12.5C4.625 12.6725 4.7612 12.8125 4.92917 12.8125H12.2292C12.3971 12.8125 12.5333 12.6725 12.5333 12.5C12.5333 12.3274 12.3971 12.1875 12.2292 12.1875Z" fill="#707F95"/>
<path d="M12.2292 13.4375H4.92917C4.7612 13.4375 4.625 13.5774 4.625 13.75C4.625 13.9226 4.7612 14.0625 4.92917 14.0625H12.2292C12.3971 14.0625 12.5333 13.9226 12.5333 13.75C12.5333 13.5774 12.3971 13.4375 12.2292 13.4375Z" fill="#707F95"/>
<path d="M14.832 15.7353L14.1292 16.0902L13.992 15.9041L13.9922 15.904C13.8905 15.7674 13.7005 15.7408 13.5669 15.8446C13.4334 15.9485 13.4067 16.1435 13.5071 16.2812L13.7957 16.6731C13.8845 16.791 14.0415 16.8294 14.1725 16.7649L15.1006 16.2962C15.2513 16.22 15.3134 16.0328 15.2393 15.8778C15.1651 15.7229 14.9828 15.6592 14.832 15.7353Z" fill="#EAEAEA"/>
<path d="M12.2292 15.3125H4.92917C4.7612 15.3125 4.625 15.4524 4.625 15.625C4.625 15.7975 4.7612 15.9375 4.92917 15.9375H12.2292C12.3971 15.9375 12.5333 15.7975 12.5333 15.625C12.5333 15.4524 12.3971 15.3125 12.2292 15.3125Z" fill="#707F95"/>
<path d="M12.2292 16.5625H4.92917C4.7612 16.5625 4.625 16.7024 4.625 16.875C4.625 17.0475 4.7612 17.1875 4.92917 17.1875H12.2292C12.3971 17.1875 12.5333 17.0475 12.5333 16.875C12.5333 16.7024 12.3971 16.5625 12.2292 16.5625Z" fill="#707F95"/>
</svg>
