<svg width="20" height="20" viewBox="0 0 20 20" fill="none" xmlns="http://www.w3.org/2000/svg">
<g clip-path="url(#clip0_225_1551)">
<path d="M0.5 4.58333V3.74999H4.08337V0.416748H4.91656V4.5833L0.5 4.58333Z" fill="#707F95"/>
<path d="M14.5831 19.9999H0V3.99991L1.83326 1.87497L3.54166 0H14.9998V12.5L14.6248 12.5417C12.9581 12.7083 11.6665 14.125 11.6665 15.8333C11.6665 17.5415 12.9581 18.9583 14.6248 19.125L14.9998 19.1665V19.9582L14.5831 19.9999ZM0.833387 19.1665H12.5C11.5 18.4166 10.8333 17.2081 10.8333 15.8333C10.8333 13.8333 12.2501 12.1249 14.1666 11.7499V0.833464H3.91676L2.45849 2.41674L0.833503 4.29171L0.833387 19.1665Z" fill="#707F95"/>
<path d="M14.9996 19.9998C14.8329 19.9998 14.7079 19.9998 14.5412 19.9581C12.4163 19.7499 10.833 17.9582 10.833 15.8334C10.833 13.7085 12.4163 11.9168 14.5414 11.7082C14.7081 11.7082 14.8331 11.6665 14.9998 11.6665C17.2914 11.6665 19.1663 13.5415 19.1663 15.8331C19.1662 18.1248 17.2912 20 14.9994 20L14.9996 19.9998ZM14.9996 12.5001C14.8746 12.5001 14.7497 12.5001 14.6247 12.5418C12.958 12.7084 11.6664 14.1251 11.6664 15.8334C11.6664 17.5416 12.958 18.9584 14.6247 19.1251C14.7497 19.1251 14.8746 19.1668 14.9996 19.1668C16.8329 19.1668 18.3329 17.6668 18.3329 15.8335C18.3329 14 16.8329 12.5001 14.9996 12.5001Z" fill="#707F95"/>
<path d="M3.33398 5.83337H12.8758V6.66672H3.33398V5.83337Z" fill="#EAEAEA"/>
<path d="M3.33398 7.9165H12.8758V8.74985H3.33398V7.9165Z" fill="#EAEAEA"/>
<path d="M3.33398 10H12.8758V10.8333H3.33398V10Z" fill="#EAEAEA"/>
<path d="M3.33398 12.0835H11.2508V12.9168H3.33398V12.0835Z" fill="#EAEAEA"/>
<path d="M3.33398 14.1665H10.4174V14.9999H3.33398V14.1665Z" fill="#EAEAEA"/>
<path d="M13.7496 17.875L12.458 16L13.1246 15.4999L13.9163 16.6667L16.958 14.1251L17.4996 14.75L13.7496 17.875Z" fill="#EAEAEA"/>
</g>
<defs>
<clipPath id="clip0_225_1551">
<rect width="20" height="20" fill="white"/>
</clipPath>
</defs>
</svg>
