<svg width="20" height="20" viewBox="0 0 20 20" fill="none" xmlns="http://www.w3.org/2000/svg">
<g clip-path="url(#clip0_236_74)">
<path d="M15.1517 13.4877H15.0017V13.4906H1.85238C0.913414 13.4906 0.15 12.7272 0.15 11.7883V1.85238C0.15 0.91676 0.913181 0.152903 1.85261 0.15H15.1517C16.0907 0.15 16.8541 0.913447 16.8541 1.85238V11.7853C16.8541 12.7243 16.0906 13.4877 15.1517 13.4877ZM1.8519 13.1639H1.8526H15.1515C15.9117 13.1639 16.5271 12.5448 16.5271 11.7884V1.85249C16.5271 1.09235 15.908 0.476953 15.1515 0.476953H1.8526C1.09246 0.476953 0.477064 1.09603 0.477064 1.85249V11.7884C0.477064 12.5455 1.09311 13.1603 1.8519 13.1639Z" stroke="#14467B" stroke-width="0.3"/>
<path d="M1.27219 18.912H15.7277H15.7278C16.0408 18.912 16.2956 19.1653 16.2957 19.4766C16.2957 19.4766 16.2957 19.4766 16.2957 19.4767V19.85H0.707617V19.4766C0.707617 19.1646 0.960122 18.912 1.27219 18.912Z" stroke="#14467B" stroke-width="0.3"/>
<path d="M8.228 5.97362C8.2033 5.96457 8.17795 5.95638 8.15247 5.94814C8.08089 5.92502 8.00826 5.90155 7.9459 5.85761C7.83609 5.77925 7.77029 5.60378 7.93017 5.5097C7.97721 5.48142 8.03681 5.46901 8.09323 5.47521C8.35961 5.5035 8.62295 5.57233 8.87057 5.67896L5.46367 7.40894C5.22859 6.9576 5.29123 6.36825 5.6172 5.9765C5.94317 5.58473 6.51042 5.41229 6.99627 5.55962C7.4257 5.68821 7.75788 6.01417 7.86451 6.44043C7.90203 6.58776 8.08703 6.63163 8.18731 6.52196M8.228 5.97362C8.30015 5.99873 8.37533 6.03625 8.42541 6.09267C8.45051 6.12081 8.44734 6.16785 8.4192 6.19296C8.36998 6.24026 8.33333 6.3024 8.29686 6.36423C8.27293 6.4048 8.24907 6.44524 8.2218 6.48127C8.21242 6.49382 8.19987 6.5094 8.18731 6.52196M8.228 5.97362L8.2773 5.83196C8.27769 5.83209 8.27809 5.83223 8.27848 5.83236M8.228 5.97362L8.27963 5.83279C8.27924 5.83264 8.27886 5.8325 8.27848 5.83236M8.18731 6.52196L8.29338 6.62802C8.29417 6.62723 8.29495 6.62645 8.29572 6.62566M8.18731 6.52196L8.29801 6.62318C8.29725 6.62401 8.29649 6.62484 8.29572 6.62566M8.29572 6.62566C8.31438 6.60666 8.33076 6.58601 8.34168 6.57143M8.29572 6.62566C8.11543 6.81912 7.7862 6.74074 7.71915 6.47745L7.719 6.47683C7.62632 6.10636 7.33652 5.81809 6.95324 5.70332L6.95274 5.70317C6.52524 5.57353 6.02034 5.7265 5.73251 6.07243L5.73251 6.07244C5.44527 6.41765 5.38951 6.94184 5.59671 7.33964L5.59772 7.34159L5.59771 7.3416C5.79832 7.74091 6.25708 7.99487 6.70519 7.95885L6.72521 7.95724M8.34168 6.57143L6.70581 7.95887C6.71229 7.95838 6.71876 7.95783 6.72521 7.95724M8.34168 6.57143C8.37465 6.52781 8.4042 6.47763 8.4283 6.4367C8.43396 6.42708 8.43932 6.41798 8.44436 6.40958C8.47378 6.36055 8.4971 6.3265 8.52195 6.30226C8.60777 6.22284 8.61794 6.08336 8.5375 5.993C8.46262 5.90867 8.3595 5.86068 8.27848 5.83236M8.34168 6.57143L10.0099 6.04916C10.0272 6.18744 10.0437 6.32648 10.0601 6.46496L10.0601 6.46536C10.0766 6.60415 10.093 6.74237 10.1102 6.87968L10.154 7.23032L9.87132 7.0183C9.59613 6.81191 9.21669 6.74568 8.88996 6.84718L8.74252 6.59483C8.85269 6.49087 8.95248 6.38361 9.00624 6.27422C9.05569 6.17358 9.06281 6.08056 9.00186 5.97822L9.00179 5.9781C8.95967 5.90721 8.8917 5.84985 8.8135 5.81768L8.81123 5.81675L8.81124 5.81673C8.57747 5.71606 8.32879 5.65107 8.07739 5.62438L8.07683 5.62432C8.05129 5.62151 8.02488 5.62778 8.00746 5.63826L8.00625 5.63898L8.00625 5.63898C7.997 5.64442 7.9918 5.64902 7.98907 5.65188C7.98643 5.65466 7.98558 5.65634 7.98536 5.6568L7.98535 5.65683C7.9852 5.65712 7.98402 5.65945 7.98511 5.66646C7.98638 5.67459 7.99056 5.68678 7.9998 5.70075C8.00888 5.7145 8.02065 5.72661 8.03271 5.73528C8.05888 5.75364 8.09128 5.76855 8.13391 5.7838C8.15454 5.79118 8.17566 5.798 8.19935 5.80566L8.20225 5.80659C8.22591 5.81424 8.25223 5.82277 8.27848 5.83236M6.72521 7.95724C6.82692 7.9479 6.92541 7.9267 7.03304 7.90354C7.07978 7.89348 7.12823 7.88305 7.17942 7.87307C7.34643 7.84048 7.53334 7.81551 7.72483 7.85862M6.72521 7.95724L7.72483 7.85862M7.72483 7.85862C7.89648 7.89706 8.05206 7.98782 8.1831 8.06425C8.21202 8.08112 8.23973 8.09729 8.26617 8.11205C8.78157 8.39631 9.39891 8.50008 9.97944 8.39945L9.98013 8.39933C10.2107 8.36048 10.4205 8.28881 10.5674 8.15216L10.5676 8.1519C10.7394 7.99293 10.8268 7.74274 10.8268 7.48781C10.8268 7.18613 10.7194 6.88484 10.5866 6.58815C10.5533 6.517 10.533 6.43429 10.5422 6.34617C10.5497 6.24398 10.5796 6.15771 10.634 6.08801C10.6879 6.0188 10.7564 5.97832 10.8186 5.95145C10.8668 5.93064 10.9201 5.91463 10.9633 5.90167C10.9729 5.8988 10.9819 5.89609 10.9903 5.8935C11.0425 5.87742 11.0796 5.86364 11.1087 5.8459L11.1093 5.84555C11.1947 5.79399 11.2344 5.66361 11.1921 5.57394L11.1914 5.57246L11.1914 5.57246C11.172 5.52993 11.1332 5.49331 11.0847 5.47184C11.0777 5.57668 11.0256 5.67862 10.9478 5.74391L10.947 5.74465L10.947 5.74465C10.8083 5.85935 10.6275 5.86373 10.5011 5.85378L10.501 5.85378C10.4512 5.84985 10.3999 5.84222 10.3551 5.83557C10.341 5.83347 10.3275 5.83146 10.315 5.8297C10.2584 5.82179 10.2112 5.81722 10.1665 5.81955C10.0792 5.82411 10.0234 5.86669 10.0097 5.90093L10.0093 5.90188L7.72483 7.85862ZM7.72483 7.85862C7.72479 7.85861 7.72476 7.8586 7.72473 7.8586L7.69198 8.00489L7.72493 7.85864C7.72489 7.85863 7.72486 7.85863 7.72483 7.85862ZM6.80125 6.73293C6.79981 6.47887 6.59223 6.27218 6.33784 6.27218C6.08369 6.27218 5.87442 6.47631 5.87442 6.7356C5.87442 7.2447 6.28949 7.65976 6.79858 7.65976C7.05386 7.65976 7.262 7.45162 7.262 7.19634C7.262 6.94195 7.05531 6.73438 6.80125 6.73293Z" stroke="#14467B" stroke-width="0.3"/>
<path d="M5.72009 14.4145C5.61763 14.5911 5.50306 14.7626 5.37657 14.9313L5.33157 14.9912H5.25658H2.95604C2.10502 14.9912 1.4166 15.6825 1.4166 16.5307V17.9824L15.5847 17.9822V17.5555V17.4055H15.7347H17.4397C18.1436 17.4055 18.7158 16.8332 18.7158 16.1294V14.6432C18.655 14.6529 18.5919 14.6588 18.5265 14.6589M5.72009 14.4145L18.3892 14.6534M5.72009 14.4145L11.2835 14.4143M5.72009 14.4145L11.2835 14.4143M18.5265 14.6589C18.5257 14.6589 18.5249 14.6589 18.5241 14.6589V14.5089L18.5289 14.6588C18.5281 14.6589 18.5273 14.6589 18.5265 14.6589ZM18.5265 14.6589C18.479 14.6603 18.4332 14.6581 18.3892 14.6534M18.3892 14.6534V16.1294C18.3892 16.6542 17.9647 17.0786 17.4399 17.0786H15.7349H15.5849V16.9286V16.5305C15.5849 15.6821 14.8962 14.9911 14.0486 14.9911H11.7481H11.674L11.629 14.9324C11.4996 14.7636 11.3843 14.5916 11.2835 14.4143" stroke="#14467B" stroke-width="0.3"/>
<path d="M19.5926 8.10748L19.5926 8.10748V8.1085C19.5926 8.47434 19.2958 8.77348 18.9276 8.77348H18.1158C17.7499 8.77348 17.4508 8.47666 17.4508 8.1085C17.4508 7.74266 17.7476 7.44352 18.1158 7.44352H18.9306C19.2962 7.44352 19.5951 7.74299 19.5926 8.10748Z" stroke="#14467B" stroke-width="0.3"/>
<path d="M18.073 13.2834V13.2834L18.0729 9.70353H18.9764V13.2834C18.9764 13.5327 18.7741 13.7351 18.5247 13.7351C18.2754 13.7351 18.073 13.5327 18.073 13.2834Z" stroke="#14467B" stroke-width="0.3"/>
<path d="M6.6157 3.94483L6.61571 3.94479C6.14121 3.7536 5.59514 3.94502 5.33878 4.39145C5.33874 4.39152 5.3387 4.39159 5.33866 4.39166L3.45819 7.65107L3.45814 7.65115C3.15391 8.17928 3.37043 8.85313 3.92269 9.10939C6.90799 10.5052 9.95945 10.4652 13.0646 9.0887L13.065 9.0885C13.6245 8.83822 13.8354 8.15581 13.5318 7.62919L13.5319 7.62932L6.6157 3.94483ZM6.6157 3.94483C7.8742 4.45065 9.13163 4.45067 10.3936 3.9447L10.3937 3.94467C10.8712 3.75357 11.4139 3.94508 11.6702 4.39157L11.6702 4.39167L6.6157 3.94483ZM15.5148 11.2305C15.5148 11.5175 15.2811 11.7512 14.9941 11.7512H2.00565C1.71866 11.7512 1.48496 11.5175 1.48496 11.2305V2.05002C1.48496 1.76304 1.71865 1.52933 2.00565 1.52933H14.9943C15.2813 1.52933 15.515 1.76302 15.515 2.05002L15.5148 11.2305ZM14.4331 11.1861C14.7667 11.1861 15.0345 10.9183 15.0345 10.5847C15.0345 10.2504 14.7629 9.98334 14.4331 9.98334H12.3519C12.0175 9.98334 11.7505 10.2549 11.7505 10.5847C11.7505 10.9184 12.0182 11.1861 12.3519 11.1861H14.4331ZM4.80749 2.11605H2.72626C2.39193 2.11605 2.12489 2.38766 2.12489 2.71743C2.12489 3.05107 2.39263 3.3188 2.72626 3.3188H4.80749C5.14182 3.3188 5.40886 3.0472 5.40886 2.71743C5.40886 2.3831 5.13725 2.11605 4.80749 2.11605Z" stroke="#14467B" stroke-width="0.3"/>
</g>
<defs>
<clipPath id="clip0_236_74">
<rect width="20" height="20" fill="white"/>
</clipPath>
</defs>
</svg>
