<svg width="20" height="20" viewBox="0 0 20 20" fill="none" xmlns="http://www.w3.org/2000/svg">
<g clip-path="url(#clip0_224_925)">
<path d="M15.1517 13.6377C16.1735 13.6377 17.0041 12.8071 17.0041 11.7853V1.85238C17.0041 0.830606 16.1735 0 15.1517 0H1.85238C0.830606 0.00303026 0 0.833598 0 1.85238V11.7883C0 12.81 0.830569 13.6406 1.85238 13.6406H15.1517V13.6377ZM0.627064 11.7884V1.85249C0.627064 1.17862 1.17556 0.626953 1.8526 0.626953H15.1515C15.8254 0.626953 16.3771 1.17545 16.3771 1.85249V11.7884C16.3771 12.4622 15.8286 13.0139 15.1515 13.0139H1.8526C1.1757 13.0107 0.627064 12.4622 0.627064 11.7884Z" fill="#707F95"/>
<path d="M15.7277 18.762H1.27219C0.877263 18.762 0.557617 19.0818 0.557617 19.4766V20H16.4457V19.4766C16.4456 19.0817 16.1228 18.762 15.7278 18.762H15.7277Z" fill="#707F95"/>
<path d="M6.71722 8.10844C7.04636 8.08333 7.37232 7.93297 7.69196 8.00497C7.87378 8.04567 8.03049 8.1523 8.19339 8.24321C8.73871 8.54407 9.39078 8.65373 10.0051 8.54725C10.2465 8.50656 10.4909 8.4282 10.6695 8.26197C10.8795 8.0676 10.9768 7.77295 10.9768 7.48781C10.9768 7.15246 10.8577 6.8265 10.7229 6.52562C10.6978 6.47237 10.6853 6.41595 10.6916 6.35953C10.7136 6.03977 11.0019 6.08681 11.1869 5.97395C11.3374 5.88304 11.4032 5.66991 11.3278 5.51001C11.2776 5.40034 11.1679 5.32502 11.0489 5.30626C10.9831 5.29688 10.9235 5.3533 10.9329 5.41593C10.9454 5.49111 10.911 5.57899 10.8514 5.62906C10.7605 5.70424 10.632 5.71362 10.5128 5.70424C10.3938 5.69486 10.2778 5.66355 10.1587 5.66975C10.0397 5.67596 9.91428 5.73555 9.87041 5.84522C9.84228 5.9142 9.85166 5.99255 9.86103 6.06773C9.89552 6.34348 9.92683 6.62257 9.96132 6.8983C9.6479 6.66323 9.21848 6.58806 8.84546 6.70393C9.06797 6.49397 9.3156 6.21188 9.13074 5.90147C9.07114 5.80118 8.97721 5.72283 8.87057 5.67896C8.62295 5.57233 8.35961 5.5035 8.09323 5.47521C8.03681 5.46901 7.97721 5.48142 7.93017 5.5097C7.77029 5.60378 7.83609 5.77925 7.9459 5.85761C8.03046 5.9172 8.13392 5.93913 8.228 5.97362C8.30015 5.99873 8.37533 6.03625 8.42541 6.09267C8.45051 6.12081 8.44734 6.16785 8.4192 6.19296C8.33767 6.27131 8.29063 6.39036 8.2218 6.48127C8.21242 6.49382 8.19987 6.5094 8.18731 6.52196C8.08703 6.63163 7.90203 6.58776 7.86451 6.44043C7.75788 6.01417 7.4257 5.68821 6.99627 5.55962C6.51042 5.41229 5.94317 5.58473 5.6172 5.9765C5.29123 6.36825 5.22859 6.9576 5.46367 7.40894C5.69224 7.86389 6.20943 8.14919 6.71721 8.10837L6.71722 8.10844ZM6.33784 6.42218C6.51027 6.42218 6.65126 6.56316 6.65126 6.7356C6.65126 6.81712 6.71705 6.88293 6.79858 6.88293C6.97102 6.88293 7.112 7.02391 7.112 7.19634C7.112 7.36878 6.97102 7.50976 6.79858 7.50976C6.37233 7.50976 6.02442 7.16186 6.02442 6.7356C6.02442 6.56013 6.16554 6.42218 6.33784 6.42218Z" fill="#EAEAEA"/>
<path d="M18.2392 14.4744V16.1294C18.2392 16.5713 17.8819 16.9286 17.4399 16.9286H15.7349V16.5305C15.7349 15.5997 14.9795 14.8411 14.0486 14.8411H11.7481C11.6039 14.6531 11.4785 14.4619 11.3719 14.2643L5.63278 14.2645C5.52311 14.4619 5.39772 14.6531 5.25658 14.8412H2.95604C2.022 14.8412 1.2666 15.5998 1.2666 16.5307V18.1324L15.7347 18.1322V17.5555H17.4397C18.2264 17.5555 18.8658 16.9161 18.8658 16.1294V14.4557C18.7561 14.487 18.6433 14.5089 18.5241 14.5089C18.4238 14.5121 18.3299 14.4963 18.239 14.4744L18.2392 14.4744ZM3.15673 17.3956C2.73986 17.3956 2.40134 17.057 2.40134 16.6402C2.40134 16.2265 2.73986 15.888 3.15673 15.888C3.57361 15.888 3.91213 16.2265 3.91213 16.6402C3.91213 17.057 3.5736 17.3956 3.15673 17.3956ZM5.4104 17.3956C4.99353 17.3956 4.655 17.057 4.655 16.6402C4.655 16.2265 4.99353 15.888 5.4104 15.888C5.82727 15.888 6.16262 16.2265 6.16262 16.6402C6.16262 17.057 5.82727 17.3956 5.4104 17.3956ZM13.8639 17.2733H9.47274C9.12484 17.2733 8.83954 16.9912 8.83954 16.6401C8.83954 16.2922 9.12483 16.0101 9.47274 16.0101H13.8639C14.2149 16.0101 14.4971 16.2922 14.4971 16.6401C14.4971 16.9912 14.2149 17.2733 13.8639 17.2733Z" fill="#707F95"/>
<path d="M18.9306 7.29352H18.1158C17.6644 7.29352 17.3008 7.66018 17.3008 8.1085C17.3008 8.55987 17.6674 8.92348 18.1158 8.92348H18.9276C19.379 8.92348 19.7426 8.55682 19.7426 8.1085C19.7456 7.66015 19.3788 7.29352 18.9306 7.29352Z" fill="#707F95"/>
<path d="M17.923 13.2834C17.923 13.6156 18.1926 13.8851 18.5247 13.8851C18.8569 13.8851 19.1264 13.6156 19.1264 13.2834V9.55353H17.9229L17.923 13.2834Z" fill="#707F95"/>
<path d="M14.9941 11.9012C15.364 11.9012 15.6648 11.6003 15.6648 11.2305L15.665 2.05002C15.665 1.68018 15.3641 1.37933 14.9943 1.37933H2.00565C1.6358 1.37933 1.33496 1.6802 1.33496 2.05002V11.2305C1.33496 11.6003 1.63582 11.9012 2.00565 11.9012H14.9941ZM14.8845 10.5847C14.8845 10.8355 14.6839 11.0361 14.4331 11.0361H12.3519C12.1011 11.0361 11.9005 10.8355 11.9005 10.5847C11.9005 10.3371 12.1011 10.1333 12.3519 10.1333H14.4331C14.6807 10.1333 14.8845 10.3339 14.8845 10.5847ZM6.55957 4.08393C7.85408 4.60427 9.15161 4.60427 10.4494 4.08393C10.8569 3.92087 11.3207 4.08393 11.5401 4.46634L13.4019 7.70409C13.662 8.15547 13.4802 8.73843 13.0038 8.95157C9.93527 10.3119 6.92927 10.3495 3.98623 8.97351C3.51294 8.75417 3.32809 8.1774 3.58812 7.72603L5.46876 4.46633C5.68824 4.08392 6.15533 3.92101 6.55965 4.08392L6.55957 4.08393ZM2.72626 2.26605H4.80749C5.0551 2.26605 5.25886 2.46663 5.25886 2.71743C5.25886 2.96504 5.05829 3.1688 4.80749 3.1688H2.72626C2.47547 3.1688 2.27489 2.96823 2.27489 2.71743C2.27489 2.46981 2.47546 2.26605 2.72626 2.26605Z" fill="#707F95"/>
</g>
<defs>
<clipPath id="clip0_224_925">
<rect width="20" height="20" fill="white"/>
</clipPath>
</defs>
</svg>
