<svg width="18" height="18" viewBox="0 0 18 18" fill="none" xmlns="http://www.w3.org/2000/svg">
<g clip-path="url(#clip0_232_15)">
<mask id="mask0_232_15" style="mask-type:luminance" maskUnits="userSpaceOnUse" x="0" y="0" width="18" height="18">
<path d="M18 0H0V17.9963H18V0Z" fill="white"/>
</mask>
<g mask="url(#mask0_232_15)">
<path d="M17.2898 17.9962C17.1536 17.9005 16.999 17.8232 16.8812 17.7054C15.4051 16.2588 13.9327 14.8085 12.4567 13.3582C12.4199 13.3214 12.3794 13.2882 12.3352 13.2441C12.2837 13.2772 12.2358 13.3103 12.1916 13.3435C11.2162 14.087 10.1192 14.5729 8.91188 14.779C7.1082 15.0882 5.38918 14.8159 3.79532 13.8993C2.13519 12.9459 0.983047 11.5619 0.368323 9.74714C0.184274 9.20972 0.0738449 8.65389 0.0333541 8.08334C0.0296731 8.03917 0.0149492 7.995 0.00390625 7.95082C0.00390625 7.62322 0.00390625 7.29561 0.00390625 6.968C0.048078 6.66984 0.0848878 6.368 0.140103 6.06984C0.342557 4.99131 0.769551 4.00481 1.42477 3.12138C2.50697 1.66371 3.92047 0.680885 5.68734 0.250211C8.1536 -0.349789 10.41 0.1361 12.3904 1.72628C13.9769 2.9999 14.8935 4.67843 15.0996 6.71033C15.28 8.4772 14.8567 10.1116 13.8518 11.584C13.6493 11.8821 13.4174 12.1619 13.1671 12.4895C13.2113 12.5189 13.2738 12.5484 13.318 12.5925C14.7978 14.0465 16.2738 15.4968 17.7499 16.9508C18.0076 17.2048 18.0738 17.4809 17.8972 17.7165C17.8088 17.8343 17.6579 17.9079 17.5327 17.9999C17.4554 17.9962 17.3745 17.9962 17.2898 17.9962ZM1.16342 7.22935C1.15973 8.2453 1.35115 9.22076 1.67875 9.92015C2.70943 12.1177 4.43213 13.3987 6.83949 13.7005C8.52538 13.914 10.0824 13.5017 11.4334 12.4637C13.3511 10.9913 14.2088 9.02199 13.9033 6.61831C13.6346 4.50174 12.4898 2.9042 10.6125 1.92138C8.48121 0.802358 6.30575 0.850211 4.23335 2.09438C2.23458 3.29438 1.24808 5.12751 1.16342 7.22935Z" fill="#14467B"/>
</g>
</g>
<defs>
<clipPath id="clip0_232_15">
<rect width="18" height="18" fill="white"/>
</clipPath>
</defs>
</svg>
